G04 #@! TF.GenerationSoftware,KiCad,Pcbnew,6.0.0-rc1-unknown-7dfc4e3~65~ubuntu18.04.1*
G04 #@! TF.CreationDate,2018-08-22T16:39:41+05:30*
G04 #@! TF.ProjectId,1sqinch555,317371696E63683535352E6B69636164,rev?*
G04 #@! TF.SameCoordinates,Original*
G04 #@! TF.FileFunction,Copper,L2,Bot,Signal*
G04 #@! TF.FilePolarity,Positive*
%FSLAX46Y46*%
G04 Gerber Fmt 4.6, Leading zero omitted, Abs format (unit mm)*
G04 Created by KiCad (PCBNEW 6.0.0-rc1-unknown-7dfc4e3~65~ubuntu18.04.1) date Wed Aug 22 16:39:41 2018*
%MOMM*%
%LPD*%
G01*
G04 APERTURE LIST*
G04 #@! TA.AperFunction,SMDPad,CuDef*
%ADD10R,2.000000X3.000000*%
G04 #@! TD*
G04 #@! TA.AperFunction,ComponentPad*
%ADD11C,3.800000*%
G04 #@! TD*
G04 #@! TA.AperFunction,SMDPad,CuDef*
%ADD12R,2.000000X2.000000*%
G04 #@! TD*
G04 #@! TA.AperFunction,ComponentPad*
%ADD13C,2.000000*%
G04 #@! TD*
G04 #@! TA.AperFunction,ViaPad*
%ADD14C,0.800000*%
G04 #@! TD*
G04 #@! TA.AperFunction,Conductor*
%ADD15C,0.250000*%
G04 #@! TD*
G04 APERTURE END LIST*
D10*
G04 #@! TO.P,J6,1*
G04 #@! TO.N,/Q5*
X39000000Y-61000000D03*
G04 #@! TD*
G04 #@! TO.P,J8,1*
G04 #@! TO.N,/Q6*
X50000000Y-50000000D03*
G04 #@! TD*
G04 #@! TO.P,J10,1*
G04 #@! TO.N,/Q7*
X50000000Y-38999999D03*
G04 #@! TD*
G04 #@! TO.P,J12,1*
G04 #@! TO.N,/Q8*
X61000000Y-61000000D03*
G04 #@! TD*
G04 #@! TO.P,J14,1*
G04 #@! TO.N,/Q9*
X61000001Y-50000000D03*
G04 #@! TD*
G04 #@! TO.P,J16,1*
G04 #@! TO.N,/Q10*
X61000000Y-39000000D03*
G04 #@! TD*
G04 #@! TO.P,J18,1*
G04 #@! TO.N,/Q11*
X39000000Y-39000000D03*
G04 #@! TD*
G04 #@! TO.P,J20,1*
G04 #@! TO.N,/Q12*
X38999999Y-50000000D03*
G04 #@! TD*
G04 #@! TO.P,J22,1*
G04 #@! TO.N,/Q13*
X50000000Y-61000001D03*
G04 #@! TD*
G04 #@! TO.P,J24,1*
G04 #@! TO.N,/GND*
X44500000Y-50000000D03*
G04 #@! TD*
G04 #@! TO.P,J26,1*
G04 #@! TO.N,/GND*
X44500000Y-39000000D03*
G04 #@! TD*
G04 #@! TO.P,J28,1*
G04 #@! TO.N,/GND*
X44500000Y-61000000D03*
G04 #@! TD*
D11*
G04 #@! TO.P,BT1,2*
G04 #@! TO.N,/GND*
X50000000Y-43650000D03*
G04 #@! TO.P,BT1,1*
G04 #@! TO.N,/9V*
X50000000Y-56350000D03*
G04 #@! TD*
D12*
G04 #@! TO.P,J7,1*
G04 #@! TO.N,/10*
X64500000Y-59500000D03*
G04 #@! TD*
G04 #@! TO.P,J9,1*
G04 #@! TO.N,/7*
X75500000Y-59499999D03*
G04 #@! TD*
G04 #@! TO.P,J11,1*
G04 #@! TO.N,/11*
X86500000Y-59500000D03*
G04 #@! TD*
G04 #@! TO.P,J13,1*
G04 #@! TO.N,/9*
X89500000Y-59500000D03*
G04 #@! TD*
G04 #@! TO.P,J15,1*
G04 #@! TO.N,/6*
X100500000Y-59499999D03*
G04 #@! TD*
G04 #@! TO.P,J17,1*
G04 #@! TO.N,/12*
X111500000Y-59500000D03*
G04 #@! TD*
G04 #@! TO.P,J19,1*
G04 #@! TO.N,/8*
X114500000Y-59500000D03*
G04 #@! TD*
G04 #@! TO.P,J21,1*
G04 #@! TO.N,/13*
X125500000Y-59499999D03*
G04 #@! TD*
G04 #@! TO.P,J23,1*
G04 #@! TO.N,/5*
X136500000Y-59500000D03*
G04 #@! TD*
G04 #@! TO.P,J25,1*
G04 #@! TO.N,/GND1*
X81000000Y-59500000D03*
G04 #@! TD*
G04 #@! TO.P,J27,1*
G04 #@! TO.N,/GND2*
X106000000Y-59500000D03*
G04 #@! TD*
G04 #@! TO.P,J29,1*
G04 #@! TO.N,/GND3*
X131000000Y-59500000D03*
G04 #@! TD*
D13*
G04 #@! TO.P,J30,1*
G04 #@! TO.N,/GND1*
X70000000Y-41000000D03*
G04 #@! TD*
G04 #@! TO.P,J31,1*
G04 #@! TO.N,/GND1*
X81000000Y-41000000D03*
G04 #@! TD*
G04 #@! TO.P,J32,1*
G04 #@! TO.N,/GND2*
X95000000Y-41000000D03*
G04 #@! TD*
G04 #@! TO.P,J33,1*
G04 #@! TO.N,/GND2*
X106000000Y-41000000D03*
G04 #@! TD*
G04 #@! TO.P,J34,1*
G04 #@! TO.N,/GND3*
X131000000Y-41000000D03*
G04 #@! TD*
G04 #@! TO.P,J35,1*
G04 #@! TO.N,/GND3*
X120000000Y-41000000D03*
G04 #@! TD*
D14*
G04 #@! TO.N,Net-(D4-Pad1)*
X75500000Y-53000000D03*
X64750000Y-50000000D03*
G04 #@! TO.N,Net-(D7-Pad1)*
X64750000Y-42000000D03*
X77750000Y-53000000D03*
G04 #@! TO.N,Net-(D8-Pad1)*
X66250000Y-42000000D03*
X66250000Y-44500000D03*
G04 #@! TO.N,Net-(D10-Pad1)*
X100500000Y-42000000D03*
X92750008Y-45000000D03*
G04 #@! TO.N,Net-(D11-Pad1)*
X99000000Y-40500000D03*
X91250000Y-45000000D03*
G04 #@! TO.N,Net-(D16-Pad1)*
X111250000Y-42000000D03*
X111250000Y-53000000D03*
G04 #@! TO.N,Net-(D23-Pad1)*
X136250000Y-44900000D03*
X134150002Y-44900000D03*
G04 #@! TO.N,Net-(D25-Pad1)*
X129150000Y-54450000D03*
X129150000Y-51100000D03*
G04 #@! TO.N,Net-(D26-Pad1)*
X122050000Y-47900000D03*
X122000000Y-43600000D03*
G04 #@! TO.N,/9V*
X57000000Y-40550008D03*
X57050000Y-53300000D03*
G04 #@! TO.N,/GND*
X53300000Y-50500000D03*
X44500000Y-39000000D03*
X44500000Y-50000000D03*
X44500000Y-61000000D03*
X51900000Y-53300000D03*
X46000000Y-57150000D03*
X55600000Y-59600000D03*
G04 #@! TO.N,/5*
X136500000Y-59500000D03*
G04 #@! TO.N,/GND1*
X81000000Y-59500000D03*
X86250000Y-45050000D03*
G04 #@! TO.N,/6*
X100500000Y-59499999D03*
G04 #@! TO.N,/7*
X75500000Y-59499999D03*
G04 #@! TO.N,/8*
X114500000Y-59500000D03*
G04 #@! TO.N,/GND2*
X106000000Y-59500000D03*
G04 #@! TO.N,/9*
X89500000Y-59500000D03*
G04 #@! TO.N,/10*
X64500000Y-59500000D03*
G04 #@! TO.N,/11*
X86500000Y-59500000D03*
G04 #@! TO.N,/GND3*
X131000000Y-59500000D03*
G04 #@! TO.N,/12*
X111500000Y-59500000D03*
G04 #@! TO.N,/13*
X125500000Y-59499999D03*
G04 #@! TO.N,/Q5*
X39000000Y-61000000D03*
G04 #@! TO.N,/Q6*
X50000000Y-50000000D03*
G04 #@! TO.N,/Q7*
X50000000Y-38999999D03*
G04 #@! TO.N,/Q8*
X61000000Y-61000000D03*
G04 #@! TO.N,/Q9*
X61000001Y-50000000D03*
G04 #@! TO.N,/Q10*
X61000000Y-39000000D03*
G04 #@! TO.N,/Q11*
X39000000Y-39000000D03*
G04 #@! TO.N,/Q12*
X38999999Y-50000000D03*
G04 #@! TO.N,/Q13*
X50000000Y-61000001D03*
G04 #@! TO.N,/OUT*
X55000000Y-56650000D03*
X57249998Y-48150000D03*
G04 #@! TD*
D15*
G04 #@! TO.N,Net-(D4-Pad1)*
X75500000Y-53000000D02*
X65750000Y-53000000D01*
X64750000Y-52000000D02*
X64750000Y-50000000D01*
X65750000Y-53000000D02*
X64750000Y-52000000D01*
G04 #@! TO.N,Net-(D7-Pad1)*
X77750000Y-53000000D02*
X76750000Y-52000000D01*
X76750000Y-52000000D02*
X66500000Y-52000000D01*
X66500000Y-52000000D02*
X66000000Y-51500000D01*
X66000000Y-51500000D02*
X66000000Y-48500000D01*
X64750000Y-47250000D02*
X64750000Y-42000000D01*
X66000000Y-48500000D02*
X64750000Y-47250000D01*
G04 #@! TO.N,Net-(D8-Pad1)*
X66250000Y-42000000D02*
X66250000Y-44500000D01*
G04 #@! TO.N,Net-(D10-Pad1)*
X93315693Y-45000000D02*
X92750008Y-45000000D01*
X99600000Y-45000000D02*
X93315693Y-45000000D01*
X100500000Y-42000000D02*
X100500000Y-44100000D01*
X100500000Y-44100000D02*
X99600000Y-45000000D01*
G04 #@! TO.N,Net-(D11-Pad1)*
X98350000Y-42750000D02*
X92250000Y-42750000D01*
X91250000Y-43750000D02*
X91250000Y-45000000D01*
X92250000Y-42750000D02*
X91250000Y-43750000D01*
X99000000Y-40500000D02*
X99000000Y-42100000D01*
X99000000Y-42100000D02*
X98350000Y-42750000D01*
G04 #@! TO.N,Net-(D16-Pad1)*
X111250000Y-42000000D02*
X111250000Y-53000000D01*
G04 #@! TO.N,Net-(D23-Pad1)*
X136250000Y-44900000D02*
X134150002Y-44900000D01*
G04 #@! TO.N,Net-(D25-Pad1)*
X129150000Y-54450000D02*
X129150000Y-51100000D01*
G04 #@! TO.N,Net-(D26-Pad1)*
X122050000Y-47900000D02*
X122050000Y-45050000D01*
X122050000Y-43650000D02*
X122000000Y-43600000D01*
X122050000Y-45050000D02*
X122050000Y-43650000D01*
G04 #@! TO.N,/9V*
X58025002Y-41575010D02*
X58025002Y-52150000D01*
X57000000Y-40550008D02*
X58025002Y-41575010D01*
X58025002Y-52150000D02*
X58025002Y-52324998D01*
X58025002Y-52324998D02*
X57050000Y-53300000D01*
X57050000Y-53300000D02*
X57050000Y-56400000D01*
X57050000Y-56400000D02*
X55700000Y-57750000D01*
X55700000Y-57750000D02*
X54450000Y-57750000D01*
X53050000Y-56350000D02*
X50000000Y-56350000D01*
X54450000Y-57750000D02*
X53050000Y-56350000D01*
G04 #@! TO.N,/GND*
X53300000Y-49934315D02*
X53300000Y-50500000D01*
X53300000Y-44262995D02*
X53300000Y-49934315D01*
X52687005Y-43650000D02*
X53300000Y-44262995D01*
X50000000Y-43650000D02*
X52687005Y-43650000D01*
X53300000Y-51900000D02*
X51900000Y-53300000D01*
X53300000Y-50500000D02*
X53300000Y-51900000D01*
X55034315Y-59600000D02*
X54334315Y-58900000D01*
X55600000Y-59600000D02*
X55034315Y-59600000D01*
X47750000Y-58900000D02*
X46000000Y-57150000D01*
X54334315Y-58900000D02*
X47750000Y-58900000D01*
X51900000Y-53300000D02*
X46650000Y-53300000D01*
X46000000Y-53950000D02*
X46000000Y-57150000D01*
X46650000Y-53300000D02*
X46000000Y-53950000D01*
X44500000Y-61000000D02*
X44500000Y-59250000D01*
X44500000Y-50000000D02*
X44500000Y-48250000D01*
X47312995Y-43650000D02*
X44500000Y-43650000D01*
X50000000Y-43650000D02*
X47312995Y-43650000D01*
X44500000Y-48250000D02*
X44500000Y-43650000D01*
X44500000Y-43650000D02*
X44500000Y-39000000D01*
X46000000Y-57150000D02*
X44500000Y-57150000D01*
X44500000Y-59250000D02*
X44500000Y-57150000D01*
X44500000Y-57150000D02*
X44500000Y-50000000D01*
G04 #@! TO.N,/GND1*
X70000000Y-39585787D02*
X70585787Y-39000000D01*
X70000000Y-41000000D02*
X70000000Y-39585787D01*
X70585787Y-39000000D02*
X80500000Y-39000000D01*
X81000000Y-39500000D02*
X81000000Y-41000000D01*
X80500000Y-39000000D02*
X81000000Y-39500000D01*
X86250000Y-45050000D02*
X81000000Y-45050000D01*
X81000000Y-41000000D02*
X81000000Y-45050000D01*
X81000000Y-45050000D02*
X81000000Y-59500000D01*
G04 #@! TO.N,/GND2*
X95000000Y-39585787D02*
X95585787Y-39000000D01*
X95000000Y-41000000D02*
X95000000Y-39585787D01*
X95585787Y-39000000D02*
X105500000Y-39000000D01*
X106000000Y-39500000D02*
X106000000Y-41000000D01*
X105500000Y-39000000D02*
X106000000Y-39500000D01*
X106000000Y-59500000D02*
X106000000Y-41000000D01*
G04 #@! TO.N,/GND3*
X120000000Y-41000000D02*
X120000000Y-39500000D01*
X120000000Y-39500000D02*
X120500000Y-39000000D01*
X120500000Y-39000000D02*
X130500000Y-39000000D01*
X131000000Y-39500000D02*
X131000000Y-41000000D01*
X130500000Y-39000000D02*
X131000000Y-39500000D01*
X131000000Y-41000000D02*
X131000000Y-59500000D01*
G04 #@! TO.N,/OUT*
X56000000Y-55650000D02*
X55000000Y-56650000D01*
X56000000Y-53300000D02*
X56000000Y-55650000D01*
X57249998Y-52050002D02*
X56000000Y-53300000D01*
X57249998Y-48150000D02*
X57249998Y-52050002D01*
G04 #@! TD*
G04 #@! TO.N,/GND*
G36*
X59362756Y-40500000D02*
X59411263Y-40743863D01*
X59549400Y-40950600D01*
X59756137Y-41088737D01*
X60000000Y-41137244D01*
X61875000Y-41137244D01*
X61875000Y-41223776D01*
X62046271Y-41637261D01*
X62362739Y-41953729D01*
X62474447Y-42000000D01*
X62362739Y-42046271D01*
X62046271Y-42362739D01*
X61875000Y-42776224D01*
X61875000Y-43223776D01*
X62046271Y-43637261D01*
X62362739Y-43953729D01*
X62474447Y-44000000D01*
X62362739Y-44046271D01*
X62046271Y-44362739D01*
X61875000Y-44776224D01*
X61875000Y-45223776D01*
X62046271Y-45637261D01*
X62362739Y-45953729D01*
X62474447Y-46000000D01*
X62362739Y-46046271D01*
X62046271Y-46362739D01*
X61875000Y-46776224D01*
X61875000Y-47223776D01*
X62046271Y-47637261D01*
X62362739Y-47953729D01*
X62474447Y-48000000D01*
X62414087Y-48025002D01*
X62243864Y-47911263D01*
X62000001Y-47862756D01*
X60000001Y-47862756D01*
X59756138Y-47911263D01*
X59549401Y-48049400D01*
X59411264Y-48256137D01*
X59362757Y-48500000D01*
X59362757Y-51500000D01*
X59411264Y-51743863D01*
X59549401Y-51950600D01*
X59756138Y-52088737D01*
X60000001Y-52137244D01*
X62000001Y-52137244D01*
X62243864Y-52088737D01*
X62414087Y-51974998D01*
X62474447Y-52000000D01*
X62362739Y-52046271D01*
X62046271Y-52362739D01*
X61875000Y-52776224D01*
X61875000Y-53223776D01*
X62046271Y-53637261D01*
X62362739Y-53953729D01*
X62474447Y-54000000D01*
X62362739Y-54046271D01*
X62046271Y-54362739D01*
X61875000Y-54776224D01*
X61875000Y-55223776D01*
X62046271Y-55637261D01*
X62362739Y-55953729D01*
X62474447Y-56000000D01*
X62362739Y-56046271D01*
X62046271Y-56362739D01*
X61875000Y-56776224D01*
X61875000Y-57223776D01*
X62046271Y-57637261D01*
X62132826Y-57723816D01*
X62085203Y-57771439D01*
X62085201Y-57771444D01*
X61976821Y-57933645D01*
X61976817Y-57933649D01*
X61931674Y-58042635D01*
X61876030Y-58176969D01*
X61876030Y-58176973D01*
X61845256Y-58331684D01*
X61825000Y-58433520D01*
X61825000Y-58862756D01*
X60000000Y-58862756D01*
X59756137Y-58911263D01*
X59549400Y-59049400D01*
X59411263Y-59256137D01*
X59362756Y-59500000D01*
X59362756Y-61825000D01*
X51637244Y-61825000D01*
X51637244Y-59500001D01*
X51588737Y-59256138D01*
X51450600Y-59049401D01*
X51243863Y-58911264D01*
X51000000Y-58862757D01*
X50531811Y-58862757D01*
X51430298Y-58490592D01*
X52140592Y-57780298D01*
X52422380Y-57100000D01*
X52739341Y-57100000D01*
X53867437Y-58228097D01*
X53909280Y-58290720D01*
X54157365Y-58456484D01*
X54376134Y-58500000D01*
X54376135Y-58500000D01*
X54450000Y-58514693D01*
X54523865Y-58500000D01*
X55626135Y-58500000D01*
X55700000Y-58514693D01*
X55773865Y-58500000D01*
X55773866Y-58500000D01*
X55992635Y-58456484D01*
X56240720Y-58290720D01*
X56282565Y-58228094D01*
X57528099Y-56982561D01*
X57590720Y-56940720D01*
X57756484Y-56692635D01*
X57800000Y-56473866D01*
X57814693Y-56400001D01*
X57800000Y-56326136D01*
X57800000Y-53999569D01*
X57918953Y-53880616D01*
X58075000Y-53503885D01*
X58075000Y-53335660D01*
X58503098Y-52907561D01*
X58565722Y-52865718D01*
X58731486Y-52617632D01*
X58775002Y-52398863D01*
X58789695Y-52324999D01*
X58775002Y-52251134D01*
X58775002Y-41648876D01*
X58789695Y-41575010D01*
X58731486Y-41282374D01*
X58634513Y-41137244D01*
X58565722Y-41034290D01*
X58503099Y-40992447D01*
X58025000Y-40514349D01*
X58025000Y-40346123D01*
X57868953Y-39969392D01*
X57580616Y-39681055D01*
X57203885Y-39525008D01*
X56796115Y-39525008D01*
X56419384Y-39681055D01*
X56131047Y-39969392D01*
X55975000Y-40346123D01*
X55975000Y-40753893D01*
X56131047Y-41130624D01*
X56419384Y-41418961D01*
X56796115Y-41575008D01*
X56964341Y-41575008D01*
X57275002Y-41885670D01*
X57275003Y-47125000D01*
X57046113Y-47125000D01*
X56669382Y-47281047D01*
X56381045Y-47569384D01*
X56224998Y-47946115D01*
X56224998Y-48353885D01*
X56381045Y-48730616D01*
X56499998Y-48849569D01*
X56499999Y-51739340D01*
X55521906Y-52717435D01*
X55459280Y-52759280D01*
X55293516Y-53007366D01*
X55275863Y-53096115D01*
X55235307Y-53300000D01*
X55250000Y-53373865D01*
X55250001Y-55339339D01*
X54964341Y-55625000D01*
X54796115Y-55625000D01*
X54419384Y-55781047D01*
X54131047Y-56069384D01*
X54042885Y-56282226D01*
X53632565Y-55871906D01*
X53590720Y-55809280D01*
X53342635Y-55643516D01*
X53123866Y-55600000D01*
X53123865Y-55600000D01*
X53050000Y-55585307D01*
X52976135Y-55600000D01*
X52422380Y-55600000D01*
X52140592Y-54919702D01*
X51430298Y-54209408D01*
X50502254Y-53825000D01*
X49497746Y-53825000D01*
X48569702Y-54209408D01*
X47859408Y-54919702D01*
X47475000Y-55847746D01*
X47475000Y-56852254D01*
X47859408Y-57780298D01*
X48569702Y-58490592D01*
X49468189Y-58862757D01*
X49000000Y-58862757D01*
X48756137Y-58911264D01*
X48549400Y-59049401D01*
X48411263Y-59256138D01*
X48362756Y-59500001D01*
X48362756Y-60041234D01*
X48266354Y-59976820D01*
X48266351Y-59976817D01*
X48137723Y-59923538D01*
X48023031Y-59876030D01*
X48023027Y-59876030D01*
X47908217Y-59853193D01*
X47766481Y-59825000D01*
X46733519Y-59825000D01*
X46591783Y-59853193D01*
X46476973Y-59876030D01*
X46476971Y-59876031D01*
X46476968Y-59876031D01*
X46369020Y-59920745D01*
X46233649Y-59976817D01*
X46233647Y-59976819D01*
X46233645Y-59976820D01*
X46125000Y-60049415D01*
X46125000Y-59375680D01*
X46029850Y-59145966D01*
X45854034Y-58970151D01*
X45624320Y-58875000D01*
X44781250Y-58875000D01*
X44625000Y-59031250D01*
X44625000Y-60875000D01*
X44645000Y-60875000D01*
X44645000Y-61125000D01*
X44625000Y-61125000D01*
X44625000Y-61145000D01*
X44375000Y-61145000D01*
X44375000Y-61125000D01*
X44355000Y-61125000D01*
X44355000Y-60875000D01*
X44375000Y-60875000D01*
X44375000Y-59031250D01*
X44218750Y-58875000D01*
X43375680Y-58875000D01*
X43145966Y-58970151D01*
X42970150Y-59145966D01*
X42875000Y-59375680D01*
X42875000Y-60049416D01*
X42766354Y-59976820D01*
X42766351Y-59976817D01*
X42637723Y-59923538D01*
X42523031Y-59876030D01*
X42523027Y-59876030D01*
X42408217Y-59853193D01*
X42266481Y-59825000D01*
X41233519Y-59825000D01*
X41091783Y-59853193D01*
X40976973Y-59876030D01*
X40976971Y-59876031D01*
X40976968Y-59876031D01*
X40869020Y-59920745D01*
X40733649Y-59976817D01*
X40733647Y-59976819D01*
X40733645Y-59976820D01*
X40637244Y-60041234D01*
X40637244Y-59500000D01*
X40588737Y-59256137D01*
X40450600Y-59049400D01*
X40243863Y-58911263D01*
X40000000Y-58862756D01*
X38175000Y-58862756D01*
X38175000Y-52137244D01*
X39999999Y-52137244D01*
X40243862Y-52088737D01*
X40450599Y-51950600D01*
X40588736Y-51743863D01*
X40637243Y-51500000D01*
X40637243Y-50958765D01*
X40733645Y-51023180D01*
X40733647Y-51023181D01*
X40733649Y-51023183D01*
X40869020Y-51079255D01*
X40976968Y-51123969D01*
X40976971Y-51123969D01*
X40976973Y-51123970D01*
X41168315Y-51162030D01*
X41168319Y-51162030D01*
X41233519Y-51174999D01*
X42266481Y-51175001D01*
X42463372Y-51135837D01*
X42463374Y-51135836D01*
X42523027Y-51123970D01*
X42523031Y-51123970D01*
X42641110Y-51075059D01*
X42766351Y-51023183D01*
X42766354Y-51023180D01*
X42875000Y-50950584D01*
X42875000Y-51624320D01*
X42970150Y-51854034D01*
X43145966Y-52029849D01*
X43375680Y-52125000D01*
X44218750Y-52125000D01*
X44375000Y-51968750D01*
X44375000Y-50125000D01*
X44355000Y-50125000D01*
X44355000Y-49875000D01*
X44375000Y-49875000D01*
X44375000Y-48031250D01*
X44625000Y-48031250D01*
X44625000Y-49875000D01*
X44645000Y-49875000D01*
X44645000Y-50125000D01*
X44625000Y-50125000D01*
X44625000Y-51968750D01*
X44781250Y-52125000D01*
X45624320Y-52125000D01*
X45854034Y-52029849D01*
X46029850Y-51854034D01*
X46125000Y-51624320D01*
X46125000Y-50950585D01*
X46233645Y-51023180D01*
X46233647Y-51023181D01*
X46233649Y-51023183D01*
X46369020Y-51079255D01*
X46476968Y-51123969D01*
X46476971Y-51123969D01*
X46476973Y-51123970D01*
X46536628Y-51135836D01*
X46733519Y-51175000D01*
X47766481Y-51175000D01*
X47963372Y-51135836D01*
X48023027Y-51123970D01*
X48023031Y-51123970D01*
X48141110Y-51075059D01*
X48266351Y-51023183D01*
X48266354Y-51023180D01*
X48362756Y-50958766D01*
X48362756Y-51500000D01*
X48411263Y-51743863D01*
X48549400Y-51950600D01*
X48756137Y-52088737D01*
X49000000Y-52137244D01*
X51000000Y-52137244D01*
X51243863Y-52088737D01*
X51450600Y-51950600D01*
X51588737Y-51743863D01*
X51637244Y-51500000D01*
X51637244Y-48500000D01*
X51588737Y-48256137D01*
X51450600Y-48049400D01*
X51243863Y-47911263D01*
X51000000Y-47862756D01*
X49000000Y-47862756D01*
X48756137Y-47911263D01*
X48549400Y-48049400D01*
X48411263Y-48256137D01*
X48362756Y-48500000D01*
X48362756Y-49041234D01*
X48266354Y-48976820D01*
X48266351Y-48976817D01*
X48141110Y-48924941D01*
X48023031Y-48876030D01*
X48023027Y-48876030D01*
X47941719Y-48859857D01*
X47766481Y-48825000D01*
X46733519Y-48825000D01*
X46558281Y-48859857D01*
X46476973Y-48876030D01*
X46476971Y-48876031D01*
X46476968Y-48876031D01*
X46369020Y-48920745D01*
X46233649Y-48976817D01*
X46233647Y-48976819D01*
X46233645Y-48976820D01*
X46125000Y-49049415D01*
X46125000Y-48375680D01*
X46029850Y-48145966D01*
X45854034Y-47970151D01*
X45624320Y-47875000D01*
X44781250Y-47875000D01*
X44625000Y-48031250D01*
X44375000Y-48031250D01*
X44218750Y-47875000D01*
X43375680Y-47875000D01*
X43145966Y-47970151D01*
X42970150Y-48145966D01*
X42875000Y-48375680D01*
X42875000Y-49049416D01*
X42766354Y-48976820D01*
X42766351Y-48976817D01*
X42641110Y-48924941D01*
X42523031Y-48876030D01*
X42523027Y-48876030D01*
X42463374Y-48864164D01*
X42463372Y-48864163D01*
X42266481Y-48824999D01*
X41233519Y-48825001D01*
X41168319Y-48837970D01*
X41168315Y-48837970D01*
X40976973Y-48876030D01*
X40976971Y-48876031D01*
X40976968Y-48876031D01*
X40869020Y-48920745D01*
X40733649Y-48976817D01*
X40733647Y-48976819D01*
X40733645Y-48976820D01*
X40637243Y-49041235D01*
X40637243Y-48500000D01*
X40588736Y-48256137D01*
X40450599Y-48049400D01*
X40243862Y-47911263D01*
X39999999Y-47862756D01*
X38175000Y-47862756D01*
X38175000Y-45446041D01*
X48380736Y-45446041D01*
X48589678Y-45803806D01*
X49521258Y-46179564D01*
X50525722Y-46170220D01*
X51410322Y-45803806D01*
X51619264Y-45446041D01*
X50000000Y-43826777D01*
X48380736Y-45446041D01*
X38175000Y-45446041D01*
X38175000Y-43171258D01*
X47470436Y-43171258D01*
X47479780Y-44175722D01*
X47846194Y-45060322D01*
X48203959Y-45269264D01*
X49823223Y-43650000D01*
X50176777Y-43650000D01*
X51796041Y-45269264D01*
X52153806Y-45060322D01*
X52529564Y-44128742D01*
X52520220Y-43124278D01*
X52153806Y-42239678D01*
X51796041Y-42030736D01*
X50176777Y-43650000D01*
X49823223Y-43650000D01*
X48203959Y-42030736D01*
X47846194Y-42239678D01*
X47470436Y-43171258D01*
X38175000Y-43171258D01*
X38175000Y-41137244D01*
X40000000Y-41137244D01*
X40243863Y-41088737D01*
X40450600Y-40950600D01*
X40588737Y-40743863D01*
X40637244Y-40500000D01*
X40637244Y-39958766D01*
X40733645Y-40023180D01*
X40733647Y-40023181D01*
X40733649Y-40023183D01*
X40869020Y-40079255D01*
X40976968Y-40123969D01*
X40976971Y-40123969D01*
X40976973Y-40123970D01*
X41036628Y-40135836D01*
X41233519Y-40175000D01*
X42266481Y-40175000D01*
X42463372Y-40135836D01*
X42523027Y-40123970D01*
X42523031Y-40123970D01*
X42641110Y-40075059D01*
X42766351Y-40023183D01*
X42766354Y-40023180D01*
X42875000Y-39950584D01*
X42875000Y-40624320D01*
X42970150Y-40854034D01*
X43145966Y-41029849D01*
X43375680Y-41125000D01*
X44218750Y-41125000D01*
X44375000Y-40968750D01*
X44375000Y-39125000D01*
X44355000Y-39125000D01*
X44355000Y-38875000D01*
X44375000Y-38875000D01*
X44375000Y-38855000D01*
X44625000Y-38855000D01*
X44625000Y-38875000D01*
X44645000Y-38875000D01*
X44645000Y-39125000D01*
X44625000Y-39125000D01*
X44625000Y-40968750D01*
X44781250Y-41125000D01*
X45624320Y-41125000D01*
X45854034Y-41029849D01*
X46029850Y-40854034D01*
X46125000Y-40624320D01*
X46125000Y-39950585D01*
X46233645Y-40023180D01*
X46233647Y-40023181D01*
X46233649Y-40023183D01*
X46369020Y-40079255D01*
X46476968Y-40123969D01*
X46476971Y-40123969D01*
X46476973Y-40123970D01*
X46536628Y-40135836D01*
X46733519Y-40175000D01*
X47766481Y-40175000D01*
X47963372Y-40135836D01*
X48023027Y-40123970D01*
X48023031Y-40123970D01*
X48141110Y-40075059D01*
X48266351Y-40023183D01*
X48266354Y-40023180D01*
X48362756Y-39958766D01*
X48362756Y-40499999D01*
X48411263Y-40743862D01*
X48549400Y-40950599D01*
X48756137Y-41088736D01*
X49000000Y-41137243D01*
X49456261Y-41137243D01*
X48589678Y-41496194D01*
X48380736Y-41853959D01*
X50000000Y-43473223D01*
X51619264Y-41853959D01*
X51410322Y-41496194D01*
X50520410Y-41137243D01*
X51000000Y-41137243D01*
X51243863Y-41088736D01*
X51450600Y-40950599D01*
X51588737Y-40743862D01*
X51637244Y-40499999D01*
X51637244Y-38175000D01*
X59362756Y-38175000D01*
X59362756Y-40500000D01*
X59362756Y-40500000D01*
G37*
X59362756Y-40500000D02*
X59411263Y-40743863D01*
X59549400Y-40950600D01*
X59756137Y-41088737D01*
X60000000Y-41137244D01*
X61875000Y-41137244D01*
X61875000Y-41223776D01*
X62046271Y-41637261D01*
X62362739Y-41953729D01*
X62474447Y-42000000D01*
X62362739Y-42046271D01*
X62046271Y-42362739D01*
X61875000Y-42776224D01*
X61875000Y-43223776D01*
X62046271Y-43637261D01*
X62362739Y-43953729D01*
X62474447Y-44000000D01*
X62362739Y-44046271D01*
X62046271Y-44362739D01*
X61875000Y-44776224D01*
X61875000Y-45223776D01*
X62046271Y-45637261D01*
X62362739Y-45953729D01*
X62474447Y-46000000D01*
X62362739Y-46046271D01*
X62046271Y-46362739D01*
X61875000Y-46776224D01*
X61875000Y-47223776D01*
X62046271Y-47637261D01*
X62362739Y-47953729D01*
X62474447Y-48000000D01*
X62414087Y-48025002D01*
X62243864Y-47911263D01*
X62000001Y-47862756D01*
X60000001Y-47862756D01*
X59756138Y-47911263D01*
X59549401Y-48049400D01*
X59411264Y-48256137D01*
X59362757Y-48500000D01*
X59362757Y-51500000D01*
X59411264Y-51743863D01*
X59549401Y-51950600D01*
X59756138Y-52088737D01*
X60000001Y-52137244D01*
X62000001Y-52137244D01*
X62243864Y-52088737D01*
X62414087Y-51974998D01*
X62474447Y-52000000D01*
X62362739Y-52046271D01*
X62046271Y-52362739D01*
X61875000Y-52776224D01*
X61875000Y-53223776D01*
X62046271Y-53637261D01*
X62362739Y-53953729D01*
X62474447Y-54000000D01*
X62362739Y-54046271D01*
X62046271Y-54362739D01*
X61875000Y-54776224D01*
X61875000Y-55223776D01*
X62046271Y-55637261D01*
X62362739Y-55953729D01*
X62474447Y-56000000D01*
X62362739Y-56046271D01*
X62046271Y-56362739D01*
X61875000Y-56776224D01*
X61875000Y-57223776D01*
X62046271Y-57637261D01*
X62132826Y-57723816D01*
X62085203Y-57771439D01*
X62085201Y-57771444D01*
X61976821Y-57933645D01*
X61976817Y-57933649D01*
X61931674Y-58042635D01*
X61876030Y-58176969D01*
X61876030Y-58176973D01*
X61845256Y-58331684D01*
X61825000Y-58433520D01*
X61825000Y-58862756D01*
X60000000Y-58862756D01*
X59756137Y-58911263D01*
X59549400Y-59049400D01*
X59411263Y-59256137D01*
X59362756Y-59500000D01*
X59362756Y-61825000D01*
X51637244Y-61825000D01*
X51637244Y-59500001D01*
X51588737Y-59256138D01*
X51450600Y-59049401D01*
X51243863Y-58911264D01*
X51000000Y-58862757D01*
X50531811Y-58862757D01*
X51430298Y-58490592D01*
X52140592Y-57780298D01*
X52422380Y-57100000D01*
X52739341Y-57100000D01*
X53867437Y-58228097D01*
X53909280Y-58290720D01*
X54157365Y-58456484D01*
X54376134Y-58500000D01*
X54376135Y-58500000D01*
X54450000Y-58514693D01*
X54523865Y-58500000D01*
X55626135Y-58500000D01*
X55700000Y-58514693D01*
X55773865Y-58500000D01*
X55773866Y-58500000D01*
X55992635Y-58456484D01*
X56240720Y-58290720D01*
X56282565Y-58228094D01*
X57528099Y-56982561D01*
X57590720Y-56940720D01*
X57756484Y-56692635D01*
X57800000Y-56473866D01*
X57814693Y-56400001D01*
X57800000Y-56326136D01*
X57800000Y-53999569D01*
X57918953Y-53880616D01*
X58075000Y-53503885D01*
X58075000Y-53335660D01*
X58503098Y-52907561D01*
X58565722Y-52865718D01*
X58731486Y-52617632D01*
X58775002Y-52398863D01*
X58789695Y-52324999D01*
X58775002Y-52251134D01*
X58775002Y-41648876D01*
X58789695Y-41575010D01*
X58731486Y-41282374D01*
X58634513Y-41137244D01*
X58565722Y-41034290D01*
X58503099Y-40992447D01*
X58025000Y-40514349D01*
X58025000Y-40346123D01*
X57868953Y-39969392D01*
X57580616Y-39681055D01*
X57203885Y-39525008D01*
X56796115Y-39525008D01*
X56419384Y-39681055D01*
X56131047Y-39969392D01*
X55975000Y-40346123D01*
X55975000Y-40753893D01*
X56131047Y-41130624D01*
X56419384Y-41418961D01*
X56796115Y-41575008D01*
X56964341Y-41575008D01*
X57275002Y-41885670D01*
X57275003Y-47125000D01*
X57046113Y-47125000D01*
X56669382Y-47281047D01*
X56381045Y-47569384D01*
X56224998Y-47946115D01*
X56224998Y-48353885D01*
X56381045Y-48730616D01*
X56499998Y-48849569D01*
X56499999Y-51739340D01*
X55521906Y-52717435D01*
X55459280Y-52759280D01*
X55293516Y-53007366D01*
X55275863Y-53096115D01*
X55235307Y-53300000D01*
X55250000Y-53373865D01*
X55250001Y-55339339D01*
X54964341Y-55625000D01*
X54796115Y-55625000D01*
X54419384Y-55781047D01*
X54131047Y-56069384D01*
X54042885Y-56282226D01*
X53632565Y-55871906D01*
X53590720Y-55809280D01*
X53342635Y-55643516D01*
X53123866Y-55600000D01*
X53123865Y-55600000D01*
X53050000Y-55585307D01*
X52976135Y-55600000D01*
X52422380Y-55600000D01*
X52140592Y-54919702D01*
X51430298Y-54209408D01*
X50502254Y-53825000D01*
X49497746Y-53825000D01*
X48569702Y-54209408D01*
X47859408Y-54919702D01*
X47475000Y-55847746D01*
X47475000Y-56852254D01*
X47859408Y-57780298D01*
X48569702Y-58490592D01*
X49468189Y-58862757D01*
X49000000Y-58862757D01*
X48756137Y-58911264D01*
X48549400Y-59049401D01*
X48411263Y-59256138D01*
X48362756Y-59500001D01*
X48362756Y-60041234D01*
X48266354Y-59976820D01*
X48266351Y-59976817D01*
X48137723Y-59923538D01*
X48023031Y-59876030D01*
X48023027Y-59876030D01*
X47908217Y-59853193D01*
X47766481Y-59825000D01*
X46733519Y-59825000D01*
X46591783Y-59853193D01*
X46476973Y-59876030D01*
X46476971Y-59876031D01*
X46476968Y-59876031D01*
X46369020Y-59920745D01*
X46233649Y-59976817D01*
X46233647Y-59976819D01*
X46233645Y-59976820D01*
X46125000Y-60049415D01*
X46125000Y-59375680D01*
X46029850Y-59145966D01*
X45854034Y-58970151D01*
X45624320Y-58875000D01*
X44781250Y-58875000D01*
X44625000Y-59031250D01*
X44625000Y-60875000D01*
X44645000Y-60875000D01*
X44645000Y-61125000D01*
X44625000Y-61125000D01*
X44625000Y-61145000D01*
X44375000Y-61145000D01*
X44375000Y-61125000D01*
X44355000Y-61125000D01*
X44355000Y-60875000D01*
X44375000Y-60875000D01*
X44375000Y-59031250D01*
X44218750Y-58875000D01*
X43375680Y-58875000D01*
X43145966Y-58970151D01*
X42970150Y-59145966D01*
X42875000Y-59375680D01*
X42875000Y-60049416D01*
X42766354Y-59976820D01*
X42766351Y-59976817D01*
X42637723Y-59923538D01*
X42523031Y-59876030D01*
X42523027Y-59876030D01*
X42408217Y-59853193D01*
X42266481Y-59825000D01*
X41233519Y-59825000D01*
X41091783Y-59853193D01*
X40976973Y-59876030D01*
X40976971Y-59876031D01*
X40976968Y-59876031D01*
X40869020Y-59920745D01*
X40733649Y-59976817D01*
X40733647Y-59976819D01*
X40733645Y-59976820D01*
X40637244Y-60041234D01*
X40637244Y-59500000D01*
X40588737Y-59256137D01*
X40450600Y-59049400D01*
X40243863Y-58911263D01*
X40000000Y-58862756D01*
X38175000Y-58862756D01*
X38175000Y-52137244D01*
X39999999Y-52137244D01*
X40243862Y-52088737D01*
X40450599Y-51950600D01*
X40588736Y-51743863D01*
X40637243Y-51500000D01*
X40637243Y-50958765D01*
X40733645Y-51023180D01*
X40733647Y-51023181D01*
X40733649Y-51023183D01*
X40869020Y-51079255D01*
X40976968Y-51123969D01*
X40976971Y-51123969D01*
X40976973Y-51123970D01*
X41168315Y-51162030D01*
X41168319Y-51162030D01*
X41233519Y-51174999D01*
X42266481Y-51175001D01*
X42463372Y-51135837D01*
X42463374Y-51135836D01*
X42523027Y-51123970D01*
X42523031Y-51123970D01*
X42641110Y-51075059D01*
X42766351Y-51023183D01*
X42766354Y-51023180D01*
X42875000Y-50950584D01*
X42875000Y-51624320D01*
X42970150Y-51854034D01*
X43145966Y-52029849D01*
X43375680Y-52125000D01*
X44218750Y-52125000D01*
X44375000Y-51968750D01*
X44375000Y-50125000D01*
X44355000Y-50125000D01*
X44355000Y-49875000D01*
X44375000Y-49875000D01*
X44375000Y-48031250D01*
X44625000Y-48031250D01*
X44625000Y-49875000D01*
X44645000Y-49875000D01*
X44645000Y-50125000D01*
X44625000Y-50125000D01*
X44625000Y-51968750D01*
X44781250Y-52125000D01*
X45624320Y-52125000D01*
X45854034Y-52029849D01*
X46029850Y-51854034D01*
X46125000Y-51624320D01*
X46125000Y-50950585D01*
X46233645Y-51023180D01*
X46233647Y-51023181D01*
X46233649Y-51023183D01*
X46369020Y-51079255D01*
X46476968Y-51123969D01*
X46476971Y-51123969D01*
X46476973Y-51123970D01*
X46536628Y-51135836D01*
X46733519Y-51175000D01*
X47766481Y-51175000D01*
X47963372Y-51135836D01*
X48023027Y-51123970D01*
X48023031Y-51123970D01*
X48141110Y-51075059D01*
X48266351Y-51023183D01*
X48266354Y-51023180D01*
X48362756Y-50958766D01*
X48362756Y-51500000D01*
X48411263Y-51743863D01*
X48549400Y-51950600D01*
X48756137Y-52088737D01*
X49000000Y-52137244D01*
X51000000Y-52137244D01*
X51243863Y-52088737D01*
X51450600Y-51950600D01*
X51588737Y-51743863D01*
X51637244Y-51500000D01*
X51637244Y-48500000D01*
X51588737Y-48256137D01*
X51450600Y-48049400D01*
X51243863Y-47911263D01*
X51000000Y-47862756D01*
X49000000Y-47862756D01*
X48756137Y-47911263D01*
X48549400Y-48049400D01*
X48411263Y-48256137D01*
X48362756Y-48500000D01*
X48362756Y-49041234D01*
X48266354Y-48976820D01*
X48266351Y-48976817D01*
X48141110Y-48924941D01*
X48023031Y-48876030D01*
X48023027Y-48876030D01*
X47941719Y-48859857D01*
X47766481Y-48825000D01*
X46733519Y-48825000D01*
X46558281Y-48859857D01*
X46476973Y-48876030D01*
X46476971Y-48876031D01*
X46476968Y-48876031D01*
X46369020Y-48920745D01*
X46233649Y-48976817D01*
X46233647Y-48976819D01*
X46233645Y-48976820D01*
X46125000Y-49049415D01*
X46125000Y-48375680D01*
X46029850Y-48145966D01*
X45854034Y-47970151D01*
X45624320Y-47875000D01*
X44781250Y-47875000D01*
X44625000Y-48031250D01*
X44375000Y-48031250D01*
X44218750Y-47875000D01*
X43375680Y-47875000D01*
X43145966Y-47970151D01*
X42970150Y-48145966D01*
X42875000Y-48375680D01*
X42875000Y-49049416D01*
X42766354Y-48976820D01*
X42766351Y-48976817D01*
X42641110Y-48924941D01*
X42523031Y-48876030D01*
X42523027Y-48876030D01*
X42463374Y-48864164D01*
X42463372Y-48864163D01*
X42266481Y-48824999D01*
X41233519Y-48825001D01*
X41168319Y-48837970D01*
X41168315Y-48837970D01*
X40976973Y-48876030D01*
X40976971Y-48876031D01*
X40976968Y-48876031D01*
X40869020Y-48920745D01*
X40733649Y-48976817D01*
X40733647Y-48976819D01*
X40733645Y-48976820D01*
X40637243Y-49041235D01*
X40637243Y-48500000D01*
X40588736Y-48256137D01*
X40450599Y-48049400D01*
X40243862Y-47911263D01*
X39999999Y-47862756D01*
X38175000Y-47862756D01*
X38175000Y-45446041D01*
X48380736Y-45446041D01*
X48589678Y-45803806D01*
X49521258Y-46179564D01*
X50525722Y-46170220D01*
X51410322Y-45803806D01*
X51619264Y-45446041D01*
X50000000Y-43826777D01*
X48380736Y-45446041D01*
X38175000Y-45446041D01*
X38175000Y-43171258D01*
X47470436Y-43171258D01*
X47479780Y-44175722D01*
X47846194Y-45060322D01*
X48203959Y-45269264D01*
X49823223Y-43650000D01*
X50176777Y-43650000D01*
X51796041Y-45269264D01*
X52153806Y-45060322D01*
X52529564Y-44128742D01*
X52520220Y-43124278D01*
X52153806Y-42239678D01*
X51796041Y-42030736D01*
X50176777Y-43650000D01*
X49823223Y-43650000D01*
X48203959Y-42030736D01*
X47846194Y-42239678D01*
X47470436Y-43171258D01*
X38175000Y-43171258D01*
X38175000Y-41137244D01*
X40000000Y-41137244D01*
X40243863Y-41088737D01*
X40450600Y-40950600D01*
X40588737Y-40743863D01*
X40637244Y-40500000D01*
X40637244Y-39958766D01*
X40733645Y-40023180D01*
X40733647Y-40023181D01*
X40733649Y-40023183D01*
X40869020Y-40079255D01*
X40976968Y-40123969D01*
X40976971Y-40123969D01*
X40976973Y-40123970D01*
X41036628Y-40135836D01*
X41233519Y-40175000D01*
X42266481Y-40175000D01*
X42463372Y-40135836D01*
X42523027Y-40123970D01*
X42523031Y-40123970D01*
X42641110Y-40075059D01*
X42766351Y-40023183D01*
X42766354Y-40023180D01*
X42875000Y-39950584D01*
X42875000Y-40624320D01*
X42970150Y-40854034D01*
X43145966Y-41029849D01*
X43375680Y-41125000D01*
X44218750Y-41125000D01*
X44375000Y-40968750D01*
X44375000Y-39125000D01*
X44355000Y-39125000D01*
X44355000Y-38875000D01*
X44375000Y-38875000D01*
X44375000Y-38855000D01*
X44625000Y-38855000D01*
X44625000Y-38875000D01*
X44645000Y-38875000D01*
X44645000Y-39125000D01*
X44625000Y-39125000D01*
X44625000Y-40968750D01*
X44781250Y-41125000D01*
X45624320Y-41125000D01*
X45854034Y-41029849D01*
X46029850Y-40854034D01*
X46125000Y-40624320D01*
X46125000Y-39950585D01*
X46233645Y-40023180D01*
X46233647Y-40023181D01*
X46233649Y-40023183D01*
X46369020Y-40079255D01*
X46476968Y-40123969D01*
X46476971Y-40123969D01*
X46476973Y-40123970D01*
X46536628Y-40135836D01*
X46733519Y-40175000D01*
X47766481Y-40175000D01*
X47963372Y-40135836D01*
X48023027Y-40123970D01*
X48023031Y-40123970D01*
X48141110Y-40075059D01*
X48266351Y-40023183D01*
X48266354Y-40023180D01*
X48362756Y-39958766D01*
X48362756Y-40499999D01*
X48411263Y-40743862D01*
X48549400Y-40950599D01*
X48756137Y-41088736D01*
X49000000Y-41137243D01*
X49456261Y-41137243D01*
X48589678Y-41496194D01*
X48380736Y-41853959D01*
X50000000Y-43473223D01*
X51619264Y-41853959D01*
X51410322Y-41496194D01*
X50520410Y-41137243D01*
X51000000Y-41137243D01*
X51243863Y-41088736D01*
X51450600Y-40950599D01*
X51588737Y-40743862D01*
X51637244Y-40499999D01*
X51637244Y-38175000D01*
X59362756Y-38175000D01*
X59362756Y-40500000D01*
G04 #@! TD*
M02*
