M48
INCH,TZ
T1C0.0157
T2C0.0400
T3C0.0866
T4C0.0197
%
G90
G05
T1
X017520Y-016102
X017520Y-020433
X017520Y-023307
X020472Y-022797
X020984Y-020876
X020984Y-019882
X021654Y-022303
X022441Y-021299
X022441Y-015965
X022441Y-024114
X022539Y-018957
X025984Y-022717
X030315Y-022717
X034646Y-022717
X036417Y-022717
X040748Y-022717
X045079Y-022717
X046850Y-022717
X051181Y-022717
X055512Y-022717
T2
X049016Y-015551
X038583Y-015551
X028150Y-015551
X032480Y-015551
X042913Y-015551
X053346Y-015551
T3
X019685Y-017185
X019685Y-022185
T4
X024665Y-016358
X024665Y-016634
X024665Y-016909
X025531Y-016358
X025531Y-016634
X025531Y-016909
X045531Y-020492
X045531Y-020768
X045531Y-021043
X046398Y-020492
X046398Y-020768
X046398Y-021043
X045531Y-016358
X045531Y-016634
X045531Y-016909
X046398Y-016358
X046398Y-016634
X046398Y-016909
X024665Y-020492
X024665Y-020768
X024665Y-021043
X025531Y-020492
X025531Y-020768
X025531Y-021043
X035098Y-020492
X035098Y-020768
X035098Y-021043
X035965Y-020492
X035965Y-020768
X035965Y-021043
X035098Y-016358
X035098Y-016634
X035098Y-016909
X035965Y-016358
X035965Y-016634
X035965Y-016909
T0
M30
