M48
METRIC,TZ
T1C0.400
T2C1.016
T3C2.200
T4C0.500
%
G90
G05
T1
X39.Y-50.
X39.Y-39.
X39.Y-61.
X44.5Y-39.
X44.5Y-50.
X44.5Y-61.
X46.Y-57.15
X50.Y-39.
X50.Y-50.
X50.Y-61.
X51.9Y-53.3
X53.3Y-50.5
X55.Y-56.65
X55.6Y-59.6
X57.Y-40.55
X57.05Y-53.3
X57.25Y-48.15
X61.Y-39.
X61.Y-61.
X61.Y-50.
X66.Y-59.5
X77.Y-59.5
X82.5Y-59.5
X88.Y-59.5
X92.5Y-59.5
X103.5Y-59.5
X109.Y-59.5
X114.5Y-59.5
X119.Y-59.5
X130.Y-59.5
X135.5Y-59.5
X141.Y-59.5
T2
X82.5Y-41.
X71.5Y-41.
X109.Y-41.
X124.5Y-41.
X98.Y-41.
X135.5Y-41.
T3
X50.Y-43.65
X50.Y-56.35
T4
X62.75Y-41.55
X62.75Y-42.25
X62.75Y-42.95
X64.75Y-41.55
X64.75Y-42.25
X64.75Y-42.95
X89.25Y-52.05
X89.25Y-52.75
X89.25Y-53.45
X91.25Y-52.05
X91.25Y-52.75
X91.25Y-53.45
X89.25Y-41.55
X89.25Y-42.25
X89.25Y-42.95
X91.25Y-41.55
X91.25Y-42.25
X91.25Y-42.95
X115.75Y-52.05
X115.75Y-52.75
X115.75Y-53.45
X117.75Y-52.05
X117.75Y-52.75
X117.75Y-53.45
X115.75Y-41.55
X115.75Y-42.25
X115.75Y-42.95
X117.75Y-41.55
X117.75Y-42.25
X117.75Y-42.95
X62.75Y-52.05
X62.75Y-52.75
X62.75Y-53.45
X64.75Y-52.05
X64.75Y-52.75
X64.75Y-53.45
T0
M30
