G04 #@! TF.GenerationSoftware,KiCad,Pcbnew,6.0.0-rc1-unknown-7dfc4e3~65~ubuntu18.04.1*
G04 #@! TF.CreationDate,2018-08-22T16:39:41+05:30*
G04 #@! TF.ProjectId,1sqinch555,317371696E63683535352E6B69636164,rev?*
G04 #@! TF.SameCoordinates,Original*
G04 #@! TF.FileFunction,Soldermask,Top*
G04 #@! TF.FilePolarity,Negative*
%FSLAX46Y46*%
G04 Gerber Fmt 4.6, Leading zero omitted, Abs format (unit mm)*
G04 Created by KiCad (PCBNEW 6.0.0-rc1-unknown-7dfc4e3~65~ubuntu18.04.1) date Wed Aug 22 16:39:41 2018*
%MOMM*%
%LPD*%
G01*
G04 APERTURE LIST*
%ADD10C,1.400000*%
%ADD11R,1.598880X1.598880*%
%ADD12R,1.650000X1.400000*%
%ADD13R,1.400000X1.650000*%
%ADD14R,2.400000X3.400000*%
%ADD15C,4.200000*%
%ADD16R,2.400000X2.400000*%
%ADD17R,1.950000X1.000000*%
%ADD18R,1.900000X1.000000*%
%ADD19C,2.400000*%
%ADD20C,0.254000*%
G04 APERTURE END LIST*
D10*
G04 #@! TO.C,REF\002A\002A*
X63000000Y-51000000D03*
G04 #@! TD*
D11*
G04 #@! TO.C,D21*
X125500000Y-48549020D03*
X125500000Y-46450980D03*
G04 #@! TD*
G04 #@! TO.C,D7*
X86250000Y-56549020D03*
X86250000Y-54450980D03*
G04 #@! TD*
G04 #@! TO.C,D1*
X64700000Y-56549020D03*
X64700000Y-54450980D03*
G04 #@! TD*
G04 #@! TO.C,D2*
X75500000Y-48549020D03*
X75500000Y-46450980D03*
G04 #@! TD*
G04 #@! TO.C,D3*
X86250000Y-48549020D03*
X86250000Y-46450980D03*
G04 #@! TD*
G04 #@! TO.C,D4*
X75500000Y-56549020D03*
X75500000Y-54450980D03*
G04 #@! TD*
G04 #@! TO.C,D5*
X64750000Y-48549020D03*
X64750000Y-46450980D03*
G04 #@! TD*
G04 #@! TO.C,D6*
X75500000Y-40549020D03*
X75500000Y-38450980D03*
G04 #@! TD*
G04 #@! TO.C,D8*
X64750000Y-40549020D03*
X64750000Y-38450980D03*
G04 #@! TD*
G04 #@! TO.C,D9*
X86250000Y-40549020D03*
X86250000Y-38450980D03*
G04 #@! TD*
G04 #@! TO.C,D10*
X89750000Y-56549020D03*
X89750000Y-54450980D03*
G04 #@! TD*
G04 #@! TO.C,D11*
X100500000Y-40549020D03*
X100500000Y-38450980D03*
G04 #@! TD*
G04 #@! TO.C,D12*
X89750000Y-48549020D03*
X89750000Y-46450980D03*
G04 #@! TD*
G04 #@! TO.C,D13*
X100500000Y-56549020D03*
X100500000Y-54450980D03*
G04 #@! TD*
G04 #@! TO.C,D14*
X89750000Y-40549020D03*
X89750000Y-38450980D03*
G04 #@! TD*
G04 #@! TO.C,D15*
X111250000Y-48549020D03*
X111250000Y-46450980D03*
G04 #@! TD*
G04 #@! TO.C,D16*
X111250000Y-56549020D03*
X111250000Y-54450980D03*
G04 #@! TD*
G04 #@! TO.C,D17*
X111250000Y-40549020D03*
X111250000Y-38450980D03*
G04 #@! TD*
G04 #@! TO.C,D18*
X100500000Y-48549020D03*
X100500000Y-46450980D03*
G04 #@! TD*
G04 #@! TO.C,D19*
X114750000Y-56549020D03*
X114750000Y-54450980D03*
G04 #@! TD*
G04 #@! TO.C,D20*
X136250000Y-40549020D03*
X136250000Y-38450980D03*
G04 #@! TD*
G04 #@! TO.C,D22*
X125500000Y-56549020D03*
X125500000Y-54450980D03*
G04 #@! TD*
G04 #@! TO.C,D23*
X136250000Y-48549020D03*
X136250000Y-46450980D03*
G04 #@! TD*
G04 #@! TO.C,D24*
X114750000Y-40549020D03*
X114750000Y-38450980D03*
G04 #@! TD*
G04 #@! TO.C,D25*
X136250000Y-56549020D03*
X136250000Y-54450980D03*
G04 #@! TD*
G04 #@! TO.C,D26*
X114750000Y-48549020D03*
X114750000Y-46450980D03*
G04 #@! TD*
G04 #@! TO.C,D27*
X125500000Y-40549020D03*
X125500000Y-38450980D03*
G04 #@! TD*
D10*
G04 #@! TO.C,J3*
X51200000Y-47450000D03*
G04 #@! TD*
D12*
G04 #@! TO.C,R3*
X73000000Y-56500000D03*
X73000000Y-54500000D03*
G04 #@! TD*
D13*
G04 #@! TO.C,C2*
X56700000Y-59600000D03*
X58700000Y-59600000D03*
G04 #@! TD*
D14*
G04 #@! TO.C,J6*
X39000000Y-61000000D03*
G04 #@! TD*
G04 #@! TO.C,J8*
X50000000Y-50000000D03*
G04 #@! TD*
G04 #@! TO.C,J10*
X50000000Y-38999999D03*
G04 #@! TD*
G04 #@! TO.C,J12*
X61000000Y-61000000D03*
G04 #@! TD*
G04 #@! TO.C,J14*
X61000001Y-50000000D03*
G04 #@! TD*
G04 #@! TO.C,J16*
X61000000Y-39000000D03*
G04 #@! TD*
G04 #@! TO.C,J18*
X39000000Y-39000000D03*
G04 #@! TD*
G04 #@! TO.C,J20*
X38999999Y-50000000D03*
G04 #@! TD*
G04 #@! TO.C,J22*
X50000000Y-61000001D03*
G04 #@! TD*
G04 #@! TO.C,J24*
X44500000Y-50000000D03*
G04 #@! TD*
G04 #@! TO.C,J26*
X44500000Y-39000000D03*
G04 #@! TD*
G04 #@! TO.C,J28*
X44500000Y-61000000D03*
G04 #@! TD*
D15*
G04 #@! TO.C,BT1*
X50000000Y-43650000D03*
X50000000Y-56350000D03*
G04 #@! TD*
D16*
G04 #@! TO.C,J7*
X64500000Y-59500000D03*
G04 #@! TD*
G04 #@! TO.C,J9*
X75500000Y-59499999D03*
G04 #@! TD*
G04 #@! TO.C,J11*
X86500000Y-59500000D03*
G04 #@! TD*
G04 #@! TO.C,J13*
X89500000Y-59500000D03*
G04 #@! TD*
G04 #@! TO.C,J15*
X100500000Y-59499999D03*
G04 #@! TD*
G04 #@! TO.C,J17*
X111500000Y-59500000D03*
G04 #@! TD*
G04 #@! TO.C,J19*
X114500000Y-59500000D03*
G04 #@! TD*
G04 #@! TO.C,J21*
X125500000Y-59499999D03*
G04 #@! TD*
G04 #@! TO.C,J23*
X136500000Y-59500000D03*
G04 #@! TD*
G04 #@! TO.C,J25*
X81000000Y-59500000D03*
G04 #@! TD*
G04 #@! TO.C,J27*
X106000000Y-59500000D03*
G04 #@! TD*
G04 #@! TO.C,J29*
X131000000Y-59500000D03*
G04 #@! TD*
D17*
G04 #@! TO.C,U1*
X53300000Y-53295000D03*
X53300000Y-54565000D03*
X53300000Y-55835000D03*
X53300000Y-57105000D03*
X58700000Y-57105000D03*
X58700000Y-55835000D03*
X58700000Y-54565000D03*
X58700000Y-53295000D03*
G04 #@! TD*
D18*
G04 #@! TO.C,U2*
X53300000Y-40555000D03*
X53300000Y-41825000D03*
X53300000Y-43095000D03*
X53300000Y-44365000D03*
X53300000Y-45635000D03*
X53300000Y-46905000D03*
X53300000Y-48175000D03*
X53300000Y-49445000D03*
X58700000Y-49445000D03*
X58700000Y-48175000D03*
X58700000Y-46905000D03*
X58700000Y-45635000D03*
X58700000Y-44365000D03*
X58700000Y-43095000D03*
X58700000Y-41825000D03*
X58700000Y-40555000D03*
G04 #@! TD*
D19*
G04 #@! TO.C,J30*
X70000000Y-41000000D03*
G04 #@! TD*
G04 #@! TO.C,J31*
X81000000Y-41000000D03*
G04 #@! TD*
G04 #@! TO.C,J32*
X95000000Y-41000000D03*
G04 #@! TD*
G04 #@! TO.C,J33*
X106000000Y-41000000D03*
G04 #@! TD*
G04 #@! TO.C,J34*
X131000000Y-41000000D03*
G04 #@! TD*
G04 #@! TO.C,J35*
X120000000Y-41000000D03*
G04 #@! TD*
D10*
G04 #@! TO.C,J1*
X60500000Y-54550000D03*
G04 #@! TD*
G04 #@! TO.C,J2*
X58700000Y-50949999D03*
G04 #@! TD*
G04 #@! TO.C,J4*
X60450000Y-46900000D03*
G04 #@! TD*
G04 #@! TO.C,J5*
X48900000Y-46550000D03*
G04 #@! TD*
D12*
G04 #@! TO.C,C1*
X46000000Y-56000000D03*
X46000000Y-54000000D03*
G04 #@! TD*
G04 #@! TO.C,R1*
X43500000Y-54000000D03*
X43500000Y-56000000D03*
G04 #@! TD*
G04 #@! TO.C,R2*
X67200000Y-56500000D03*
X67200000Y-54500000D03*
G04 #@! TD*
G04 #@! TO.C,R4*
X83750000Y-56500000D03*
X83750000Y-54500000D03*
G04 #@! TD*
G04 #@! TO.C,R5*
X92250000Y-56500000D03*
X92250000Y-54500000D03*
G04 #@! TD*
G04 #@! TO.C,R6*
X98000000Y-56500000D03*
X98000000Y-54500000D03*
G04 #@! TD*
G04 #@! TO.C,R7*
X108750000Y-56500000D03*
X108750000Y-54500000D03*
G04 #@! TD*
G04 #@! TO.C,R8*
X117250000Y-56500000D03*
X117250000Y-54500000D03*
G04 #@! TD*
G04 #@! TO.C,R9*
X123000000Y-56500000D03*
X123000000Y-54500000D03*
G04 #@! TD*
G04 #@! TO.C,R10*
X133750000Y-56500000D03*
X133750000Y-54500000D03*
G04 #@! TD*
D10*
G04 #@! TO.C,REF\002A\002A*
X63000000Y-39000000D03*
G04 #@! TD*
G04 #@! TO.C,REF\002A\002A*
X63000000Y-41000000D03*
G04 #@! TD*
G04 #@! TO.C,REF\002A\002A*
X63000000Y-43000000D03*
G04 #@! TD*
G04 #@! TO.C,REF\002A\002A*
X63000000Y-45000000D03*
G04 #@! TD*
G04 #@! TO.C,REF\002A\002A*
X63000000Y-47000000D03*
G04 #@! TD*
G04 #@! TO.C,REF\002A\002A*
X63000000Y-49000000D03*
G04 #@! TD*
G04 #@! TO.C,REF\002A\002A*
X63000000Y-53000000D03*
G04 #@! TD*
G04 #@! TO.C,REF\002A\002A*
X63000000Y-55000000D03*
G04 #@! TD*
G04 #@! TO.C,REF\002A\002A*
X63000000Y-57000000D03*
G04 #@! TD*
G04 #@! TO.C,REF\002A\002A*
X88000000Y-39000000D03*
G04 #@! TD*
G04 #@! TO.C,REF\002A\002A*
X88000000Y-41000000D03*
G04 #@! TD*
G04 #@! TO.C,REF\002A\002A*
X88000000Y-43000000D03*
G04 #@! TD*
G04 #@! TO.C,REF\002A\002A*
X88000000Y-45000000D03*
G04 #@! TD*
G04 #@! TO.C,REF\002A\002A*
X88000000Y-47000000D03*
G04 #@! TD*
G04 #@! TO.C,REF\002A\002A*
X88000000Y-49000000D03*
G04 #@! TD*
G04 #@! TO.C,REF\002A\002A*
X88000000Y-51000000D03*
G04 #@! TD*
G04 #@! TO.C,REF\002A\002A*
X88000000Y-53000000D03*
G04 #@! TD*
G04 #@! TO.C,REF\002A\002A*
X88000000Y-55000000D03*
G04 #@! TD*
G04 #@! TO.C,REF\002A\002A*
X88000000Y-57000000D03*
G04 #@! TD*
G04 #@! TO.C,REF\002A\002A*
X113000000Y-39000000D03*
G04 #@! TD*
G04 #@! TO.C,REF\002A\002A*
X113000000Y-41000000D03*
G04 #@! TD*
G04 #@! TO.C,REF\002A\002A*
X113000000Y-43000000D03*
G04 #@! TD*
G04 #@! TO.C,REF\002A\002A*
X113000000Y-45000000D03*
G04 #@! TD*
G04 #@! TO.C,REF\002A\002A*
X113000000Y-47000000D03*
G04 #@! TD*
G04 #@! TO.C,REF\002A\002A*
X113000000Y-49000000D03*
G04 #@! TD*
G04 #@! TO.C,REF\002A\002A*
X113000000Y-51000000D03*
G04 #@! TD*
G04 #@! TO.C,REF\002A\002A*
X113000000Y-53000000D03*
G04 #@! TD*
G04 #@! TO.C,REF\002A\002A*
X113000000Y-55000000D03*
G04 #@! TD*
G04 #@! TO.C,REF\002A\002A*
X113000000Y-57000000D03*
G04 #@! TD*
D20*
G36*
X99123000Y-41750000D02*
X99132667Y-41798601D01*
X99160197Y-41839803D01*
X99201399Y-41867333D01*
X99250000Y-41877000D01*
X101750000Y-41877000D01*
X101798601Y-41867333D01*
X101839803Y-41839803D01*
X101867333Y-41798601D01*
X101877000Y-41750000D01*
X101877000Y-37377000D01*
X109873000Y-37377000D01*
X109873000Y-41750000D01*
X109882667Y-41798601D01*
X109910197Y-41839803D01*
X109951399Y-41867333D01*
X110000000Y-41877000D01*
X112873000Y-41877000D01*
X112873000Y-45123000D01*
X110000000Y-45123000D01*
X109951399Y-45132667D01*
X109910197Y-45160197D01*
X109882667Y-45201399D01*
X109873000Y-45250000D01*
X109873000Y-49750000D01*
X109882667Y-49798601D01*
X109910197Y-49839803D01*
X109951399Y-49867333D01*
X110000000Y-49877000D01*
X112873000Y-49877000D01*
X112873000Y-53123000D01*
X107500000Y-53123000D01*
X107451399Y-53132667D01*
X107410197Y-53160197D01*
X107382667Y-53201399D01*
X107373000Y-53250000D01*
X107373000Y-57873000D01*
X101877000Y-57873000D01*
X101877000Y-53250000D01*
X101867333Y-53201399D01*
X101839803Y-53160197D01*
X101798601Y-53132667D01*
X101750000Y-53123000D01*
X96750000Y-53123000D01*
X96701399Y-53132667D01*
X96660197Y-53160197D01*
X96632667Y-53201399D01*
X96623000Y-53250000D01*
X96623000Y-57873000D01*
X93627000Y-57873000D01*
X93627000Y-53250000D01*
X93617333Y-53201399D01*
X93589803Y-53160197D01*
X93548601Y-53132667D01*
X93500000Y-53123000D01*
X88127000Y-53123000D01*
X88127000Y-49877000D01*
X91000000Y-49877000D01*
X91048601Y-49867333D01*
X91089803Y-49839803D01*
X91117333Y-49798601D01*
X91127000Y-49750000D01*
X91127000Y-45250000D01*
X99123000Y-45250000D01*
X99123000Y-49750000D01*
X99132667Y-49798601D01*
X99160197Y-49839803D01*
X99201399Y-49867333D01*
X99250000Y-49877000D01*
X101750000Y-49877000D01*
X101798601Y-49867333D01*
X101839803Y-49839803D01*
X101867333Y-49798601D01*
X101877000Y-49750000D01*
X101877000Y-45250000D01*
X101867333Y-45201399D01*
X101839803Y-45160197D01*
X101798601Y-45132667D01*
X101750000Y-45123000D01*
X99250000Y-45123000D01*
X99201399Y-45132667D01*
X99160197Y-45160197D01*
X99132667Y-45201399D01*
X99123000Y-45250000D01*
X91127000Y-45250000D01*
X91117333Y-45201399D01*
X91089803Y-45160197D01*
X91048601Y-45132667D01*
X91000000Y-45123000D01*
X88127000Y-45123000D01*
X88127000Y-41877000D01*
X91000000Y-41877000D01*
X91048601Y-41867333D01*
X91089803Y-41839803D01*
X91117333Y-41798601D01*
X91127000Y-41750000D01*
X91127000Y-37377000D01*
X99123000Y-37377000D01*
X99123000Y-41750000D01*
X99123000Y-41750000D01*
G37*
X99123000Y-41750000D02*
X99132667Y-41798601D01*
X99160197Y-41839803D01*
X99201399Y-41867333D01*
X99250000Y-41877000D01*
X101750000Y-41877000D01*
X101798601Y-41867333D01*
X101839803Y-41839803D01*
X101867333Y-41798601D01*
X101877000Y-41750000D01*
X101877000Y-37377000D01*
X109873000Y-37377000D01*
X109873000Y-41750000D01*
X109882667Y-41798601D01*
X109910197Y-41839803D01*
X109951399Y-41867333D01*
X110000000Y-41877000D01*
X112873000Y-41877000D01*
X112873000Y-45123000D01*
X110000000Y-45123000D01*
X109951399Y-45132667D01*
X109910197Y-45160197D01*
X109882667Y-45201399D01*
X109873000Y-45250000D01*
X109873000Y-49750000D01*
X109882667Y-49798601D01*
X109910197Y-49839803D01*
X109951399Y-49867333D01*
X110000000Y-49877000D01*
X112873000Y-49877000D01*
X112873000Y-53123000D01*
X107500000Y-53123000D01*
X107451399Y-53132667D01*
X107410197Y-53160197D01*
X107382667Y-53201399D01*
X107373000Y-53250000D01*
X107373000Y-57873000D01*
X101877000Y-57873000D01*
X101877000Y-53250000D01*
X101867333Y-53201399D01*
X101839803Y-53160197D01*
X101798601Y-53132667D01*
X101750000Y-53123000D01*
X96750000Y-53123000D01*
X96701399Y-53132667D01*
X96660197Y-53160197D01*
X96632667Y-53201399D01*
X96623000Y-53250000D01*
X96623000Y-57873000D01*
X93627000Y-57873000D01*
X93627000Y-53250000D01*
X93617333Y-53201399D01*
X93589803Y-53160197D01*
X93548601Y-53132667D01*
X93500000Y-53123000D01*
X88127000Y-53123000D01*
X88127000Y-49877000D01*
X91000000Y-49877000D01*
X91048601Y-49867333D01*
X91089803Y-49839803D01*
X91117333Y-49798601D01*
X91127000Y-49750000D01*
X91127000Y-45250000D01*
X99123000Y-45250000D01*
X99123000Y-49750000D01*
X99132667Y-49798601D01*
X99160197Y-49839803D01*
X99201399Y-49867333D01*
X99250000Y-49877000D01*
X101750000Y-49877000D01*
X101798601Y-49867333D01*
X101839803Y-49839803D01*
X101867333Y-49798601D01*
X101877000Y-49750000D01*
X101877000Y-45250000D01*
X101867333Y-45201399D01*
X101839803Y-45160197D01*
X101798601Y-45132667D01*
X101750000Y-45123000D01*
X99250000Y-45123000D01*
X99201399Y-45132667D01*
X99160197Y-45160197D01*
X99132667Y-45201399D01*
X99123000Y-45250000D01*
X91127000Y-45250000D01*
X91117333Y-45201399D01*
X91089803Y-45160197D01*
X91048601Y-45132667D01*
X91000000Y-45123000D01*
X88127000Y-45123000D01*
X88127000Y-41877000D01*
X91000000Y-41877000D01*
X91048601Y-41867333D01*
X91089803Y-41839803D01*
X91117333Y-41798601D01*
X91127000Y-41750000D01*
X91127000Y-37377000D01*
X99123000Y-37377000D01*
X99123000Y-41750000D01*
G36*
X74123000Y-41750000D02*
X74132667Y-41798601D01*
X74160197Y-41839803D01*
X74201399Y-41867333D01*
X74250000Y-41877000D01*
X76750000Y-41877000D01*
X76798601Y-41867333D01*
X76839803Y-41839803D01*
X76867333Y-41798601D01*
X76877000Y-41750000D01*
X76877000Y-37377000D01*
X84873000Y-37377000D01*
X84873000Y-41750000D01*
X84882667Y-41798601D01*
X84910197Y-41839803D01*
X84951399Y-41867333D01*
X85000000Y-41877000D01*
X87873000Y-41877000D01*
X87873000Y-45123000D01*
X85000000Y-45123000D01*
X84951399Y-45132667D01*
X84910197Y-45160197D01*
X84882667Y-45201399D01*
X84873000Y-45250000D01*
X84873000Y-49750000D01*
X84882667Y-49798601D01*
X84910197Y-49839803D01*
X84951399Y-49867333D01*
X85000000Y-49877000D01*
X87873000Y-49877000D01*
X87873000Y-53123000D01*
X82500000Y-53123000D01*
X82451399Y-53132667D01*
X82410197Y-53160197D01*
X82382667Y-53201399D01*
X82373000Y-53250000D01*
X82373000Y-57873000D01*
X76877000Y-57873000D01*
X76877000Y-53250000D01*
X76867333Y-53201399D01*
X76839803Y-53160197D01*
X76798601Y-53132667D01*
X76750000Y-53123000D01*
X71750000Y-53123000D01*
X71701399Y-53132667D01*
X71660197Y-53160197D01*
X71632667Y-53201399D01*
X71623000Y-53250000D01*
X71623000Y-57873000D01*
X68627000Y-57873000D01*
X68627000Y-53250000D01*
X68617333Y-53201399D01*
X68589803Y-53160197D01*
X68548601Y-53132667D01*
X68500000Y-53123000D01*
X63127000Y-53123000D01*
X63127000Y-49877000D01*
X66000000Y-49877000D01*
X66048601Y-49867333D01*
X66089803Y-49839803D01*
X66117333Y-49798601D01*
X66127000Y-49750000D01*
X66127000Y-45250000D01*
X74123000Y-45250000D01*
X74123000Y-49750000D01*
X74132667Y-49798601D01*
X74160197Y-49839803D01*
X74201399Y-49867333D01*
X74250000Y-49877000D01*
X76750000Y-49877000D01*
X76798601Y-49867333D01*
X76839803Y-49839803D01*
X76867333Y-49798601D01*
X76877000Y-49750000D01*
X76877000Y-45250000D01*
X76867333Y-45201399D01*
X76839803Y-45160197D01*
X76798601Y-45132667D01*
X76750000Y-45123000D01*
X74250000Y-45123000D01*
X74201399Y-45132667D01*
X74160197Y-45160197D01*
X74132667Y-45201399D01*
X74123000Y-45250000D01*
X66127000Y-45250000D01*
X66117333Y-45201399D01*
X66089803Y-45160197D01*
X66048601Y-45132667D01*
X66000000Y-45123000D01*
X63127000Y-45123000D01*
X63127000Y-41877000D01*
X66000000Y-41877000D01*
X66048601Y-41867333D01*
X66089803Y-41839803D01*
X66117333Y-41798601D01*
X66127000Y-41750000D01*
X66127000Y-37377000D01*
X74123000Y-37377000D01*
X74123000Y-41750000D01*
X74123000Y-41750000D01*
G37*
X74123000Y-41750000D02*
X74132667Y-41798601D01*
X74160197Y-41839803D01*
X74201399Y-41867333D01*
X74250000Y-41877000D01*
X76750000Y-41877000D01*
X76798601Y-41867333D01*
X76839803Y-41839803D01*
X76867333Y-41798601D01*
X76877000Y-41750000D01*
X76877000Y-37377000D01*
X84873000Y-37377000D01*
X84873000Y-41750000D01*
X84882667Y-41798601D01*
X84910197Y-41839803D01*
X84951399Y-41867333D01*
X85000000Y-41877000D01*
X87873000Y-41877000D01*
X87873000Y-45123000D01*
X85000000Y-45123000D01*
X84951399Y-45132667D01*
X84910197Y-45160197D01*
X84882667Y-45201399D01*
X84873000Y-45250000D01*
X84873000Y-49750000D01*
X84882667Y-49798601D01*
X84910197Y-49839803D01*
X84951399Y-49867333D01*
X85000000Y-49877000D01*
X87873000Y-49877000D01*
X87873000Y-53123000D01*
X82500000Y-53123000D01*
X82451399Y-53132667D01*
X82410197Y-53160197D01*
X82382667Y-53201399D01*
X82373000Y-53250000D01*
X82373000Y-57873000D01*
X76877000Y-57873000D01*
X76877000Y-53250000D01*
X76867333Y-53201399D01*
X76839803Y-53160197D01*
X76798601Y-53132667D01*
X76750000Y-53123000D01*
X71750000Y-53123000D01*
X71701399Y-53132667D01*
X71660197Y-53160197D01*
X71632667Y-53201399D01*
X71623000Y-53250000D01*
X71623000Y-57873000D01*
X68627000Y-57873000D01*
X68627000Y-53250000D01*
X68617333Y-53201399D01*
X68589803Y-53160197D01*
X68548601Y-53132667D01*
X68500000Y-53123000D01*
X63127000Y-53123000D01*
X63127000Y-49877000D01*
X66000000Y-49877000D01*
X66048601Y-49867333D01*
X66089803Y-49839803D01*
X66117333Y-49798601D01*
X66127000Y-49750000D01*
X66127000Y-45250000D01*
X74123000Y-45250000D01*
X74123000Y-49750000D01*
X74132667Y-49798601D01*
X74160197Y-49839803D01*
X74201399Y-49867333D01*
X74250000Y-49877000D01*
X76750000Y-49877000D01*
X76798601Y-49867333D01*
X76839803Y-49839803D01*
X76867333Y-49798601D01*
X76877000Y-49750000D01*
X76877000Y-45250000D01*
X76867333Y-45201399D01*
X76839803Y-45160197D01*
X76798601Y-45132667D01*
X76750000Y-45123000D01*
X74250000Y-45123000D01*
X74201399Y-45132667D01*
X74160197Y-45160197D01*
X74132667Y-45201399D01*
X74123000Y-45250000D01*
X66127000Y-45250000D01*
X66117333Y-45201399D01*
X66089803Y-45160197D01*
X66048601Y-45132667D01*
X66000000Y-45123000D01*
X63127000Y-45123000D01*
X63127000Y-41877000D01*
X66000000Y-41877000D01*
X66048601Y-41867333D01*
X66089803Y-41839803D01*
X66117333Y-41798601D01*
X66127000Y-41750000D01*
X66127000Y-37377000D01*
X74123000Y-37377000D01*
X74123000Y-41750000D01*
G36*
X124123000Y-41750000D02*
X124132667Y-41798601D01*
X124160197Y-41839803D01*
X124201399Y-41867333D01*
X124250000Y-41877000D01*
X126750000Y-41877000D01*
X126798601Y-41867333D01*
X126839803Y-41839803D01*
X126867333Y-41798601D01*
X126877000Y-41750000D01*
X126877000Y-37377000D01*
X134873000Y-37377000D01*
X134873000Y-41750000D01*
X134882667Y-41798601D01*
X134910197Y-41839803D01*
X134951399Y-41867333D01*
X135000000Y-41877000D01*
X137373000Y-41877000D01*
X137373000Y-45123000D01*
X135000000Y-45123000D01*
X134951399Y-45132667D01*
X134910197Y-45160197D01*
X134882667Y-45201399D01*
X134873000Y-45250000D01*
X134873000Y-49750000D01*
X134882667Y-49798601D01*
X134910197Y-49839803D01*
X134951399Y-49867333D01*
X135000000Y-49877000D01*
X137373000Y-49877000D01*
X137373000Y-53123000D01*
X132500000Y-53123000D01*
X132451399Y-53132667D01*
X132410197Y-53160197D01*
X132382667Y-53201399D01*
X132373000Y-53250000D01*
X132373000Y-57873000D01*
X126877000Y-57873000D01*
X126877000Y-53250000D01*
X126867333Y-53201399D01*
X126839803Y-53160197D01*
X126798601Y-53132667D01*
X126750000Y-53123000D01*
X121750000Y-53123000D01*
X121701399Y-53132667D01*
X121660197Y-53160197D01*
X121632667Y-53201399D01*
X121623000Y-53250000D01*
X121623000Y-57873000D01*
X118627000Y-57873000D01*
X118627000Y-53250000D01*
X118617333Y-53201399D01*
X118589803Y-53160197D01*
X118548601Y-53132667D01*
X118500000Y-53123000D01*
X113127000Y-53123000D01*
X113127000Y-49877000D01*
X116000000Y-49877000D01*
X116048601Y-49867333D01*
X116089803Y-49839803D01*
X116117333Y-49798601D01*
X116127000Y-49750000D01*
X116127000Y-45250000D01*
X124123000Y-45250000D01*
X124123000Y-49750000D01*
X124132667Y-49798601D01*
X124160197Y-49839803D01*
X124201399Y-49867333D01*
X124250000Y-49877000D01*
X126750000Y-49877000D01*
X126798601Y-49867333D01*
X126839803Y-49839803D01*
X126867333Y-49798601D01*
X126877000Y-49750000D01*
X126877000Y-45250000D01*
X126867333Y-45201399D01*
X126839803Y-45160197D01*
X126798601Y-45132667D01*
X126750000Y-45123000D01*
X124250000Y-45123000D01*
X124201399Y-45132667D01*
X124160197Y-45160197D01*
X124132667Y-45201399D01*
X124123000Y-45250000D01*
X116127000Y-45250000D01*
X116117333Y-45201399D01*
X116089803Y-45160197D01*
X116048601Y-45132667D01*
X116000000Y-45123000D01*
X113127000Y-45123000D01*
X113127000Y-41877000D01*
X116000000Y-41877000D01*
X116048601Y-41867333D01*
X116089803Y-41839803D01*
X116117333Y-41798601D01*
X116127000Y-41750000D01*
X116127000Y-37377000D01*
X124123000Y-37377000D01*
X124123000Y-41750000D01*
X124123000Y-41750000D01*
G37*
X124123000Y-41750000D02*
X124132667Y-41798601D01*
X124160197Y-41839803D01*
X124201399Y-41867333D01*
X124250000Y-41877000D01*
X126750000Y-41877000D01*
X126798601Y-41867333D01*
X126839803Y-41839803D01*
X126867333Y-41798601D01*
X126877000Y-41750000D01*
X126877000Y-37377000D01*
X134873000Y-37377000D01*
X134873000Y-41750000D01*
X134882667Y-41798601D01*
X134910197Y-41839803D01*
X134951399Y-41867333D01*
X135000000Y-41877000D01*
X137373000Y-41877000D01*
X137373000Y-45123000D01*
X135000000Y-45123000D01*
X134951399Y-45132667D01*
X134910197Y-45160197D01*
X134882667Y-45201399D01*
X134873000Y-45250000D01*
X134873000Y-49750000D01*
X134882667Y-49798601D01*
X134910197Y-49839803D01*
X134951399Y-49867333D01*
X135000000Y-49877000D01*
X137373000Y-49877000D01*
X137373000Y-53123000D01*
X132500000Y-53123000D01*
X132451399Y-53132667D01*
X132410197Y-53160197D01*
X132382667Y-53201399D01*
X132373000Y-53250000D01*
X132373000Y-57873000D01*
X126877000Y-57873000D01*
X126877000Y-53250000D01*
X126867333Y-53201399D01*
X126839803Y-53160197D01*
X126798601Y-53132667D01*
X126750000Y-53123000D01*
X121750000Y-53123000D01*
X121701399Y-53132667D01*
X121660197Y-53160197D01*
X121632667Y-53201399D01*
X121623000Y-53250000D01*
X121623000Y-57873000D01*
X118627000Y-57873000D01*
X118627000Y-53250000D01*
X118617333Y-53201399D01*
X118589803Y-53160197D01*
X118548601Y-53132667D01*
X118500000Y-53123000D01*
X113127000Y-53123000D01*
X113127000Y-49877000D01*
X116000000Y-49877000D01*
X116048601Y-49867333D01*
X116089803Y-49839803D01*
X116117333Y-49798601D01*
X116127000Y-49750000D01*
X116127000Y-45250000D01*
X124123000Y-45250000D01*
X124123000Y-49750000D01*
X124132667Y-49798601D01*
X124160197Y-49839803D01*
X124201399Y-49867333D01*
X124250000Y-49877000D01*
X126750000Y-49877000D01*
X126798601Y-49867333D01*
X126839803Y-49839803D01*
X126867333Y-49798601D01*
X126877000Y-49750000D01*
X126877000Y-45250000D01*
X126867333Y-45201399D01*
X126839803Y-45160197D01*
X126798601Y-45132667D01*
X126750000Y-45123000D01*
X124250000Y-45123000D01*
X124201399Y-45132667D01*
X124160197Y-45160197D01*
X124132667Y-45201399D01*
X124123000Y-45250000D01*
X116127000Y-45250000D01*
X116117333Y-45201399D01*
X116089803Y-45160197D01*
X116048601Y-45132667D01*
X116000000Y-45123000D01*
X113127000Y-45123000D01*
X113127000Y-41877000D01*
X116000000Y-41877000D01*
X116048601Y-41867333D01*
X116089803Y-41839803D01*
X116117333Y-41798601D01*
X116127000Y-41750000D01*
X116127000Y-37377000D01*
X124123000Y-37377000D01*
X124123000Y-41750000D01*
M02*
