G04 #@! TF.GenerationSoftware,KiCad,Pcbnew,6.0.0-rc1-unknown-7dfc4e3~65~ubuntu18.04.1*
G04 #@! TF.CreationDate,2018-08-22T16:39:41+05:30*
G04 #@! TF.ProjectId,1sqinch555,317371696E63683535352E6B69636164,rev?*
G04 #@! TF.SameCoordinates,Original*
G04 #@! TF.FileFunction,Soldermask,Bot*
G04 #@! TF.FilePolarity,Negative*
%FSLAX46Y46*%
G04 Gerber Fmt 4.6, Leading zero omitted, Abs format (unit mm)*
G04 Created by KiCad (PCBNEW 6.0.0-rc1-unknown-7dfc4e3~65~ubuntu18.04.1) date Wed Aug 22 16:39:41 2018*
%MOMM*%
%LPD*%
G01*
G04 APERTURE LIST*
%ADD10C,1.400000*%
%ADD11R,2.400000X3.400000*%
%ADD12C,4.200000*%
%ADD13R,2.400000X2.400000*%
%ADD14C,2.400000*%
%ADD15C,0.254000*%
G04 APERTURE END LIST*
D10*
G04 #@! TO.C,REF\002A\002A*
X63000000Y-51000000D03*
G04 #@! TD*
D11*
G04 #@! TO.C,J6*
X39000000Y-61000000D03*
G04 #@! TD*
G04 #@! TO.C,J8*
X50000000Y-50000000D03*
G04 #@! TD*
G04 #@! TO.C,J10*
X50000000Y-38999999D03*
G04 #@! TD*
G04 #@! TO.C,J12*
X61000000Y-61000000D03*
G04 #@! TD*
G04 #@! TO.C,J14*
X61000001Y-50000000D03*
G04 #@! TD*
G04 #@! TO.C,J16*
X61000000Y-39000000D03*
G04 #@! TD*
G04 #@! TO.C,J18*
X39000000Y-39000000D03*
G04 #@! TD*
G04 #@! TO.C,J20*
X38999999Y-50000000D03*
G04 #@! TD*
G04 #@! TO.C,J22*
X50000000Y-61000001D03*
G04 #@! TD*
G04 #@! TO.C,J24*
X44500000Y-50000000D03*
G04 #@! TD*
G04 #@! TO.C,J26*
X44500000Y-39000000D03*
G04 #@! TD*
G04 #@! TO.C,J28*
X44500000Y-61000000D03*
G04 #@! TD*
D12*
G04 #@! TO.C,BT1*
X50000000Y-43650000D03*
X50000000Y-56350000D03*
G04 #@! TD*
D13*
G04 #@! TO.C,J7*
X64500000Y-59500000D03*
G04 #@! TD*
G04 #@! TO.C,J9*
X75500000Y-59499999D03*
G04 #@! TD*
G04 #@! TO.C,J11*
X86500000Y-59500000D03*
G04 #@! TD*
G04 #@! TO.C,J13*
X89500000Y-59500000D03*
G04 #@! TD*
G04 #@! TO.C,J15*
X100500000Y-59499999D03*
G04 #@! TD*
G04 #@! TO.C,J17*
X111500000Y-59500000D03*
G04 #@! TD*
G04 #@! TO.C,J19*
X114500000Y-59500000D03*
G04 #@! TD*
G04 #@! TO.C,J21*
X125500000Y-59499999D03*
G04 #@! TD*
G04 #@! TO.C,J23*
X136500000Y-59500000D03*
G04 #@! TD*
G04 #@! TO.C,J25*
X81000000Y-59500000D03*
G04 #@! TD*
G04 #@! TO.C,J27*
X106000000Y-59500000D03*
G04 #@! TD*
G04 #@! TO.C,J29*
X131000000Y-59500000D03*
G04 #@! TD*
D14*
G04 #@! TO.C,J30*
X70000000Y-41000000D03*
G04 #@! TD*
G04 #@! TO.C,J31*
X81000000Y-41000000D03*
G04 #@! TD*
G04 #@! TO.C,J32*
X95000000Y-41000000D03*
G04 #@! TD*
G04 #@! TO.C,J33*
X106000000Y-41000000D03*
G04 #@! TD*
G04 #@! TO.C,J34*
X131000000Y-41000000D03*
G04 #@! TD*
G04 #@! TO.C,J35*
X120000000Y-41000000D03*
G04 #@! TD*
D10*
G04 #@! TO.C,REF\002A\002A*
X63000000Y-39000000D03*
G04 #@! TD*
G04 #@! TO.C,REF\002A\002A*
X63000000Y-41000000D03*
G04 #@! TD*
G04 #@! TO.C,REF\002A\002A*
X63000000Y-43000000D03*
G04 #@! TD*
G04 #@! TO.C,REF\002A\002A*
X63000000Y-45000000D03*
G04 #@! TD*
G04 #@! TO.C,REF\002A\002A*
X63000000Y-47000000D03*
G04 #@! TD*
G04 #@! TO.C,REF\002A\002A*
X63000000Y-49000000D03*
G04 #@! TD*
G04 #@! TO.C,REF\002A\002A*
X63000000Y-53000000D03*
G04 #@! TD*
G04 #@! TO.C,REF\002A\002A*
X63000000Y-55000000D03*
G04 #@! TD*
G04 #@! TO.C,REF\002A\002A*
X63000000Y-57000000D03*
G04 #@! TD*
G04 #@! TO.C,REF\002A\002A*
X88000000Y-39000000D03*
G04 #@! TD*
G04 #@! TO.C,REF\002A\002A*
X88000000Y-41000000D03*
G04 #@! TD*
G04 #@! TO.C,REF\002A\002A*
X88000000Y-43000000D03*
G04 #@! TD*
G04 #@! TO.C,REF\002A\002A*
X88000000Y-45000000D03*
G04 #@! TD*
G04 #@! TO.C,REF\002A\002A*
X88000000Y-47000000D03*
G04 #@! TD*
G04 #@! TO.C,REF\002A\002A*
X88000000Y-49000000D03*
G04 #@! TD*
G04 #@! TO.C,REF\002A\002A*
X88000000Y-51000000D03*
G04 #@! TD*
G04 #@! TO.C,REF\002A\002A*
X88000000Y-53000000D03*
G04 #@! TD*
G04 #@! TO.C,REF\002A\002A*
X88000000Y-55000000D03*
G04 #@! TD*
G04 #@! TO.C,REF\002A\002A*
X88000000Y-57000000D03*
G04 #@! TD*
G04 #@! TO.C,REF\002A\002A*
X113000000Y-39000000D03*
G04 #@! TD*
G04 #@! TO.C,REF\002A\002A*
X113000000Y-41000000D03*
G04 #@! TD*
G04 #@! TO.C,REF\002A\002A*
X113000000Y-43000000D03*
G04 #@! TD*
G04 #@! TO.C,REF\002A\002A*
X113000000Y-45000000D03*
G04 #@! TD*
G04 #@! TO.C,REF\002A\002A*
X113000000Y-47000000D03*
G04 #@! TD*
G04 #@! TO.C,REF\002A\002A*
X113000000Y-49000000D03*
G04 #@! TD*
G04 #@! TO.C,REF\002A\002A*
X113000000Y-51000000D03*
G04 #@! TD*
G04 #@! TO.C,REF\002A\002A*
X113000000Y-53000000D03*
G04 #@! TD*
G04 #@! TO.C,REF\002A\002A*
X113000000Y-55000000D03*
G04 #@! TD*
G04 #@! TO.C,REF\002A\002A*
X113000000Y-57000000D03*
G04 #@! TD*
D15*
G36*
X137873000Y-62373000D02*
X63127000Y-62373000D01*
X63127000Y-37127000D01*
X137873000Y-37127000D01*
X137873000Y-62373000D01*
X137873000Y-62373000D01*
G37*
X137873000Y-62373000D02*
X63127000Y-62373000D01*
X63127000Y-37127000D01*
X137873000Y-37127000D01*
X137873000Y-62373000D01*
M02*
