G04 #@! TF.GenerationSoftware,KiCad,Pcbnew,5.0.0-fee4fd1~66~ubuntu16.04.1*
G04 #@! TF.CreationDate,2018-08-13T22:09:16+05:30*
G04 #@! TF.ProjectId,1sqinch555,317371696E63683535352E6B69636164,rev?*
G04 #@! TF.SameCoordinates,Original*
G04 #@! TF.FileFunction,Copper,L1,Top,Signal*
G04 #@! TF.FilePolarity,Positive*
%FSLAX46Y46*%
G04 Gerber Fmt 4.6, Leading zero omitted, Abs format (unit mm)*
G04 Created by KiCad (PCBNEW 5.0.0-fee4fd1~66~ubuntu16.04.1) date Mon Aug 13 22:09:16 2018*
%MOMM*%
%LPD*%
G01*
G04 APERTURE LIST*
G04 #@! TA.AperFunction,SMDPad,CuDef*
%ADD10R,2.000000X3.000000*%
G04 #@! TD*
G04 #@! TA.AperFunction,ComponentPad*
%ADD11C,3.800000*%
G04 #@! TD*
G04 #@! TA.AperFunction,SMDPad,CuDef*
%ADD12R,0.800000X0.600000*%
G04 #@! TD*
G04 #@! TA.AperFunction,SMDPad,CuDef*
%ADD13R,0.750000X0.800000*%
G04 #@! TD*
G04 #@! TA.AperFunction,SMDPad,CuDef*
%ADD14R,2.000000X2.000000*%
G04 #@! TD*
G04 #@! TA.AperFunction,SMDPad,CuDef*
%ADD15R,0.900000X0.500000*%
G04 #@! TD*
G04 #@! TA.AperFunction,SMDPad,CuDef*
%ADD16R,1.550000X0.600000*%
G04 #@! TD*
G04 #@! TA.AperFunction,SMDPad,CuDef*
%ADD17R,1.500000X0.600000*%
G04 #@! TD*
G04 #@! TA.AperFunction,ComponentPad*
%ADD18C,2.000000*%
G04 #@! TD*
G04 #@! TA.AperFunction,BGAPad,CuDef*
%ADD19C,1.000000*%
G04 #@! TD*
G04 #@! TA.AperFunction,SMDPad,CuDef*
%ADD20R,0.500000X0.900000*%
G04 #@! TD*
G04 #@! TA.AperFunction,ViaPad*
%ADD21C,0.800000*%
G04 #@! TD*
G04 #@! TA.AperFunction,Conductor*
%ADD22C,0.250000*%
G04 #@! TD*
G04 APERTURE END LIST*
D10*
G04 #@! TO.P,J6,1*
G04 #@! TO.N,/Q5*
X39000000Y-61000000D03*
G04 #@! TD*
G04 #@! TO.P,J8,1*
G04 #@! TO.N,/Q6*
X50000000Y-50000000D03*
G04 #@! TD*
G04 #@! TO.P,J10,1*
G04 #@! TO.N,/Q7*
X50000000Y-38999999D03*
G04 #@! TD*
G04 #@! TO.P,J12,1*
G04 #@! TO.N,/Q8*
X61000000Y-61000000D03*
G04 #@! TD*
G04 #@! TO.P,J14,1*
G04 #@! TO.N,/Q9*
X61000001Y-50000000D03*
G04 #@! TD*
G04 #@! TO.P,J16,1*
G04 #@! TO.N,/Q10*
X61000000Y-39000000D03*
G04 #@! TD*
G04 #@! TO.P,J18,1*
G04 #@! TO.N,/Q11*
X39000000Y-39000000D03*
G04 #@! TD*
G04 #@! TO.P,J20,1*
G04 #@! TO.N,/Q12*
X38999999Y-50000000D03*
G04 #@! TD*
G04 #@! TO.P,J22,1*
G04 #@! TO.N,/Q13*
X50000000Y-61000001D03*
G04 #@! TD*
G04 #@! TO.P,J24,1*
G04 #@! TO.N,/GND*
X44500000Y-50000000D03*
G04 #@! TD*
G04 #@! TO.P,J26,1*
G04 #@! TO.N,/GND*
X44500000Y-39000000D03*
G04 #@! TD*
G04 #@! TO.P,J28,1*
G04 #@! TO.N,/GND*
X44500000Y-61000000D03*
G04 #@! TD*
D11*
G04 #@! TO.P,BT1,2*
G04 #@! TO.N,/GND*
X50000000Y-43650000D03*
G04 #@! TO.P,BT1,1*
G04 #@! TO.N,/9V*
X50000000Y-56350000D03*
G04 #@! TD*
D12*
G04 #@! TO.P,D1,2*
G04 #@! TO.N,/10*
X66000000Y-56350000D03*
G04 #@! TO.P,D1,1*
G04 #@! TO.N,Net-(D1-Pad1)*
X66000000Y-54650000D03*
G04 #@! TD*
G04 #@! TO.P,D2,2*
G04 #@! TO.N,Net-(D1-Pad1)*
X65999999Y-48350000D03*
G04 #@! TO.P,D2,1*
G04 #@! TO.N,Net-(D2-Pad1)*
X65999999Y-46650000D03*
G04 #@! TD*
G04 #@! TO.P,D3,2*
G04 #@! TO.N,Net-(D2-Pad1)*
X66000000Y-40350000D03*
G04 #@! TO.P,D3,1*
G04 #@! TO.N,Net-(D3-Pad1)*
X66000000Y-38650000D03*
G04 #@! TD*
G04 #@! TO.P,D4,2*
G04 #@! TO.N,/7*
X77000000Y-56350000D03*
G04 #@! TO.P,D4,1*
G04 #@! TO.N,Net-(D4-Pad1)*
X77000000Y-54650000D03*
G04 #@! TD*
G04 #@! TO.P,D5,2*
G04 #@! TO.N,Net-(D4-Pad1)*
X77000000Y-48350000D03*
G04 #@! TO.P,D5,1*
G04 #@! TO.N,Net-(D5-Pad1)*
X77000000Y-46650000D03*
G04 #@! TD*
G04 #@! TO.P,D6,2*
G04 #@! TO.N,Net-(D5-Pad1)*
X77000000Y-40350000D03*
G04 #@! TO.P,D6,1*
G04 #@! TO.N,Net-(D6-Pad1)*
X77000000Y-38650000D03*
G04 #@! TD*
G04 #@! TO.P,D7,2*
G04 #@! TO.N,/11*
X88000000Y-56350000D03*
G04 #@! TO.P,D7,1*
G04 #@! TO.N,Net-(D7-Pad1)*
X88000000Y-54650000D03*
G04 #@! TD*
G04 #@! TO.P,D8,2*
G04 #@! TO.N,Net-(D7-Pad1)*
X88000001Y-48350000D03*
G04 #@! TO.P,D8,1*
G04 #@! TO.N,Net-(D8-Pad1)*
X88000001Y-46650000D03*
G04 #@! TD*
G04 #@! TO.P,D9,2*
G04 #@! TO.N,Net-(D8-Pad1)*
X88000000Y-40350000D03*
G04 #@! TO.P,D9,1*
G04 #@! TO.N,Net-(D9-Pad1)*
X88000000Y-38650000D03*
G04 #@! TD*
G04 #@! TO.P,D10,2*
G04 #@! TO.N,/9*
X92500000Y-56350000D03*
G04 #@! TO.P,D10,1*
G04 #@! TO.N,Net-(D10-Pad1)*
X92500000Y-54650000D03*
G04 #@! TD*
G04 #@! TO.P,D11,2*
G04 #@! TO.N,Net-(D10-Pad1)*
X92499999Y-48350000D03*
G04 #@! TO.P,D11,1*
G04 #@! TO.N,Net-(D11-Pad1)*
X92499999Y-46650000D03*
G04 #@! TD*
G04 #@! TO.P,D12,2*
G04 #@! TO.N,Net-(D11-Pad1)*
X92500000Y-40350000D03*
G04 #@! TO.P,D12,1*
G04 #@! TO.N,Net-(D12-Pad1)*
X92500000Y-38650000D03*
G04 #@! TD*
G04 #@! TO.P,D13,2*
G04 #@! TO.N,/6*
X103500000Y-56350000D03*
G04 #@! TO.P,D13,1*
G04 #@! TO.N,Net-(D13-Pad1)*
X103500000Y-54650000D03*
G04 #@! TD*
G04 #@! TO.P,D14,2*
G04 #@! TO.N,Net-(D13-Pad1)*
X103500000Y-48350000D03*
G04 #@! TO.P,D14,1*
G04 #@! TO.N,Net-(D14-Pad1)*
X103500000Y-46650000D03*
G04 #@! TD*
G04 #@! TO.P,D15,2*
G04 #@! TO.N,Net-(D14-Pad1)*
X103500000Y-40350000D03*
G04 #@! TO.P,D15,1*
G04 #@! TO.N,Net-(D15-Pad1)*
X103500000Y-38650000D03*
G04 #@! TD*
G04 #@! TO.P,D16,2*
G04 #@! TO.N,/12*
X114500000Y-56350000D03*
G04 #@! TO.P,D16,1*
G04 #@! TO.N,Net-(D16-Pad1)*
X114500000Y-54650000D03*
G04 #@! TD*
G04 #@! TO.P,D17,2*
G04 #@! TO.N,Net-(D16-Pad1)*
X114500001Y-48350000D03*
G04 #@! TO.P,D17,1*
G04 #@! TO.N,Net-(D17-Pad1)*
X114500001Y-46650000D03*
G04 #@! TD*
G04 #@! TO.P,D18,2*
G04 #@! TO.N,Net-(D17-Pad1)*
X114500000Y-40350000D03*
G04 #@! TO.P,D18,1*
G04 #@! TO.N,Net-(D18-Pad1)*
X114500000Y-38650000D03*
G04 #@! TD*
G04 #@! TO.P,D19,2*
G04 #@! TO.N,/8*
X119000000Y-56350000D03*
G04 #@! TO.P,D19,1*
G04 #@! TO.N,Net-(D19-Pad1)*
X119000000Y-54650000D03*
G04 #@! TD*
G04 #@! TO.P,D20,2*
G04 #@! TO.N,Net-(D19-Pad1)*
X118999999Y-48350000D03*
G04 #@! TO.P,D20,1*
G04 #@! TO.N,Net-(D20-Pad1)*
X118999999Y-46650000D03*
G04 #@! TD*
G04 #@! TO.P,D21,2*
G04 #@! TO.N,Net-(D20-Pad1)*
X119000000Y-40350000D03*
G04 #@! TO.P,D21,1*
G04 #@! TO.N,Net-(D21-Pad1)*
X119000000Y-38650000D03*
G04 #@! TD*
G04 #@! TO.P,D22,2*
G04 #@! TO.N,/13*
X130000000Y-56350000D03*
G04 #@! TO.P,D22,1*
G04 #@! TO.N,Net-(D22-Pad1)*
X130000000Y-54650000D03*
G04 #@! TD*
G04 #@! TO.P,D23,2*
G04 #@! TO.N,Net-(D22-Pad1)*
X130000000Y-48350000D03*
G04 #@! TO.P,D23,1*
G04 #@! TO.N,Net-(D23-Pad1)*
X130000000Y-46650000D03*
G04 #@! TD*
G04 #@! TO.P,D24,2*
G04 #@! TO.N,Net-(D23-Pad1)*
X130000000Y-40350000D03*
G04 #@! TO.P,D24,1*
G04 #@! TO.N,Net-(D24-Pad1)*
X130000000Y-38650000D03*
G04 #@! TD*
G04 #@! TO.P,D25,2*
G04 #@! TO.N,/5*
X141000000Y-56350000D03*
G04 #@! TO.P,D25,1*
G04 #@! TO.N,Net-(D25-Pad1)*
X141000000Y-54650000D03*
G04 #@! TD*
G04 #@! TO.P,D26,2*
G04 #@! TO.N,Net-(D25-Pad1)*
X141000001Y-48350000D03*
G04 #@! TO.P,D26,1*
G04 #@! TO.N,Net-(D26-Pad1)*
X141000001Y-46650000D03*
G04 #@! TD*
G04 #@! TO.P,D27,2*
G04 #@! TO.N,Net-(D26-Pad1)*
X141000000Y-40350000D03*
G04 #@! TO.P,D27,1*
G04 #@! TO.N,Net-(D27-Pad1)*
X141000000Y-38650000D03*
G04 #@! TD*
D13*
G04 #@! TO.P,C1,2*
G04 #@! TO.N,/GND*
X56000000Y-61250000D03*
G04 #@! TO.P,C1,1*
G04 #@! TO.N,/TR*
X56000000Y-59750000D03*
G04 #@! TD*
G04 #@! TO.P,C2,2*
G04 #@! TO.N,/GND*
X58000000Y-61250000D03*
G04 #@! TO.P,C2,1*
G04 #@! TO.N,/CV*
X58000000Y-59750000D03*
G04 #@! TD*
D14*
G04 #@! TO.P,J7,1*
G04 #@! TO.N,/10*
X66000000Y-59500000D03*
G04 #@! TD*
G04 #@! TO.P,J9,1*
G04 #@! TO.N,/7*
X77000000Y-59499999D03*
G04 #@! TD*
G04 #@! TO.P,J11,1*
G04 #@! TO.N,/11*
X88000000Y-59500000D03*
G04 #@! TD*
G04 #@! TO.P,J13,1*
G04 #@! TO.N,/9*
X92500000Y-59500000D03*
G04 #@! TD*
G04 #@! TO.P,J15,1*
G04 #@! TO.N,/6*
X103500000Y-59499999D03*
G04 #@! TD*
G04 #@! TO.P,J17,1*
G04 #@! TO.N,/12*
X114500000Y-59500000D03*
G04 #@! TD*
G04 #@! TO.P,J19,1*
G04 #@! TO.N,/8*
X119000000Y-59500000D03*
G04 #@! TD*
G04 #@! TO.P,J21,1*
G04 #@! TO.N,/13*
X130000000Y-59499999D03*
G04 #@! TD*
G04 #@! TO.P,J23,1*
G04 #@! TO.N,/5*
X141000000Y-59500000D03*
G04 #@! TD*
G04 #@! TO.P,J25,1*
G04 #@! TO.N,/GND1*
X82500000Y-59500000D03*
G04 #@! TD*
G04 #@! TO.P,J27,1*
G04 #@! TO.N,/GND2*
X109000000Y-59500000D03*
G04 #@! TD*
G04 #@! TO.P,J29,1*
G04 #@! TO.N,/GND3*
X135500000Y-59500000D03*
G04 #@! TD*
D15*
G04 #@! TO.P,R1,1*
G04 #@! TO.N,/OUT*
X53500000Y-59750000D03*
G04 #@! TO.P,R1,2*
G04 #@! TO.N,/TR*
X53500000Y-61250000D03*
G04 #@! TD*
D16*
G04 #@! TO.P,U1,1*
G04 #@! TO.N,/GND*
X53300000Y-54095000D03*
G04 #@! TO.P,U1,2*
G04 #@! TO.N,/TR*
X53300000Y-55365000D03*
G04 #@! TO.P,U1,3*
G04 #@! TO.N,/OUT*
X53300000Y-56635000D03*
G04 #@! TO.P,U1,4*
G04 #@! TO.N,/9V*
X53300000Y-57905000D03*
G04 #@! TO.P,U1,5*
G04 #@! TO.N,/CV*
X58700000Y-57905000D03*
G04 #@! TO.P,U1,6*
G04 #@! TO.N,/TR*
X58700000Y-56635000D03*
G04 #@! TO.P,U1,7*
G04 #@! TO.N,Net-(J1-Pad1)*
X58700000Y-55365000D03*
G04 #@! TO.P,U1,8*
G04 #@! TO.N,/9V*
X58700000Y-54095000D03*
G04 #@! TD*
D17*
G04 #@! TO.P,U2,1*
G04 #@! TO.N,/Q11*
X53300000Y-40555000D03*
G04 #@! TO.P,U2,2*
G04 #@! TO.N,/Q12*
X53300000Y-41825000D03*
G04 #@! TO.P,U2,3*
G04 #@! TO.N,/Q13*
X53300000Y-43095000D03*
G04 #@! TO.P,U2,4*
G04 #@! TO.N,/Q5*
X53300000Y-44365000D03*
G04 #@! TO.P,U2,5*
G04 #@! TO.N,/Q4*
X53300000Y-45635000D03*
G04 #@! TO.P,U2,6*
G04 #@! TO.N,/Q6*
X53300000Y-46905000D03*
G04 #@! TO.P,U2,7*
G04 #@! TO.N,/Q3*
X53300000Y-48175000D03*
G04 #@! TO.P,U2,8*
G04 #@! TO.N,/GND*
X53300000Y-49445000D03*
G04 #@! TO.P,U2,9*
G04 #@! TO.N,/Q0*
X58700000Y-49445000D03*
G04 #@! TO.P,U2,10*
G04 #@! TO.N,/OUT*
X58700000Y-48175000D03*
G04 #@! TO.P,U2,11*
G04 #@! TO.N,/RST*
X58700000Y-46905000D03*
G04 #@! TO.P,U2,12*
G04 #@! TO.N,/Q8*
X58700000Y-45635000D03*
G04 #@! TO.P,U2,13*
G04 #@! TO.N,/Q7*
X58700000Y-44365000D03*
G04 #@! TO.P,U2,14*
G04 #@! TO.N,/Q9*
X58700000Y-43095000D03*
G04 #@! TO.P,U2,15*
G04 #@! TO.N,/Q10*
X58700000Y-41825000D03*
G04 #@! TO.P,U2,16*
G04 #@! TO.N,/9V*
X58700000Y-40555000D03*
G04 #@! TD*
D18*
G04 #@! TO.P,J30,1*
G04 #@! TO.N,/GND1*
X71500000Y-39500000D03*
G04 #@! TD*
G04 #@! TO.P,J31,1*
G04 #@! TO.N,/GND1*
X82500000Y-39500000D03*
G04 #@! TD*
G04 #@! TO.P,J32,1*
G04 #@! TO.N,/GND2*
X98000000Y-39500000D03*
G04 #@! TD*
G04 #@! TO.P,J33,1*
G04 #@! TO.N,/GND2*
X109000000Y-39500000D03*
G04 #@! TD*
G04 #@! TO.P,J34,1*
G04 #@! TO.N,/GND3*
X135500000Y-39500000D03*
G04 #@! TD*
G04 #@! TO.P,J35,1*
G04 #@! TO.N,/GND3*
X124500000Y-39500000D03*
G04 #@! TD*
D19*
G04 #@! TO.P,J1,1*
G04 #@! TO.N,Net-(J1-Pad1)*
X60600000Y-55350000D03*
G04 #@! TD*
G04 #@! TO.P,J2,1*
G04 #@! TO.N,/Q0*
X58700000Y-50949999D03*
G04 #@! TD*
G04 #@! TO.P,J3,1*
G04 #@! TO.N,/Q3*
X51650000Y-48150000D03*
G04 #@! TD*
G04 #@! TO.P,J4,1*
G04 #@! TO.N,/RST*
X60450000Y-46900000D03*
G04 #@! TD*
G04 #@! TO.P,J5,1*
G04 #@! TO.N,/Q4*
X48900000Y-46550000D03*
G04 #@! TD*
D20*
G04 #@! TO.P,R2,1*
G04 #@! TO.N,/GND1*
X69450000Y-38500000D03*
G04 #@! TO.P,R2,2*
G04 #@! TO.N,Net-(D3-Pad1)*
X67950000Y-38500000D03*
G04 #@! TD*
G04 #@! TO.P,R3,2*
G04 #@! TO.N,Net-(D6-Pad1)*
X75050000Y-38500000D03*
G04 #@! TO.P,R3,1*
G04 #@! TO.N,/GND1*
X73550000Y-38500000D03*
G04 #@! TD*
G04 #@! TO.P,R4,2*
G04 #@! TO.N,Net-(D9-Pad1)*
X86050000Y-38500000D03*
G04 #@! TO.P,R4,1*
G04 #@! TO.N,/GND1*
X84550000Y-38500000D03*
G04 #@! TD*
G04 #@! TO.P,R5,1*
G04 #@! TO.N,/GND2*
X95950000Y-38500000D03*
G04 #@! TO.P,R5,2*
G04 #@! TO.N,Net-(D12-Pad1)*
X94450000Y-38500000D03*
G04 #@! TD*
G04 #@! TO.P,R6,1*
G04 #@! TO.N,/GND2*
X100050000Y-38500000D03*
G04 #@! TO.P,R6,2*
G04 #@! TO.N,Net-(D15-Pad1)*
X101550000Y-38500000D03*
G04 #@! TD*
G04 #@! TO.P,R7,2*
G04 #@! TO.N,Net-(D18-Pad1)*
X112550000Y-38500000D03*
G04 #@! TO.P,R7,1*
G04 #@! TO.N,/GND2*
X111050000Y-38500000D03*
G04 #@! TD*
G04 #@! TO.P,R8,1*
G04 #@! TO.N,/GND3*
X122450000Y-38500000D03*
G04 #@! TO.P,R8,2*
G04 #@! TO.N,Net-(D21-Pad1)*
X120950000Y-38500000D03*
G04 #@! TD*
G04 #@! TO.P,R9,2*
G04 #@! TO.N,Net-(D24-Pad1)*
X128050000Y-38500000D03*
G04 #@! TO.P,R9,1*
G04 #@! TO.N,/GND3*
X126550000Y-38500000D03*
G04 #@! TD*
G04 #@! TO.P,R10,2*
G04 #@! TO.N,Net-(D27-Pad1)*
X139050000Y-38500000D03*
G04 #@! TO.P,R10,1*
G04 #@! TO.N,/GND3*
X137550000Y-38500000D03*
G04 #@! TD*
D21*
G04 #@! TO.N,/9V*
X52000000Y-57905001D03*
X57000000Y-40550008D03*
X56999999Y-54099996D03*
G04 #@! TO.N,/GND*
X53300000Y-50500000D03*
X57000000Y-61250000D03*
X53299999Y-53025010D03*
X44500000Y-39000000D03*
X44500000Y-50000000D03*
X44500000Y-61000000D03*
G04 #@! TO.N,/5*
X141000000Y-57700000D03*
G04 #@! TO.N,/6*
X103500000Y-57700000D03*
G04 #@! TO.N,/7*
X77000000Y-57700000D03*
G04 #@! TO.N,/8*
X119000000Y-57700000D03*
G04 #@! TO.N,/9*
X92500000Y-57700000D03*
G04 #@! TO.N,/10*
X66000000Y-57700000D03*
G04 #@! TO.N,/11*
X88000000Y-57700000D03*
G04 #@! TO.N,/12*
X114500000Y-57700000D03*
G04 #@! TO.N,/13*
X130000000Y-57700000D03*
G04 #@! TO.N,/Q5*
X39000000Y-61000000D03*
G04 #@! TO.N,/Q6*
X50000000Y-50000000D03*
G04 #@! TO.N,/Q7*
X50000000Y-38999999D03*
G04 #@! TO.N,/Q8*
X61000000Y-61000000D03*
G04 #@! TO.N,/Q9*
X61000001Y-50000000D03*
G04 #@! TO.N,/Q10*
X61000000Y-39000000D03*
G04 #@! TO.N,/Q11*
X39000000Y-39000000D03*
G04 #@! TO.N,/Q12*
X38999999Y-50000000D03*
G04 #@! TO.N,/Q13*
X50000000Y-61000001D03*
G04 #@! TO.N,/OUT*
X55000000Y-56650000D03*
X57249998Y-48150000D03*
G04 #@! TD*
D22*
G04 #@! TO.N,Net-(D1-Pad1)*
X66000000Y-54650000D02*
X66000000Y-48350000D01*
G04 #@! TO.N,Net-(D2-Pad1)*
X66000000Y-46650000D02*
X66000000Y-40350000D01*
G04 #@! TO.N,Net-(D4-Pad1)*
X77000000Y-54649999D02*
X77000000Y-48350000D01*
G04 #@! TO.N,Net-(D5-Pad1)*
X77000000Y-46650000D02*
X77000000Y-40350001D01*
G04 #@! TO.N,Net-(D7-Pad1)*
X88000000Y-54650000D02*
X88000000Y-48350000D01*
G04 #@! TO.N,Net-(D8-Pad1)*
X88000000Y-46650000D02*
X88000000Y-40350000D01*
G04 #@! TO.N,Net-(D10-Pad1)*
X92500000Y-54650000D02*
X92500000Y-48350000D01*
G04 #@! TO.N,Net-(D11-Pad1)*
X92500000Y-46650000D02*
X92500000Y-40350000D01*
G04 #@! TO.N,Net-(D13-Pad1)*
X103500000Y-48350000D02*
X103500000Y-54649999D01*
G04 #@! TO.N,Net-(D14-Pad1)*
X103500000Y-46650000D02*
X103500000Y-40350001D01*
G04 #@! TO.N,Net-(D16-Pad1)*
X114500000Y-54650000D02*
X114500000Y-48350000D01*
G04 #@! TO.N,Net-(D17-Pad1)*
X114500000Y-46650000D02*
X114500000Y-40350000D01*
G04 #@! TO.N,Net-(D19-Pad1)*
X119000000Y-54650000D02*
X119000000Y-48350000D01*
G04 #@! TO.N,Net-(D20-Pad1)*
X119000000Y-46650000D02*
X119000000Y-40350000D01*
G04 #@! TO.N,Net-(D22-Pad1)*
X130000000Y-54649999D02*
X130000000Y-48350000D01*
G04 #@! TO.N,Net-(D23-Pad1)*
X130000000Y-46650000D02*
X130000000Y-40350001D01*
G04 #@! TO.N,Net-(D25-Pad1)*
X141000000Y-54650000D02*
X141000000Y-48350000D01*
G04 #@! TO.N,Net-(D26-Pad1)*
X141000000Y-46650000D02*
X141000000Y-40350000D01*
G04 #@! TO.N,Net-(J1-Pad1)*
X60585000Y-55365000D02*
X60600000Y-55350000D01*
X58700000Y-55365000D02*
X60585000Y-55365000D01*
G04 #@! TO.N,/9V*
X51555000Y-57905000D02*
X50000000Y-56350000D01*
X53299999Y-57905000D02*
X52000000Y-57905001D01*
X52000000Y-57905001D02*
X51555000Y-57905000D01*
X58700000Y-40554999D02*
X57004992Y-40555000D01*
X57004992Y-40555000D02*
X57000000Y-40550008D01*
X57004996Y-54095000D02*
X56999999Y-54099996D01*
X58700000Y-54095000D02*
X57004996Y-54095000D01*
G04 #@! TO.N,/GND*
X53300000Y-49445000D02*
X53300000Y-50500000D01*
X56000000Y-61250000D02*
X57000000Y-61250000D01*
X58000000Y-61250000D02*
X57000000Y-61250000D01*
X53300000Y-54095000D02*
X53299999Y-53025010D01*
G04 #@! TO.N,/TR*
X56000000Y-59775000D02*
X56000000Y-59750000D01*
X54525000Y-61250000D02*
X56000000Y-59775000D01*
X53500000Y-61250000D02*
X54525000Y-61250000D01*
X55365000Y-55365000D02*
X53299999Y-55365000D01*
X56000000Y-56000000D02*
X55365000Y-55365000D01*
X58700000Y-56634999D02*
X56135001Y-56635000D01*
X56135001Y-56635000D02*
X56000000Y-56500000D01*
X56000000Y-56500000D02*
X56000000Y-56000000D01*
X56000000Y-59750000D02*
X56000000Y-56500000D01*
G04 #@! TO.N,/CV*
X58700000Y-59675000D02*
X58625000Y-59750000D01*
X58625000Y-59750000D02*
X58000000Y-59750000D01*
X58700000Y-57905000D02*
X58700000Y-59675000D01*
G04 #@! TO.N,/5*
X141000000Y-59500000D02*
X141000001Y-56350000D01*
G04 #@! TO.N,/GND1*
X82500000Y-59500000D02*
X82500000Y-39500000D01*
X70500000Y-38500000D02*
X71500000Y-39500000D01*
X69450000Y-38500000D02*
X70500000Y-38500000D01*
X72500000Y-38500000D02*
X71500000Y-39500000D01*
X73550000Y-38500000D02*
X72500000Y-38500000D01*
X83500000Y-38500000D02*
X82500000Y-39500000D01*
X84550000Y-38500000D02*
X83500000Y-38500000D01*
G04 #@! TO.N,/6*
X103500000Y-59499999D02*
X103500000Y-56350000D01*
G04 #@! TO.N,/7*
X77000000Y-59499999D02*
X77000000Y-56350000D01*
G04 #@! TO.N,/8*
X119000000Y-59500000D02*
X118999999Y-56350000D01*
G04 #@! TO.N,/GND2*
X109000000Y-59500000D02*
X109000000Y-39500000D01*
X97000000Y-38500000D02*
X98000000Y-39500000D01*
X95950000Y-38500000D02*
X97000000Y-38500000D01*
X99000000Y-38500000D02*
X98000000Y-39500000D01*
X100050000Y-38500000D02*
X99000000Y-38500000D01*
X110000000Y-38500000D02*
X109000000Y-39500000D01*
X111050000Y-38500000D02*
X110000000Y-38500000D01*
G04 #@! TO.N,/9*
X92500000Y-59500000D02*
X92499999Y-56350000D01*
G04 #@! TO.N,/10*
X66000000Y-58249999D02*
X65999999Y-56350000D01*
X66000000Y-59500000D02*
X66000000Y-58249999D01*
G04 #@! TO.N,/11*
X88000000Y-59500000D02*
X88000001Y-56350000D01*
G04 #@! TO.N,/GND3*
X135500000Y-59500000D02*
X135500000Y-39500000D01*
X123500000Y-38500000D02*
X124500000Y-39500000D01*
X122450000Y-38500000D02*
X123500000Y-38500000D01*
X125500000Y-38500000D02*
X124500000Y-39500000D01*
X126550000Y-38500000D02*
X125500000Y-38500000D01*
X136500000Y-38500000D02*
X135500000Y-39500000D01*
X137550000Y-38500000D02*
X136500000Y-38500000D01*
G04 #@! TO.N,/12*
X114500000Y-59500000D02*
X114500001Y-56350000D01*
G04 #@! TO.N,/13*
X130000000Y-59499999D02*
X130000000Y-56350000D01*
G04 #@! TO.N,/Q0*
X58700000Y-49445000D02*
X58700000Y-50949999D01*
G04 #@! TO.N,/Q3*
X51675000Y-48175000D02*
X51650000Y-48150000D01*
X53300000Y-48175001D02*
X51675000Y-48175000D01*
G04 #@! TO.N,/RST*
X60445000Y-46905000D02*
X60450000Y-46900000D01*
X58700000Y-46905001D02*
X60445000Y-46905000D01*
G04 #@! TO.N,/Q4*
X52300000Y-45634999D02*
X51735000Y-46200000D01*
X53299999Y-45635000D02*
X52300000Y-45634999D01*
X51735000Y-46200000D02*
X50100000Y-46200000D01*
X49750000Y-46550000D02*
X48900000Y-46550000D01*
X50100000Y-46200000D02*
X49750000Y-46550000D01*
G04 #@! TO.N,/Q5*
X54300000Y-44365000D02*
X55000000Y-45065000D01*
X53300000Y-44365000D02*
X54300000Y-44365000D01*
X55000000Y-45065000D02*
X55000000Y-51000000D01*
X55000000Y-51000000D02*
X54200000Y-51800000D01*
X45100000Y-54400000D02*
X40900000Y-54400000D01*
X39000000Y-56300000D02*
X39000000Y-61000000D01*
X40900000Y-54400000D02*
X39000000Y-56300000D01*
X54200000Y-51800000D02*
X52000000Y-51800000D01*
X52000000Y-51800000D02*
X50800000Y-53000000D01*
X46500000Y-53000000D02*
X45100000Y-54400000D01*
X50800000Y-53000000D02*
X46500000Y-53000000D01*
G04 #@! TO.N,/Q6*
X50000000Y-47350000D02*
X50000000Y-50000000D01*
X50445000Y-46905000D02*
X50000000Y-47350000D01*
X53300000Y-46905000D02*
X50445000Y-46905000D01*
G04 #@! TO.N,/Q7*
X50000000Y-38999999D02*
X55300000Y-38999999D01*
X55300000Y-38999999D02*
X55900000Y-39599999D01*
X55900000Y-39599999D02*
X55900000Y-43100000D01*
X57165000Y-44365000D02*
X58700000Y-44365000D01*
X55900000Y-43100000D02*
X57165000Y-44365000D01*
G04 #@! TO.N,/Q8*
X61000000Y-58900000D02*
X61000000Y-61000000D01*
X62000000Y-57900000D02*
X61000000Y-58900000D01*
X60800000Y-53100000D02*
X62000000Y-54300000D01*
X57400000Y-53100000D02*
X60800000Y-53100000D01*
X58700000Y-45635000D02*
X57165000Y-45635000D01*
X57165000Y-45635000D02*
X56350000Y-46450000D01*
X56350000Y-46450000D02*
X56350000Y-52050000D01*
X62000000Y-54300000D02*
X62000000Y-57900000D01*
X56350000Y-52050000D02*
X57400000Y-53100000D01*
G04 #@! TO.N,/Q9*
X61000000Y-48200000D02*
X61000001Y-50000000D01*
X58700000Y-43095000D02*
X60095000Y-43095000D01*
X60095000Y-43095000D02*
X62100000Y-45100000D01*
X62100000Y-45100000D02*
X62100000Y-47100000D01*
X62100000Y-47100000D02*
X61000000Y-48200000D01*
G04 #@! TO.N,/Q10*
X61000000Y-41100000D02*
X61000000Y-39000000D01*
X60275000Y-41825000D02*
X61000000Y-41100000D01*
X58700000Y-41825000D02*
X60275000Y-41825000D01*
G04 #@! TO.N,/Q11*
X38999999Y-41900000D02*
X39000000Y-39000000D01*
X39700000Y-42600000D02*
X38999999Y-41900000D01*
X46055000Y-42600000D02*
X39700000Y-42600000D01*
X53300000Y-40555000D02*
X52145000Y-40554999D01*
X52145000Y-40554999D02*
X51800000Y-40900000D01*
X51800000Y-40900000D02*
X47755000Y-40900000D01*
X47755000Y-40900000D02*
X46055000Y-42600000D01*
G04 #@! TO.N,/Q12*
X39700000Y-43200000D02*
X39000000Y-43900000D01*
X39000000Y-43900000D02*
X38999999Y-50000000D01*
X46300000Y-43200000D02*
X39700000Y-43200000D01*
X53299999Y-41825000D02*
X52300001Y-41825000D01*
X52300001Y-41825000D02*
X51825011Y-41350011D01*
X51825011Y-41350011D02*
X48149989Y-41350011D01*
X48149989Y-41350011D02*
X46300000Y-43200000D01*
G04 #@! TO.N,/Q13*
X55700000Y-44495000D02*
X54300000Y-43095000D01*
X55700000Y-51300000D02*
X55700000Y-44495000D01*
X47900000Y-58900000D02*
X47399999Y-58400000D01*
X50000000Y-59400000D02*
X49500000Y-58900000D01*
X51000000Y-53500000D02*
X52200000Y-52300001D01*
X49500000Y-58900000D02*
X47900000Y-58900000D01*
X47900000Y-53500000D02*
X51000000Y-53500000D01*
X54300000Y-43095000D02*
X53300000Y-43095000D01*
X50000000Y-61000001D02*
X50000000Y-59400000D01*
X47399999Y-54000000D02*
X47900000Y-53500000D01*
X54699999Y-52300000D02*
X55700000Y-51300000D01*
X47399999Y-58400000D02*
X47399999Y-54000000D01*
X52200000Y-52300001D02*
X54699999Y-52300000D01*
G04 #@! TO.N,/OUT*
X53300000Y-56635000D02*
X54325000Y-56635000D01*
X54985000Y-56635000D02*
X55000000Y-56650000D01*
X53300000Y-56635000D02*
X54985000Y-56635000D01*
X55000000Y-56650000D02*
X55000000Y-59150000D01*
X54400000Y-59750000D02*
X53500000Y-59750000D01*
X55000000Y-59150000D02*
X54400000Y-59750000D01*
X57274998Y-48175001D02*
X57249998Y-48150000D01*
X58700000Y-48175000D02*
X57274998Y-48175001D01*
G04 #@! TO.N,Net-(D3-Pad1)*
X66000000Y-38650000D02*
X67050000Y-38650000D01*
X67200000Y-38500000D02*
X67950000Y-38500000D01*
X67050000Y-38650000D02*
X67200000Y-38500000D01*
G04 #@! TO.N,Net-(D6-Pad1)*
X76050000Y-38650000D02*
X77000000Y-38650000D01*
X75900000Y-38500000D02*
X76050000Y-38650000D01*
X75050000Y-38500000D02*
X75900000Y-38500000D01*
G04 #@! TO.N,Net-(D9-Pad1)*
X88000000Y-38650000D02*
X87050000Y-38650000D01*
X86900000Y-38500000D02*
X86050000Y-38500000D01*
X87050000Y-38650000D02*
X86900000Y-38500000D01*
G04 #@! TO.N,Net-(D12-Pad1)*
X92500000Y-38650000D02*
X93450000Y-38650000D01*
X93600000Y-38500000D02*
X94450000Y-38500000D01*
X93450000Y-38650000D02*
X93600000Y-38500000D01*
G04 #@! TO.N,Net-(D15-Pad1)*
X103500000Y-38650000D02*
X102550000Y-38650000D01*
X102400000Y-38500000D02*
X101550000Y-38500000D01*
X102550000Y-38650000D02*
X102400000Y-38500000D01*
G04 #@! TO.N,Net-(D18-Pad1)*
X114500000Y-38650000D02*
X113550000Y-38650000D01*
X113400000Y-38500000D02*
X112550000Y-38500000D01*
X113550000Y-38650000D02*
X113400000Y-38500000D01*
G04 #@! TO.N,Net-(D21-Pad1)*
X119150000Y-38500000D02*
X119000000Y-38650000D01*
X120950000Y-38500000D02*
X119150000Y-38500000D01*
G04 #@! TO.N,Net-(D24-Pad1)*
X129850000Y-38500000D02*
X130000000Y-38650000D01*
X128050000Y-38500000D02*
X129850000Y-38500000D01*
G04 #@! TO.N,Net-(D27-Pad1)*
X140850000Y-38500000D02*
X141000000Y-38650000D01*
X139050000Y-38500000D02*
X140850000Y-38500000D01*
G04 #@! TD*
M02*
