M48
INCH,TZ
T1C0.0157
T2C0.0400
T3C0.0866
T4C0.0197
%
G90
G05
T1
X015354Y-019685
X015354Y-015354
X015354Y-024016
X017520Y-015354
X017520Y-019685
X017520Y-024016
X019685Y-015354
X019685Y-019685
X019685Y-024016
X020472Y-022797
X020984Y-020876
X020984Y-019882
X021654Y-022303
X022441Y-021299
X022441Y-015965
X022441Y-024114
X022539Y-018957
X024016Y-015354
X024016Y-024016
X024016Y-019685
X025984Y-022717
X030315Y-022717
X034646Y-022717
X036417Y-022717
X040748Y-022717
X045079Y-022717
X046850Y-022717
X051181Y-022717
X055512Y-022717
T2
X032480Y-015551
X038583Y-015551
X049016Y-015551
X028150Y-015551
X053346Y-015551
X042913Y-015551
T3
X019685Y-017185
X019685Y-022185
T4
X035138Y-016358
X035138Y-016634
X035138Y-016909
X035925Y-016358
X035925Y-016634
X035925Y-016909
X035138Y-020492
X035138Y-020768
X035138Y-021043
X035925Y-020492
X035925Y-020768
X035925Y-021043
X045571Y-020492
X045571Y-020768
X045571Y-021043
X046358Y-020492
X046358Y-020768
X046358Y-021043
X024705Y-020492
X024705Y-020768
X024705Y-021043
X025492Y-020492
X025492Y-020768
X025492Y-021043
X024705Y-016358
X024705Y-016634
X024705Y-016909
X025492Y-016358
X025492Y-016634
X025492Y-016909
X045571Y-016358
X045571Y-016634
X045571Y-016909
X046358Y-016358
X046358Y-016634
X046358Y-016909
T0
M30
