G04 #@! TF.GenerationSoftware,KiCad,Pcbnew,5.0.0-fee4fd1~66~ubuntu16.04.1*
G04 #@! TF.CreationDate,2018-08-14T22:35:19+05:30*
G04 #@! TF.ProjectId,1sqinch555,317371696E63683535352E6B69636164,rev?*
G04 #@! TF.SameCoordinates,Original*
G04 #@! TF.FileFunction,Copper,L1,Top,Signal*
G04 #@! TF.FilePolarity,Positive*
%FSLAX46Y46*%
G04 Gerber Fmt 4.6, Leading zero omitted, Abs format (unit mm)*
G04 Created by KiCad (PCBNEW 5.0.0-fee4fd1~66~ubuntu16.04.1) date Tue Aug 14 22:35:19 2018*
%MOMM*%
%LPD*%
G01*
G04 APERTURE LIST*
G04 #@! TA.AperFunction,SMDPad,CuDef*
%ADD10R,1.198880X1.198880*%
G04 #@! TD*
G04 #@! TA.AperFunction,BGAPad,CuDef*
%ADD11C,1.000000*%
G04 #@! TD*
G04 #@! TA.AperFunction,SMDPad,CuDef*
%ADD12R,1.000000X1.250000*%
G04 #@! TD*
G04 #@! TA.AperFunction,SMDPad,CuDef*
%ADD13R,2.000000X3.000000*%
G04 #@! TD*
G04 #@! TA.AperFunction,ComponentPad*
%ADD14C,3.800000*%
G04 #@! TD*
G04 #@! TA.AperFunction,SMDPad,CuDef*
%ADD15R,2.000000X2.000000*%
G04 #@! TD*
G04 #@! TA.AperFunction,SMDPad,CuDef*
%ADD16R,1.550000X0.600000*%
G04 #@! TD*
G04 #@! TA.AperFunction,SMDPad,CuDef*
%ADD17R,1.500000X0.600000*%
G04 #@! TD*
G04 #@! TA.AperFunction,ComponentPad*
%ADD18C,2.000000*%
G04 #@! TD*
G04 #@! TA.AperFunction,SMDPad,CuDef*
%ADD19R,1.250000X1.000000*%
G04 #@! TD*
G04 #@! TA.AperFunction,ViaPad*
%ADD20C,0.800000*%
G04 #@! TD*
G04 #@! TA.AperFunction,Conductor*
%ADD21C,0.250000*%
G04 #@! TD*
G04 APERTURE END LIST*
D10*
G04 #@! TO.P,D1,2*
G04 #@! TO.N,/10*
X64700000Y-56549020D03*
G04 #@! TO.P,D1,1*
G04 #@! TO.N,Net-(D1-Pad1)*
X64700000Y-54450980D03*
G04 #@! TD*
G04 #@! TO.P,D2,2*
G04 #@! TO.N,Net-(D1-Pad1)*
X64700000Y-48549020D03*
G04 #@! TO.P,D2,1*
G04 #@! TO.N,Net-(D2-Pad1)*
X64700000Y-46450980D03*
G04 #@! TD*
G04 #@! TO.P,D3,2*
G04 #@! TO.N,Net-(D2-Pad1)*
X64700000Y-40549020D03*
G04 #@! TO.P,D3,1*
G04 #@! TO.N,Net-(D3-Pad1)*
X64700000Y-38450980D03*
G04 #@! TD*
G04 #@! TO.P,D4,2*
G04 #@! TO.N,/7*
X75500000Y-56549020D03*
G04 #@! TO.P,D4,1*
G04 #@! TO.N,Net-(D4-Pad1)*
X75500000Y-54450980D03*
G04 #@! TD*
G04 #@! TO.P,D5,2*
G04 #@! TO.N,Net-(D4-Pad1)*
X75500000Y-48549020D03*
G04 #@! TO.P,D5,1*
G04 #@! TO.N,Net-(D5-Pad1)*
X75500000Y-46450980D03*
G04 #@! TD*
G04 #@! TO.P,D6,2*
G04 #@! TO.N,Net-(D5-Pad1)*
X75500000Y-40549020D03*
G04 #@! TO.P,D6,1*
G04 #@! TO.N,Net-(D6-Pad1)*
X75500000Y-38450980D03*
G04 #@! TD*
G04 #@! TO.P,D7,2*
G04 #@! TO.N,/11*
X86300000Y-56549020D03*
G04 #@! TO.P,D7,1*
G04 #@! TO.N,Net-(D7-Pad1)*
X86300000Y-54450980D03*
G04 #@! TD*
G04 #@! TO.P,D8,2*
G04 #@! TO.N,Net-(D7-Pad1)*
X86300000Y-48549020D03*
G04 #@! TO.P,D8,1*
G04 #@! TO.N,Net-(D8-Pad1)*
X86300000Y-46450980D03*
G04 #@! TD*
G04 #@! TO.P,D9,2*
G04 #@! TO.N,Net-(D8-Pad1)*
X86300000Y-40549020D03*
G04 #@! TO.P,D9,1*
G04 #@! TO.N,Net-(D9-Pad1)*
X86300000Y-38450980D03*
G04 #@! TD*
G04 #@! TO.P,D10,2*
G04 #@! TO.N,/9*
X89700000Y-56549020D03*
G04 #@! TO.P,D10,1*
G04 #@! TO.N,Net-(D10-Pad1)*
X89700000Y-54450980D03*
G04 #@! TD*
G04 #@! TO.P,D11,2*
G04 #@! TO.N,Net-(D10-Pad1)*
X89700000Y-48549020D03*
G04 #@! TO.P,D11,1*
G04 #@! TO.N,Net-(D11-Pad1)*
X89700000Y-46450980D03*
G04 #@! TD*
G04 #@! TO.P,D12,2*
G04 #@! TO.N,Net-(D11-Pad1)*
X89700000Y-40549020D03*
G04 #@! TO.P,D12,1*
G04 #@! TO.N,Net-(D12-Pad1)*
X89700000Y-38450980D03*
G04 #@! TD*
G04 #@! TO.P,D13,2*
G04 #@! TO.N,/6*
X100500000Y-56549020D03*
G04 #@! TO.P,D13,1*
G04 #@! TO.N,Net-(D13-Pad1)*
X100500000Y-54450980D03*
G04 #@! TD*
G04 #@! TO.P,D14,2*
G04 #@! TO.N,Net-(D13-Pad1)*
X100500000Y-48549020D03*
G04 #@! TO.P,D14,1*
G04 #@! TO.N,Net-(D14-Pad1)*
X100500000Y-46450980D03*
G04 #@! TD*
G04 #@! TO.P,D15,2*
G04 #@! TO.N,Net-(D14-Pad1)*
X100500000Y-40549020D03*
G04 #@! TO.P,D15,1*
G04 #@! TO.N,Net-(D15-Pad1)*
X100500000Y-38450980D03*
G04 #@! TD*
G04 #@! TO.P,D16,2*
G04 #@! TO.N,/12*
X111300000Y-56549020D03*
G04 #@! TO.P,D16,1*
G04 #@! TO.N,Net-(D16-Pad1)*
X111300000Y-54450980D03*
G04 #@! TD*
G04 #@! TO.P,D17,2*
G04 #@! TO.N,Net-(D16-Pad1)*
X111300000Y-48549020D03*
G04 #@! TO.P,D17,1*
G04 #@! TO.N,Net-(D17-Pad1)*
X111300000Y-46450980D03*
G04 #@! TD*
G04 #@! TO.P,D18,2*
G04 #@! TO.N,Net-(D17-Pad1)*
X111300000Y-40549020D03*
G04 #@! TO.P,D18,1*
G04 #@! TO.N,Net-(D18-Pad1)*
X111300000Y-38450980D03*
G04 #@! TD*
G04 #@! TO.P,D19,2*
G04 #@! TO.N,/8*
X114700000Y-56549020D03*
G04 #@! TO.P,D19,1*
G04 #@! TO.N,Net-(D19-Pad1)*
X114700000Y-54450980D03*
G04 #@! TD*
G04 #@! TO.P,D20,2*
G04 #@! TO.N,Net-(D19-Pad1)*
X114700000Y-48549020D03*
G04 #@! TO.P,D20,1*
G04 #@! TO.N,Net-(D20-Pad1)*
X114700000Y-46450980D03*
G04 #@! TD*
G04 #@! TO.P,D21,2*
G04 #@! TO.N,Net-(D20-Pad1)*
X114700000Y-40549020D03*
G04 #@! TO.P,D21,1*
G04 #@! TO.N,Net-(D21-Pad1)*
X114700000Y-38450980D03*
G04 #@! TD*
G04 #@! TO.P,D22,2*
G04 #@! TO.N,/13*
X125500000Y-56549020D03*
G04 #@! TO.P,D22,1*
G04 #@! TO.N,Net-(D22-Pad1)*
X125500000Y-54450980D03*
G04 #@! TD*
G04 #@! TO.P,D23,2*
G04 #@! TO.N,Net-(D22-Pad1)*
X125500000Y-48549020D03*
G04 #@! TO.P,D23,1*
G04 #@! TO.N,Net-(D23-Pad1)*
X125500000Y-46450980D03*
G04 #@! TD*
G04 #@! TO.P,D24,2*
G04 #@! TO.N,Net-(D23-Pad1)*
X125500000Y-40549020D03*
G04 #@! TO.P,D24,1*
G04 #@! TO.N,Net-(D24-Pad1)*
X125500000Y-38450980D03*
G04 #@! TD*
G04 #@! TO.P,D25,2*
G04 #@! TO.N,/5*
X136300000Y-56549020D03*
G04 #@! TO.P,D25,1*
G04 #@! TO.N,Net-(D25-Pad1)*
X136300000Y-54450980D03*
G04 #@! TD*
G04 #@! TO.P,D26,2*
G04 #@! TO.N,Net-(D25-Pad1)*
X136300000Y-48549020D03*
G04 #@! TO.P,D26,1*
G04 #@! TO.N,Net-(D26-Pad1)*
X136300000Y-46450980D03*
G04 #@! TD*
G04 #@! TO.P,D27,2*
G04 #@! TO.N,Net-(D26-Pad1)*
X136300000Y-40549020D03*
G04 #@! TO.P,D27,1*
G04 #@! TO.N,Net-(D27-Pad1)*
X136300000Y-38450980D03*
G04 #@! TD*
D11*
G04 #@! TO.P,J3,1*
G04 #@! TO.N,/Q3*
X51200000Y-47450000D03*
G04 #@! TD*
D12*
G04 #@! TO.P,R3,2*
G04 #@! TO.N,Net-(D6-Pad1)*
X73300000Y-38450000D03*
G04 #@! TO.P,R3,1*
G04 #@! TO.N,/GND1*
X71300000Y-38450000D03*
G04 #@! TD*
G04 #@! TO.P,C2,2*
G04 #@! TO.N,/GND*
X56700000Y-59600000D03*
G04 #@! TO.P,C2,1*
G04 #@! TO.N,/CV*
X58700000Y-59600000D03*
G04 #@! TD*
D13*
G04 #@! TO.P,J6,1*
G04 #@! TO.N,/Q5*
X39000000Y-61000000D03*
G04 #@! TD*
G04 #@! TO.P,J8,1*
G04 #@! TO.N,/Q6*
X50000000Y-50000000D03*
G04 #@! TD*
G04 #@! TO.P,J10,1*
G04 #@! TO.N,/Q7*
X50000000Y-38999999D03*
G04 #@! TD*
G04 #@! TO.P,J12,1*
G04 #@! TO.N,/Q8*
X61000000Y-61000000D03*
G04 #@! TD*
G04 #@! TO.P,J14,1*
G04 #@! TO.N,/Q9*
X61000001Y-50000000D03*
G04 #@! TD*
G04 #@! TO.P,J16,1*
G04 #@! TO.N,/Q10*
X61000000Y-39000000D03*
G04 #@! TD*
G04 #@! TO.P,J18,1*
G04 #@! TO.N,/Q11*
X39000000Y-39000000D03*
G04 #@! TD*
G04 #@! TO.P,J20,1*
G04 #@! TO.N,/Q12*
X38999999Y-50000000D03*
G04 #@! TD*
G04 #@! TO.P,J22,1*
G04 #@! TO.N,/Q13*
X50000000Y-61000001D03*
G04 #@! TD*
G04 #@! TO.P,J24,1*
G04 #@! TO.N,/GND*
X44500000Y-50000000D03*
G04 #@! TD*
G04 #@! TO.P,J26,1*
G04 #@! TO.N,/GND*
X44500000Y-39000000D03*
G04 #@! TD*
G04 #@! TO.P,J28,1*
G04 #@! TO.N,/GND*
X44500000Y-61000000D03*
G04 #@! TD*
D14*
G04 #@! TO.P,BT1,2*
G04 #@! TO.N,/GND*
X50000000Y-43650000D03*
G04 #@! TO.P,BT1,1*
G04 #@! TO.N,/9V*
X50000000Y-56350000D03*
G04 #@! TD*
D15*
G04 #@! TO.P,J7,1*
G04 #@! TO.N,/10*
X64500000Y-59500000D03*
G04 #@! TD*
G04 #@! TO.P,J9,1*
G04 #@! TO.N,/7*
X75500000Y-59499999D03*
G04 #@! TD*
G04 #@! TO.P,J11,1*
G04 #@! TO.N,/11*
X86500000Y-59500000D03*
G04 #@! TD*
G04 #@! TO.P,J13,1*
G04 #@! TO.N,/9*
X89500000Y-59500000D03*
G04 #@! TD*
G04 #@! TO.P,J15,1*
G04 #@! TO.N,/6*
X100500000Y-59499999D03*
G04 #@! TD*
G04 #@! TO.P,J17,1*
G04 #@! TO.N,/12*
X111500000Y-59500000D03*
G04 #@! TD*
G04 #@! TO.P,J19,1*
G04 #@! TO.N,/8*
X114500000Y-59500000D03*
G04 #@! TD*
G04 #@! TO.P,J21,1*
G04 #@! TO.N,/13*
X125500000Y-59499999D03*
G04 #@! TD*
G04 #@! TO.P,J23,1*
G04 #@! TO.N,/5*
X136500000Y-59500000D03*
G04 #@! TD*
G04 #@! TO.P,J25,1*
G04 #@! TO.N,/GND1*
X81000000Y-59500000D03*
G04 #@! TD*
G04 #@! TO.P,J27,1*
G04 #@! TO.N,/GND2*
X106000000Y-59500000D03*
G04 #@! TD*
G04 #@! TO.P,J29,1*
G04 #@! TO.N,/GND3*
X131000000Y-59500000D03*
G04 #@! TD*
D16*
G04 #@! TO.P,U1,1*
G04 #@! TO.N,/GND*
X53300000Y-53295000D03*
G04 #@! TO.P,U1,2*
G04 #@! TO.N,/TR*
X53300000Y-54565000D03*
G04 #@! TO.P,U1,3*
G04 #@! TO.N,/OUT*
X53300000Y-55835000D03*
G04 #@! TO.P,U1,4*
G04 #@! TO.N,/9V*
X53300000Y-57105000D03*
G04 #@! TO.P,U1,5*
G04 #@! TO.N,/CV*
X58700000Y-57105000D03*
G04 #@! TO.P,U1,6*
G04 #@! TO.N,/TR*
X58700000Y-55835000D03*
G04 #@! TO.P,U1,7*
G04 #@! TO.N,Net-(J1-Pad1)*
X58700000Y-54565000D03*
G04 #@! TO.P,U1,8*
G04 #@! TO.N,/9V*
X58700000Y-53295000D03*
G04 #@! TD*
D17*
G04 #@! TO.P,U2,1*
G04 #@! TO.N,/Q11*
X53300000Y-40555000D03*
G04 #@! TO.P,U2,2*
G04 #@! TO.N,/Q12*
X53300000Y-41825000D03*
G04 #@! TO.P,U2,3*
G04 #@! TO.N,/Q13*
X53300000Y-43095000D03*
G04 #@! TO.P,U2,4*
G04 #@! TO.N,/Q5*
X53300000Y-44365000D03*
G04 #@! TO.P,U2,5*
G04 #@! TO.N,/Q4*
X53300000Y-45635000D03*
G04 #@! TO.P,U2,6*
G04 #@! TO.N,/Q6*
X53300000Y-46905000D03*
G04 #@! TO.P,U2,7*
G04 #@! TO.N,/Q3*
X53300000Y-48175000D03*
G04 #@! TO.P,U2,8*
G04 #@! TO.N,/GND*
X53300000Y-49445000D03*
G04 #@! TO.P,U2,9*
G04 #@! TO.N,/Q0*
X58700000Y-49445000D03*
G04 #@! TO.P,U2,10*
G04 #@! TO.N,/OUT*
X58700000Y-48175000D03*
G04 #@! TO.P,U2,11*
G04 #@! TO.N,/RST*
X58700000Y-46905000D03*
G04 #@! TO.P,U2,12*
G04 #@! TO.N,/Q8*
X58700000Y-45635000D03*
G04 #@! TO.P,U2,13*
G04 #@! TO.N,/Q7*
X58700000Y-44365000D03*
G04 #@! TO.P,U2,14*
G04 #@! TO.N,/Q9*
X58700000Y-43095000D03*
G04 #@! TO.P,U2,15*
G04 #@! TO.N,/Q10*
X58700000Y-41825000D03*
G04 #@! TO.P,U2,16*
G04 #@! TO.N,/9V*
X58700000Y-40555000D03*
G04 #@! TD*
D18*
G04 #@! TO.P,J30,1*
G04 #@! TO.N,/GND1*
X70000000Y-41000000D03*
G04 #@! TD*
G04 #@! TO.P,J31,1*
G04 #@! TO.N,/GND1*
X81000000Y-41000000D03*
G04 #@! TD*
G04 #@! TO.P,J32,1*
G04 #@! TO.N,/GND2*
X95000000Y-41000000D03*
G04 #@! TD*
G04 #@! TO.P,J33,1*
G04 #@! TO.N,/GND2*
X106000000Y-41000000D03*
G04 #@! TD*
G04 #@! TO.P,J34,1*
G04 #@! TO.N,/GND3*
X131000000Y-41000000D03*
G04 #@! TD*
G04 #@! TO.P,J35,1*
G04 #@! TO.N,/GND3*
X120000000Y-41000000D03*
G04 #@! TD*
D11*
G04 #@! TO.P,J1,1*
G04 #@! TO.N,Net-(J1-Pad1)*
X60500000Y-54550000D03*
G04 #@! TD*
G04 #@! TO.P,J2,1*
G04 #@! TO.N,/Q0*
X58700000Y-50949999D03*
G04 #@! TD*
G04 #@! TO.P,J4,1*
G04 #@! TO.N,/RST*
X60450000Y-46900000D03*
G04 #@! TD*
G04 #@! TO.P,J5,1*
G04 #@! TO.N,/Q4*
X48900000Y-46550000D03*
G04 #@! TD*
D19*
G04 #@! TO.P,C1,2*
G04 #@! TO.N,/GND*
X46000000Y-56000000D03*
G04 #@! TO.P,C1,1*
G04 #@! TO.N,/TR*
X46000000Y-54000000D03*
G04 #@! TD*
G04 #@! TO.P,R1,2*
G04 #@! TO.N,/TR*
X43500000Y-54000000D03*
G04 #@! TO.P,R1,1*
G04 #@! TO.N,/OUT*
X43500000Y-56000000D03*
G04 #@! TD*
D12*
G04 #@! TO.P,R2,2*
G04 #@! TO.N,Net-(D3-Pad1)*
X66900000Y-38450000D03*
G04 #@! TO.P,R2,1*
G04 #@! TO.N,/GND1*
X68900000Y-38450000D03*
G04 #@! TD*
G04 #@! TO.P,R4,2*
G04 #@! TO.N,Net-(D9-Pad1)*
X84100000Y-38450000D03*
G04 #@! TO.P,R4,1*
G04 #@! TO.N,/GND1*
X82100000Y-38450000D03*
G04 #@! TD*
G04 #@! TO.P,R5,2*
G04 #@! TO.N,Net-(D12-Pad1)*
X91900000Y-38450000D03*
G04 #@! TO.P,R5,1*
G04 #@! TO.N,/GND2*
X93900000Y-38450000D03*
G04 #@! TD*
G04 #@! TO.P,R6,2*
G04 #@! TO.N,Net-(D15-Pad1)*
X98300000Y-38450000D03*
G04 #@! TO.P,R6,1*
G04 #@! TO.N,/GND2*
X96300000Y-38450000D03*
G04 #@! TD*
G04 #@! TO.P,R7,2*
G04 #@! TO.N,Net-(D18-Pad1)*
X109100000Y-38450000D03*
G04 #@! TO.P,R7,1*
G04 #@! TO.N,/GND2*
X107100000Y-38450000D03*
G04 #@! TD*
G04 #@! TO.P,R8,2*
G04 #@! TO.N,Net-(D21-Pad1)*
X116900000Y-38450000D03*
G04 #@! TO.P,R8,1*
G04 #@! TO.N,/GND3*
X118900000Y-38450000D03*
G04 #@! TD*
G04 #@! TO.P,R9,2*
G04 #@! TO.N,Net-(D24-Pad1)*
X123300000Y-38450000D03*
G04 #@! TO.P,R9,1*
G04 #@! TO.N,/GND3*
X121300000Y-38450000D03*
G04 #@! TD*
G04 #@! TO.P,R10,2*
G04 #@! TO.N,Net-(D27-Pad1)*
X134100000Y-38450000D03*
G04 #@! TO.P,R10,1*
G04 #@! TO.N,/GND3*
X132100000Y-38450000D03*
G04 #@! TD*
D20*
G04 #@! TO.N,/9V*
X57000000Y-40550008D03*
X57050000Y-53300000D03*
G04 #@! TO.N,/GND*
X53300000Y-50500000D03*
X44500000Y-39000000D03*
X44500000Y-50000000D03*
X44500000Y-61000000D03*
X51900000Y-53300000D03*
X46000000Y-57150000D03*
X55600000Y-59600000D03*
G04 #@! TO.N,/5*
X136500000Y-59500000D03*
G04 #@! TO.N,/GND1*
X81000000Y-59500000D03*
G04 #@! TO.N,/6*
X100500000Y-59499999D03*
G04 #@! TO.N,/7*
X75500000Y-59499999D03*
G04 #@! TO.N,/8*
X114500000Y-59500000D03*
G04 #@! TO.N,/GND2*
X106000000Y-59500000D03*
G04 #@! TO.N,/9*
X89500000Y-59500000D03*
G04 #@! TO.N,/10*
X64500000Y-59500000D03*
G04 #@! TO.N,/11*
X86500000Y-59500000D03*
G04 #@! TO.N,/GND3*
X131000000Y-59500000D03*
G04 #@! TO.N,/12*
X111500000Y-59500000D03*
G04 #@! TO.N,/13*
X125500000Y-59499999D03*
G04 #@! TO.N,/Q5*
X39000000Y-61000000D03*
G04 #@! TO.N,/Q6*
X50000000Y-50000000D03*
G04 #@! TO.N,/Q7*
X50000000Y-38999999D03*
G04 #@! TO.N,/Q8*
X61000000Y-61000000D03*
G04 #@! TO.N,/Q9*
X61000001Y-50000000D03*
G04 #@! TO.N,/Q10*
X61000000Y-39000000D03*
G04 #@! TO.N,/Q11*
X39000000Y-39000000D03*
G04 #@! TO.N,/Q12*
X38999999Y-50000000D03*
G04 #@! TO.N,/Q13*
X50000000Y-61000001D03*
G04 #@! TO.N,/OUT*
X55000000Y-56650000D03*
X57249998Y-48150000D03*
G04 #@! TD*
D21*
G04 #@! TO.N,Net-(D1-Pad1)*
X64700000Y-53601540D02*
X64700000Y-48549020D01*
X64700000Y-54450980D02*
X64700000Y-53601540D01*
G04 #@! TO.N,Net-(D2-Pad1)*
X64700000Y-46450980D02*
X64700000Y-40549020D01*
G04 #@! TO.N,Net-(D4-Pad1)*
X75500000Y-48549020D02*
X75500000Y-54450980D01*
G04 #@! TO.N,Net-(D5-Pad1)*
X75500000Y-40549020D02*
X75500000Y-46450980D01*
G04 #@! TO.N,Net-(D7-Pad1)*
X86300000Y-53601540D02*
X86300000Y-48549020D01*
X86300000Y-54450980D02*
X86300000Y-53601540D01*
G04 #@! TO.N,Net-(D8-Pad1)*
X86300000Y-46450980D02*
X86300000Y-40549020D01*
G04 #@! TO.N,Net-(D10-Pad1)*
X89700000Y-54450980D02*
X89700000Y-48549020D01*
G04 #@! TO.N,Net-(D11-Pad1)*
X89700000Y-46450980D02*
X89700000Y-40549020D01*
G04 #@! TO.N,Net-(D13-Pad1)*
X100500000Y-48549020D02*
X100500000Y-54450980D01*
G04 #@! TO.N,Net-(D14-Pad1)*
X100500000Y-40549020D02*
X100500000Y-46450980D01*
G04 #@! TO.N,Net-(D16-Pad1)*
X111300000Y-54450980D02*
X111300000Y-48549020D01*
G04 #@! TO.N,Net-(D17-Pad1)*
X111300000Y-46450980D02*
X111300000Y-40549020D01*
G04 #@! TO.N,Net-(D19-Pad1)*
X114700000Y-54450980D02*
X114700000Y-48549020D01*
G04 #@! TO.N,Net-(D20-Pad1)*
X114700000Y-46450980D02*
X114700000Y-40549020D01*
G04 #@! TO.N,Net-(D22-Pad1)*
X125500000Y-48549020D02*
X125500000Y-54450980D01*
G04 #@! TO.N,Net-(D23-Pad1)*
X125500000Y-40549020D02*
X125500000Y-46450980D01*
G04 #@! TO.N,Net-(D25-Pad1)*
X136300000Y-48549020D02*
X136300000Y-54450980D01*
G04 #@! TO.N,Net-(D26-Pad1)*
X136300000Y-40549020D02*
X136300000Y-46450980D01*
G04 #@! TO.N,Net-(J1-Pad1)*
X60485000Y-54565000D02*
X60500000Y-54550000D01*
X58700000Y-54565000D02*
X60485000Y-54565000D01*
G04 #@! TO.N,/9V*
X58700000Y-40554999D02*
X57004992Y-40555000D01*
X57004992Y-40555000D02*
X57000000Y-40550008D01*
X57054997Y-53295004D02*
X57050000Y-53300000D01*
X58700000Y-53295000D02*
X57054997Y-53295004D01*
X53300000Y-57105000D02*
X50755000Y-57105000D01*
X50755000Y-57105000D02*
X50000000Y-56350000D01*
G04 #@! TO.N,/GND*
X53300000Y-49445000D02*
X53300000Y-50500000D01*
X53300000Y-53295000D02*
X51905000Y-53295000D01*
X51905000Y-53295000D02*
X51900000Y-53300000D01*
X46000000Y-56000000D02*
X46000000Y-57150000D01*
X56700000Y-59600000D02*
X55600000Y-59600000D01*
G04 #@! TO.N,/TR*
X46000000Y-54000000D02*
X48750000Y-54000000D01*
X48750000Y-54000000D02*
X49000000Y-53750000D01*
X49000000Y-53750000D02*
X51000000Y-53750000D01*
X51815000Y-54565000D02*
X53300000Y-54565000D01*
X51000000Y-53750000D02*
X51815000Y-54565000D01*
X43500000Y-54000000D02*
X46000000Y-54000000D01*
X57675000Y-55835000D02*
X58700000Y-55835000D01*
X56685000Y-55835000D02*
X57675000Y-55835000D01*
X53300000Y-54565000D02*
X55415000Y-54565000D01*
X55415000Y-54565000D02*
X56685000Y-55835000D01*
G04 #@! TO.N,/CV*
X58700000Y-57105000D02*
X58700000Y-59600000D01*
G04 #@! TO.N,/5*
X136300000Y-59300000D02*
X136500000Y-59500000D01*
X136300000Y-56549020D02*
X136300000Y-59300000D01*
G04 #@! TO.N,/GND1*
X70000000Y-39585787D02*
X70000000Y-38450000D01*
X70000000Y-41000000D02*
X70000000Y-39585787D01*
X68900000Y-38450000D02*
X70000000Y-38450000D01*
X70000000Y-38450000D02*
X71300000Y-38450000D01*
X81000000Y-39585787D02*
X81000000Y-41000000D01*
X81000000Y-38800000D02*
X81000000Y-39585787D01*
X81350000Y-38450000D02*
X81000000Y-38800000D01*
X82100000Y-38450000D02*
X81350000Y-38450000D01*
X81000000Y-41000000D02*
X81000000Y-59500000D01*
G04 #@! TO.N,/6*
X100500000Y-56549020D02*
X100500000Y-59499999D01*
G04 #@! TO.N,/7*
X75500000Y-57398460D02*
X75500000Y-59499999D01*
X75500000Y-56549020D02*
X75500000Y-57398460D01*
G04 #@! TO.N,/8*
X114700000Y-59300000D02*
X114500000Y-59500000D01*
X114700000Y-56549020D02*
X114700000Y-59300000D01*
G04 #@! TO.N,/GND2*
X95000000Y-39585787D02*
X95000000Y-38450000D01*
X95000000Y-41000000D02*
X95000000Y-39585787D01*
X93900000Y-38450000D02*
X95000000Y-38450000D01*
X95000000Y-38450000D02*
X96300000Y-38450000D01*
X106000000Y-39585787D02*
X106000000Y-41000000D01*
X106000000Y-38800000D02*
X106000000Y-39585787D01*
X106350000Y-38450000D02*
X106000000Y-38800000D01*
X107100000Y-38450000D02*
X106350000Y-38450000D01*
X106000000Y-41000000D02*
X106000000Y-59500000D01*
G04 #@! TO.N,/9*
X89700000Y-59300000D02*
X89500000Y-59500000D01*
X89700000Y-56549020D02*
X89700000Y-59300000D01*
G04 #@! TO.N,/10*
X64700000Y-59300000D02*
X64500000Y-59500000D01*
X64700000Y-56549020D02*
X64700000Y-59300000D01*
G04 #@! TO.N,/11*
X86300000Y-59300000D02*
X86500000Y-59500000D01*
X86300000Y-56549020D02*
X86300000Y-59300000D01*
G04 #@! TO.N,/GND3*
X120000000Y-41000000D02*
X120000000Y-39585787D01*
X120000000Y-39585787D02*
X120000000Y-38450000D01*
X118900000Y-38450000D02*
X120000000Y-38450000D01*
X120000000Y-38450000D02*
X121300000Y-38450000D01*
X131000000Y-59500000D02*
X131000000Y-41000000D01*
X131000000Y-39585787D02*
X131000000Y-41000000D01*
X131000000Y-38800000D02*
X131000000Y-39585787D01*
X131350000Y-38450000D02*
X131000000Y-38800000D01*
X132100000Y-38450000D02*
X131350000Y-38450000D01*
G04 #@! TO.N,/12*
X111300000Y-59300000D02*
X111500000Y-59500000D01*
X111300000Y-56549020D02*
X111300000Y-59300000D01*
G04 #@! TO.N,/13*
X125500000Y-56549020D02*
X125500000Y-59499999D01*
G04 #@! TO.N,/Q0*
X58700000Y-49445000D02*
X58700000Y-50949999D01*
G04 #@! TO.N,/Q3*
X51925000Y-48175000D02*
X51200000Y-47450000D01*
X53300000Y-48175000D02*
X51925000Y-48175000D01*
G04 #@! TO.N,/RST*
X60445000Y-46905000D02*
X60450000Y-46900000D01*
X58700000Y-46905001D02*
X60445000Y-46905000D01*
G04 #@! TO.N,/Q4*
X49750000Y-46550000D02*
X48900000Y-46550000D01*
X50450000Y-45850000D02*
X49750000Y-46550000D01*
X52300000Y-45850000D02*
X50450000Y-45850000D01*
X53299999Y-45635000D02*
X52515000Y-45635000D01*
X52515000Y-45635000D02*
X52300000Y-45850000D01*
G04 #@! TO.N,/Q5*
X54215000Y-44365000D02*
X53300000Y-44365000D01*
X39000000Y-53400000D02*
X40574999Y-51825001D01*
X40574999Y-51825001D02*
X53088589Y-51825001D01*
X39000000Y-61000000D02*
X39000000Y-53400000D01*
X53088589Y-51825001D02*
X54650000Y-50263590D01*
X54650000Y-50263590D02*
X54650000Y-44800000D01*
X54650000Y-44800000D02*
X54215000Y-44365000D01*
G04 #@! TO.N,/Q6*
X50000000Y-46950000D02*
X50000000Y-50000000D01*
X51900000Y-46300000D02*
X50650000Y-46300000D01*
X50650000Y-46300000D02*
X50000000Y-46950000D01*
X53300000Y-46905000D02*
X52505000Y-46905000D01*
X52505000Y-46905000D02*
X51900000Y-46300000D01*
G04 #@! TO.N,/Q7*
X50000000Y-38999999D02*
X55300000Y-38999999D01*
X55300000Y-38999999D02*
X55900000Y-39599999D01*
X55900000Y-39599999D02*
X55900000Y-43100000D01*
X57165000Y-44365000D02*
X58700000Y-44365000D01*
X55900000Y-43100000D02*
X57165000Y-44365000D01*
G04 #@! TO.N,/Q8*
X61000000Y-58900000D02*
X61000000Y-61000000D01*
X61550000Y-58350000D02*
X61000000Y-58900000D01*
X57165000Y-45635000D02*
X56350000Y-46450000D01*
X58700000Y-45635000D02*
X57165000Y-45635000D01*
X56350000Y-46450000D02*
X56350000Y-50200000D01*
X60900000Y-52050000D02*
X61550000Y-52700000D01*
X56350000Y-50200000D02*
X58200000Y-52050000D01*
X61550000Y-52700000D02*
X61550000Y-58350000D01*
X58200000Y-52050000D02*
X60900000Y-52050000D01*
G04 #@! TO.N,/Q9*
X61550000Y-47650000D02*
X61000000Y-48200000D01*
X61000000Y-48200000D02*
X61000001Y-50000000D01*
X61550000Y-43750000D02*
X61550000Y-47650000D01*
X58700000Y-43095000D02*
X60895000Y-43095000D01*
X60895000Y-43095000D02*
X61550000Y-43750000D01*
G04 #@! TO.N,/Q10*
X61000000Y-41100000D02*
X61000000Y-39000000D01*
X60275000Y-41825000D02*
X61000000Y-41100000D01*
X58700000Y-41825000D02*
X60275000Y-41825000D01*
G04 #@! TO.N,/Q11*
X38999999Y-41900000D02*
X39000000Y-39000000D01*
X39700000Y-42600000D02*
X38999999Y-41900000D01*
X46055000Y-42600000D02*
X39700000Y-42600000D01*
X53300000Y-40555000D02*
X52145000Y-40554999D01*
X52145000Y-40554999D02*
X51800000Y-40900000D01*
X51800000Y-40900000D02*
X47755000Y-40900000D01*
X47755000Y-40900000D02*
X46055000Y-42600000D01*
G04 #@! TO.N,/Q12*
X39700000Y-43200000D02*
X39000000Y-43900000D01*
X39000000Y-43900000D02*
X38999999Y-50000000D01*
X46300000Y-43200000D02*
X39700000Y-43200000D01*
X53299999Y-41825000D02*
X52300001Y-41825000D01*
X52300001Y-41825000D02*
X51825011Y-41350011D01*
X51825011Y-41350011D02*
X48149989Y-41350011D01*
X48149989Y-41350011D02*
X46300000Y-43200000D01*
G04 #@! TO.N,/Q13*
X50000000Y-60500001D02*
X50000000Y-61000001D01*
X46200000Y-58500000D02*
X47450000Y-59750000D01*
X42400000Y-58500000D02*
X46200000Y-58500000D01*
X49249999Y-59750000D02*
X50000000Y-60500001D01*
X42000000Y-52750000D02*
X42000000Y-58100000D01*
X42474989Y-52275011D02*
X42000000Y-52750000D01*
X53274989Y-52275011D02*
X42474989Y-52275011D01*
X54300000Y-43095000D02*
X55100000Y-43895000D01*
X55100000Y-43895000D02*
X55100000Y-44613590D01*
X55100009Y-50449991D02*
X53274989Y-52275011D01*
X42000000Y-58100000D02*
X42400000Y-58500000D01*
X53300000Y-43095000D02*
X54300000Y-43095000D01*
X55100000Y-44613590D02*
X55100010Y-44613600D01*
X47450000Y-59750000D02*
X49249999Y-59750000D01*
X55100010Y-44613600D02*
X55100009Y-50449991D01*
G04 #@! TO.N,/OUT*
X57274998Y-48175001D02*
X57249998Y-48150000D01*
X58700000Y-48175000D02*
X57274998Y-48175001D01*
X54185000Y-55835000D02*
X55000000Y-56650000D01*
X53300000Y-55835000D02*
X54185000Y-55835000D01*
X43500000Y-57650000D02*
X43900000Y-58050000D01*
X55000000Y-57900000D02*
X55000000Y-56650000D01*
X47750000Y-58850000D02*
X54050000Y-58850000D01*
X43500000Y-56000000D02*
X43500000Y-57650000D01*
X43900000Y-58050000D02*
X46950000Y-58050000D01*
X46950000Y-58050000D02*
X47750000Y-58850000D01*
X54050000Y-58850000D02*
X55000000Y-57900000D01*
G04 #@! TO.N,Net-(D3-Pad1)*
X66899020Y-38450980D02*
X66900000Y-38450000D01*
X64700000Y-38450980D02*
X66899020Y-38450980D01*
G04 #@! TO.N,Net-(D6-Pad1)*
X75499020Y-38450000D02*
X75500000Y-38450980D01*
X73300000Y-38450000D02*
X75499020Y-38450000D01*
G04 #@! TO.N,Net-(D9-Pad1)*
X84100980Y-38450980D02*
X84100000Y-38450000D01*
X86300000Y-38450980D02*
X84100980Y-38450980D01*
G04 #@! TO.N,Net-(D12-Pad1)*
X91899020Y-38450980D02*
X91900000Y-38450000D01*
X89700000Y-38450980D02*
X91899020Y-38450980D01*
G04 #@! TO.N,Net-(D15-Pad1)*
X100499020Y-38450000D02*
X100500000Y-38450980D01*
X98300000Y-38450000D02*
X100499020Y-38450000D01*
G04 #@! TO.N,Net-(D18-Pad1)*
X109100980Y-38450980D02*
X109100000Y-38450000D01*
X111300000Y-38450980D02*
X109100980Y-38450980D01*
G04 #@! TO.N,Net-(D21-Pad1)*
X116899020Y-38450980D02*
X116900000Y-38450000D01*
X114700000Y-38450980D02*
X116899020Y-38450980D01*
G04 #@! TO.N,Net-(D24-Pad1)*
X125499020Y-38450000D02*
X125500000Y-38450980D01*
X123300000Y-38450000D02*
X125499020Y-38450000D01*
G04 #@! TO.N,Net-(D27-Pad1)*
X136299020Y-38450000D02*
X136300000Y-38450980D01*
X134100000Y-38450000D02*
X136299020Y-38450000D01*
G04 #@! TD*
M02*
