M48
METRIC,TZ
T1C0.400
T2C1.016
T3C2.200
%
G90
G05
T1
X039000Y-050000
X039000Y-039000
X039000Y-061000
X044500Y-039000
X044500Y-050000
X044500Y-061000
X046000Y-057150
X050000Y-039000
X050000Y-050000
X050000Y-061000
X051900Y-053300
X053300Y-050500
X055000Y-056650
X055600Y-059600
X057000Y-040550
X057050Y-053300
X057250Y-048150
X061000Y-039000
X061000Y-061000
X061000Y-050000
X064500Y-059500
X075500Y-059500
X081000Y-059500
X086500Y-059500
X089500Y-059500
X100500Y-059500
X106000Y-059500
X111500Y-059500
X114500Y-059500
X125500Y-059500
X131000Y-059500
X136500Y-059500
T2
X070000Y-041000
X095000Y-041000
X131000Y-041000
X081000Y-041000
X120000Y-041000
X106000Y-041000
T3
X050000Y-043650
X050000Y-056350
T0
M30
