M48
METRIC,TZ
T1C0.400
T2C1.016
T3C2.200
T4C1.000
%
G90
G05
T1
X39.Y-50.
X39.Y-39.
X39.Y-61.
X44.5Y-39.
X44.5Y-50.
X44.5Y-61.
X46.Y-57.15
X50.Y-39.
X50.Y-50.
X50.Y-61.
X51.9Y-53.3
X53.3Y-50.5
X55.Y-56.65
X55.6Y-59.6
X57.Y-40.55
X57.05Y-53.3
X57.25Y-48.15
X61.Y-39.
X61.Y-61.
X61.Y-50.
X64.5Y-59.5
X64.75Y-42.
X64.75Y-50.
X66.25Y-42.
X66.25Y-44.5
X75.5Y-53.
X75.5Y-59.5
X77.75Y-53.
X81.Y-59.5
X86.25Y-45.05
X86.5Y-59.5
X89.5Y-59.5
X91.25Y-45.
X92.75Y-45.
X99.Y-40.5
X100.5Y-42.
X100.5Y-59.5
X106.Y-59.5
X111.25Y-42.
X111.25Y-53.
X111.5Y-59.5
X114.5Y-59.5
X122.Y-43.6
X122.05Y-47.9
X125.5Y-59.5
X129.15Y-51.1
X129.15Y-54.45
X131.Y-59.5
X134.15Y-44.9
X136.25Y-44.9
X136.5Y-59.5
T2
X81.Y-41.
X70.Y-41.
X131.Y-41.
X120.Y-41.
X95.Y-41.
X106.Y-41.
T3
X50.Y-43.65
X50.Y-56.35
T4
X63.Y-43.
X113.Y-43.
X88.Y-49.
X113.Y-55.
X63.Y-57.
X113.Y-49.
X88.Y-43.
X63.Y-51.
X88.Y-57.
X63.Y-39.
X63.Y-47.
X113.Y-53.
X113.Y-47.
X113.Y-45.
X88.Y-41.
X88.Y-45.
X113.Y-51.
X63.Y-45.
X88.Y-53.
X63.Y-49.
X88.Y-47.
X113.Y-57.
X88.Y-51.
X113.Y-39.
X63.Y-55.
X113.Y-41.
X88.Y-39.
X63.Y-41.
X63.Y-53.
X88.Y-55.
T0
M30
