G04 #@! TF.GenerationSoftware,KiCad,Pcbnew,5.0.0-fee4fd1~66~ubuntu16.04.1*
G04 #@! TF.CreationDate,2018-08-12T22:05:46+05:30*
G04 #@! TF.ProjectId,1sqinch555,317371696E63683535352E6B69636164,rev?*
G04 #@! TF.SameCoordinates,Original*
G04 #@! TF.FileFunction,Soldermask,Bot*
G04 #@! TF.FilePolarity,Negative*
%FSLAX46Y46*%
G04 Gerber Fmt 4.6, Leading zero omitted, Abs format (unit mm)*
G04 Created by KiCad (PCBNEW 5.0.0-fee4fd1~66~ubuntu16.04.1) date Sun Aug 12 22:05:46 2018*
%MOMM*%
%LPD*%
G01*
G04 APERTURE LIST*
%ADD10C,0.900000*%
%ADD11C,4.200000*%
%ADD12R,2.400000X2.400000*%
%ADD13C,2.400000*%
%ADD14C,0.254000*%
G04 APERTURE END LIST*
D10*
G04 #@! TO.C,mouse-bite-2.5mm-slot*
X117850000Y-52050000D03*
X117850000Y-53450000D03*
X115650000Y-53450000D03*
X115650000Y-52050000D03*
X117850000Y-52750000D03*
X115650000Y-52750000D03*
G04 #@! TD*
G04 #@! TO.C,mouse-bite-2.5mm-slot*
X115650000Y-42250000D03*
X117850000Y-42250000D03*
X115650000Y-41550000D03*
X115650000Y-42950000D03*
X117850000Y-42950000D03*
X117850000Y-41550000D03*
G04 #@! TD*
G04 #@! TO.C,mouse-bite-2.5mm-slot*
X89150000Y-52750000D03*
X91350000Y-52750000D03*
X89150000Y-52050000D03*
X89150000Y-53450000D03*
X91350000Y-53450000D03*
X91350000Y-52050000D03*
G04 #@! TD*
G04 #@! TO.C,mouse-bite-2.5mm-slot*
X91350000Y-41550000D03*
X91350000Y-42950000D03*
X89150000Y-42950000D03*
X89150000Y-41550000D03*
X91350000Y-42250000D03*
X89150000Y-42250000D03*
G04 #@! TD*
G04 #@! TO.C,mouse-bite-2.5mm-slot*
X62650000Y-42250000D03*
X64850000Y-42250000D03*
X62650000Y-41550000D03*
X62650000Y-42950000D03*
X64850000Y-42950000D03*
X64850000Y-41550000D03*
G04 #@! TD*
D11*
G04 #@! TO.C,BT1*
X50000000Y-43650000D03*
X50000000Y-56350000D03*
G04 #@! TD*
D12*
G04 #@! TO.C,J7*
X66000000Y-59500000D03*
G04 #@! TD*
G04 #@! TO.C,J9*
X77000000Y-59499999D03*
G04 #@! TD*
G04 #@! TO.C,J11*
X88000000Y-59500000D03*
G04 #@! TD*
G04 #@! TO.C,J13*
X92500000Y-59500000D03*
G04 #@! TD*
G04 #@! TO.C,J15*
X103500000Y-59499999D03*
G04 #@! TD*
G04 #@! TO.C,J17*
X114500000Y-59500000D03*
G04 #@! TD*
G04 #@! TO.C,J19*
X119000000Y-59500000D03*
G04 #@! TD*
G04 #@! TO.C,J21*
X130000000Y-59499999D03*
G04 #@! TD*
G04 #@! TO.C,J23*
X141000000Y-59500000D03*
G04 #@! TD*
G04 #@! TO.C,J25*
X82500000Y-59500000D03*
G04 #@! TD*
G04 #@! TO.C,J27*
X109000000Y-59500000D03*
G04 #@! TD*
G04 #@! TO.C,J29*
X135500000Y-59500000D03*
G04 #@! TD*
D13*
G04 #@! TO.C,J30*
X71500000Y-39500000D03*
G04 #@! TD*
G04 #@! TO.C,J31*
X82500000Y-39500000D03*
G04 #@! TD*
G04 #@! TO.C,J32*
X98000000Y-39500000D03*
G04 #@! TD*
G04 #@! TO.C,J33*
X109000000Y-39500000D03*
G04 #@! TD*
G04 #@! TO.C,J34*
X135500000Y-39500000D03*
G04 #@! TD*
G04 #@! TO.C,J35*
X124500000Y-39500000D03*
G04 #@! TD*
D10*
G04 #@! TO.C,mouse-bite-2.5mm-slot*
X64850000Y-52050000D03*
X64850000Y-53450000D03*
X62650000Y-53450000D03*
X62650000Y-52050000D03*
X64850000Y-52750000D03*
X62650000Y-52750000D03*
G04 #@! TD*
D14*
G36*
X115873000Y-62373000D02*
X91127000Y-62373000D01*
X91127000Y-37127000D01*
X115873000Y-37127000D01*
X115873000Y-62373000D01*
X115873000Y-62373000D01*
G37*
X115873000Y-62373000D02*
X91127000Y-62373000D01*
X91127000Y-37127000D01*
X115873000Y-37127000D01*
X115873000Y-62373000D01*
G36*
X142373000Y-62373000D02*
X117627000Y-62373000D01*
X117627000Y-37127000D01*
X142373000Y-37127000D01*
X142373000Y-62373000D01*
X142373000Y-62373000D01*
G37*
X142373000Y-62373000D02*
X117627000Y-62373000D01*
X117627000Y-37127000D01*
X142373000Y-37127000D01*
X142373000Y-62373000D01*
G36*
X89373000Y-62373000D02*
X64627000Y-62373000D01*
X64627000Y-37127000D01*
X89373000Y-37127000D01*
X89373000Y-62373000D01*
X89373000Y-62373000D01*
G37*
X89373000Y-62373000D02*
X64627000Y-62373000D01*
X64627000Y-37127000D01*
X89373000Y-37127000D01*
X89373000Y-62373000D01*
M02*
