G04 #@! TF.GenerationSoftware,KiCad,Pcbnew,5.0.0-fee4fd1~66~ubuntu16.04.1*
G04 #@! TF.CreationDate,2018-08-13T22:09:16+05:30*
G04 #@! TF.ProjectId,1sqinch555,317371696E63683535352E6B69636164,rev?*
G04 #@! TF.SameCoordinates,Original*
G04 #@! TF.FileFunction,Soldermask,Top*
G04 #@! TF.FilePolarity,Negative*
%FSLAX46Y46*%
G04 Gerber Fmt 4.6, Leading zero omitted, Abs format (unit mm)*
G04 Created by KiCad (PCBNEW 5.0.0-fee4fd1~66~ubuntu16.04.1) date Mon Aug 13 22:09:16 2018*
%MOMM*%
%LPD*%
G01*
G04 APERTURE LIST*
%ADD10R,2.400000X3.400000*%
%ADD11C,0.900000*%
%ADD12C,4.200000*%
%ADD13R,1.200000X1.000000*%
%ADD14R,1.150000X1.200000*%
%ADD15R,2.400000X2.400000*%
%ADD16R,1.300000X0.900000*%
%ADD17R,1.950000X1.000000*%
%ADD18R,1.900000X1.000000*%
%ADD19C,2.400000*%
%ADD20C,1.400000*%
%ADD21R,0.900000X1.300000*%
%ADD22C,0.254000*%
G04 APERTURE END LIST*
D10*
G04 #@! TO.C,J6*
X39000000Y-61000000D03*
G04 #@! TD*
G04 #@! TO.C,J8*
X50000000Y-50000000D03*
G04 #@! TD*
G04 #@! TO.C,J10*
X50000000Y-38999999D03*
G04 #@! TD*
G04 #@! TO.C,J12*
X61000000Y-61000000D03*
G04 #@! TD*
G04 #@! TO.C,J14*
X61000001Y-50000000D03*
G04 #@! TD*
G04 #@! TO.C,J16*
X61000000Y-39000000D03*
G04 #@! TD*
G04 #@! TO.C,J18*
X39000000Y-39000000D03*
G04 #@! TD*
G04 #@! TO.C,J20*
X38999999Y-50000000D03*
G04 #@! TD*
G04 #@! TO.C,J22*
X50000000Y-61000001D03*
G04 #@! TD*
G04 #@! TO.C,J24*
X44500000Y-50000000D03*
G04 #@! TD*
G04 #@! TO.C,J26*
X44500000Y-39000000D03*
G04 #@! TD*
G04 #@! TO.C,J28*
X44500000Y-61000000D03*
G04 #@! TD*
D11*
G04 #@! TO.C,mouse-bite-2.5mm-slot*
X117750000Y-52050000D03*
X117750000Y-53450000D03*
X115750000Y-53450000D03*
X115750000Y-52050000D03*
X117750000Y-52750000D03*
X115750000Y-52750000D03*
G04 #@! TD*
G04 #@! TO.C,mouse-bite-2.5mm-slot*
X117750000Y-41550000D03*
X117750000Y-42950000D03*
X115750000Y-42950000D03*
X115750000Y-41550000D03*
X117750000Y-42250000D03*
X115750000Y-42250000D03*
G04 #@! TD*
G04 #@! TO.C,mouse-bite-2.5mm-slot*
X91250000Y-52050000D03*
X91250000Y-53450000D03*
X89250000Y-53450000D03*
X89250000Y-52050000D03*
X91250000Y-52750000D03*
X89250000Y-52750000D03*
G04 #@! TD*
G04 #@! TO.C,mouse-bite-2.5mm-slot*
X91250000Y-41550000D03*
X91250000Y-42950000D03*
X89250000Y-42950000D03*
X89250000Y-41550000D03*
X91250000Y-42250000D03*
X89250000Y-42250000D03*
G04 #@! TD*
G04 #@! TO.C,mouse-bite-2.5mm-slot*
X64750000Y-41550000D03*
X64750000Y-42950000D03*
X62750000Y-42950000D03*
X62750000Y-41550000D03*
X64750000Y-42250000D03*
X62750000Y-42250000D03*
G04 #@! TD*
G04 #@! TO.C,mouse-bite-2.5mm-slot*
X64750000Y-52050000D03*
X64750000Y-53450000D03*
X62750000Y-53450000D03*
X62750000Y-52050000D03*
X64750000Y-52750000D03*
X62750000Y-52750000D03*
G04 #@! TD*
D12*
G04 #@! TO.C,BT1*
X50000000Y-43650000D03*
X50000000Y-56350000D03*
G04 #@! TD*
D13*
G04 #@! TO.C,D1*
X66000000Y-56350000D03*
X66000000Y-54650000D03*
G04 #@! TD*
G04 #@! TO.C,D2*
X65999999Y-48350000D03*
X65999999Y-46650000D03*
G04 #@! TD*
G04 #@! TO.C,D3*
X66000000Y-40350000D03*
X66000000Y-38650000D03*
G04 #@! TD*
G04 #@! TO.C,D4*
X77000000Y-56350000D03*
X77000000Y-54650000D03*
G04 #@! TD*
G04 #@! TO.C,D5*
X77000000Y-48350000D03*
X77000000Y-46650000D03*
G04 #@! TD*
G04 #@! TO.C,D6*
X77000000Y-40350000D03*
X77000000Y-38650000D03*
G04 #@! TD*
G04 #@! TO.C,D7*
X88000000Y-56350000D03*
X88000000Y-54650000D03*
G04 #@! TD*
G04 #@! TO.C,D8*
X88000001Y-48350000D03*
X88000001Y-46650000D03*
G04 #@! TD*
G04 #@! TO.C,D9*
X88000000Y-40350000D03*
X88000000Y-38650000D03*
G04 #@! TD*
G04 #@! TO.C,D10*
X92500000Y-56350000D03*
X92500000Y-54650000D03*
G04 #@! TD*
G04 #@! TO.C,D11*
X92499999Y-48350000D03*
X92499999Y-46650000D03*
G04 #@! TD*
G04 #@! TO.C,D12*
X92500000Y-40350000D03*
X92500000Y-38650000D03*
G04 #@! TD*
G04 #@! TO.C,D13*
X103500000Y-56350000D03*
X103500000Y-54650000D03*
G04 #@! TD*
G04 #@! TO.C,D14*
X103500000Y-48350000D03*
X103500000Y-46650000D03*
G04 #@! TD*
G04 #@! TO.C,D15*
X103500000Y-40350000D03*
X103500000Y-38650000D03*
G04 #@! TD*
G04 #@! TO.C,D16*
X114500000Y-56350000D03*
X114500000Y-54650000D03*
G04 #@! TD*
G04 #@! TO.C,D17*
X114500001Y-48350000D03*
X114500001Y-46650000D03*
G04 #@! TD*
G04 #@! TO.C,D18*
X114500000Y-40350000D03*
X114500000Y-38650000D03*
G04 #@! TD*
G04 #@! TO.C,D19*
X119000000Y-56350000D03*
X119000000Y-54650000D03*
G04 #@! TD*
G04 #@! TO.C,D20*
X118999999Y-48350000D03*
X118999999Y-46650000D03*
G04 #@! TD*
G04 #@! TO.C,D21*
X119000000Y-40350000D03*
X119000000Y-38650000D03*
G04 #@! TD*
G04 #@! TO.C,D22*
X130000000Y-56350000D03*
X130000000Y-54650000D03*
G04 #@! TD*
G04 #@! TO.C,D23*
X130000000Y-48350000D03*
X130000000Y-46650000D03*
G04 #@! TD*
G04 #@! TO.C,D24*
X130000000Y-40350000D03*
X130000000Y-38650000D03*
G04 #@! TD*
G04 #@! TO.C,D25*
X141000000Y-56350000D03*
X141000000Y-54650000D03*
G04 #@! TD*
G04 #@! TO.C,D26*
X141000001Y-48350000D03*
X141000001Y-46650000D03*
G04 #@! TD*
G04 #@! TO.C,D27*
X141000000Y-40350000D03*
X141000000Y-38650000D03*
G04 #@! TD*
D14*
G04 #@! TO.C,C1*
X56000000Y-61250000D03*
X56000000Y-59750000D03*
G04 #@! TD*
G04 #@! TO.C,C2*
X58000000Y-61250000D03*
X58000000Y-59750000D03*
G04 #@! TD*
D15*
G04 #@! TO.C,J7*
X66000000Y-59500000D03*
G04 #@! TD*
G04 #@! TO.C,J9*
X77000000Y-59499999D03*
G04 #@! TD*
G04 #@! TO.C,J11*
X88000000Y-59500000D03*
G04 #@! TD*
G04 #@! TO.C,J13*
X92500000Y-59500000D03*
G04 #@! TD*
G04 #@! TO.C,J15*
X103500000Y-59499999D03*
G04 #@! TD*
G04 #@! TO.C,J17*
X114500000Y-59500000D03*
G04 #@! TD*
G04 #@! TO.C,J19*
X119000000Y-59500000D03*
G04 #@! TD*
G04 #@! TO.C,J21*
X130000000Y-59499999D03*
G04 #@! TD*
G04 #@! TO.C,J23*
X141000000Y-59500000D03*
G04 #@! TD*
G04 #@! TO.C,J25*
X82500000Y-59500000D03*
G04 #@! TD*
G04 #@! TO.C,J27*
X109000000Y-59500000D03*
G04 #@! TD*
G04 #@! TO.C,J29*
X135500000Y-59500000D03*
G04 #@! TD*
D16*
G04 #@! TO.C,R1*
X53500000Y-59750000D03*
X53500000Y-61250000D03*
G04 #@! TD*
D17*
G04 #@! TO.C,U1*
X53300000Y-54095000D03*
X53300000Y-55365000D03*
X53300000Y-56635000D03*
X53300000Y-57905000D03*
X58700000Y-57905000D03*
X58700000Y-56635000D03*
X58700000Y-55365000D03*
X58700000Y-54095000D03*
G04 #@! TD*
D18*
G04 #@! TO.C,U2*
X53300000Y-40555000D03*
X53300000Y-41825000D03*
X53300000Y-43095000D03*
X53300000Y-44365000D03*
X53300000Y-45635000D03*
X53300000Y-46905000D03*
X53300000Y-48175000D03*
X53300000Y-49445000D03*
X58700000Y-49445000D03*
X58700000Y-48175000D03*
X58700000Y-46905000D03*
X58700000Y-45635000D03*
X58700000Y-44365000D03*
X58700000Y-43095000D03*
X58700000Y-41825000D03*
X58700000Y-40555000D03*
G04 #@! TD*
D19*
G04 #@! TO.C,J30*
X71500000Y-39500000D03*
G04 #@! TD*
G04 #@! TO.C,J31*
X82500000Y-39500000D03*
G04 #@! TD*
G04 #@! TO.C,J32*
X98000000Y-39500000D03*
G04 #@! TD*
G04 #@! TO.C,J33*
X109000000Y-39500000D03*
G04 #@! TD*
G04 #@! TO.C,J34*
X135500000Y-39500000D03*
G04 #@! TD*
G04 #@! TO.C,J35*
X124500000Y-39500000D03*
G04 #@! TD*
D20*
G04 #@! TO.C,J1*
X60600000Y-55350000D03*
G04 #@! TD*
G04 #@! TO.C,J2*
X58700000Y-50949999D03*
G04 #@! TD*
G04 #@! TO.C,J3*
X51650000Y-48150000D03*
G04 #@! TD*
G04 #@! TO.C,J4*
X60450000Y-46900000D03*
G04 #@! TD*
G04 #@! TO.C,J5*
X48900000Y-46550000D03*
G04 #@! TD*
D21*
G04 #@! TO.C,R2*
X69450000Y-38500000D03*
X67950000Y-38500000D03*
G04 #@! TD*
G04 #@! TO.C,R3*
X75050000Y-38500000D03*
X73550000Y-38500000D03*
G04 #@! TD*
G04 #@! TO.C,R4*
X86050000Y-38500000D03*
X84550000Y-38500000D03*
G04 #@! TD*
G04 #@! TO.C,R5*
X95950000Y-38500000D03*
X94450000Y-38500000D03*
G04 #@! TD*
G04 #@! TO.C,R6*
X100050000Y-38500000D03*
X101550000Y-38500000D03*
G04 #@! TD*
G04 #@! TO.C,R7*
X112550000Y-38500000D03*
X111050000Y-38500000D03*
G04 #@! TD*
G04 #@! TO.C,R8*
X122450000Y-38500000D03*
X120950000Y-38500000D03*
G04 #@! TD*
G04 #@! TO.C,R9*
X128050000Y-38500000D03*
X126550000Y-38500000D03*
G04 #@! TD*
G04 #@! TO.C,R10*
X139050000Y-38500000D03*
X137550000Y-38500000D03*
G04 #@! TD*
D22*
G36*
X129573000Y-62473000D02*
X119427000Y-62473000D01*
X119426999Y-38877000D01*
X129573000Y-38877000D01*
X129573000Y-62473000D01*
X129573000Y-62473000D01*
G37*
X129573000Y-62473000D02*
X119427000Y-62473000D01*
X119426999Y-38877000D01*
X129573000Y-38877000D01*
X129573000Y-62473000D01*
G36*
X140573000Y-62473000D02*
X135927000Y-62473000D01*
X135927000Y-38877000D01*
X140573000Y-38877000D01*
X140573000Y-62473000D01*
X140573000Y-62473000D01*
G37*
X140573000Y-62473000D02*
X135927000Y-62473000D01*
X135927000Y-38877000D01*
X140573000Y-38877000D01*
X140573000Y-62473000D01*
G36*
X135172477Y-38377000D02*
X135073520Y-62473000D01*
X130427524Y-62473000D01*
X130526480Y-38376999D01*
X135172477Y-38377000D01*
X135172477Y-38377000D01*
G37*
X135172477Y-38377000D02*
X135073520Y-62473000D01*
X130427524Y-62473000D01*
X130526480Y-38376999D01*
X135172477Y-38377000D01*
G36*
X142073000Y-62473000D02*
X141427000Y-62472999D01*
X141427000Y-38250000D01*
X141417333Y-38201399D01*
X141389803Y-38160197D01*
X141348601Y-38132667D01*
X141300000Y-38123000D01*
X118700000Y-38123000D01*
X118651399Y-38132667D01*
X118610197Y-38160197D01*
X118582667Y-38201399D01*
X118573000Y-38250000D01*
X118573000Y-62473000D01*
X117927000Y-62473000D01*
X117927000Y-37527000D01*
X142073000Y-37527000D01*
X142073000Y-62473000D01*
X142073000Y-62473000D01*
G37*
X142073000Y-62473000D02*
X141427000Y-62472999D01*
X141427000Y-38250000D01*
X141417333Y-38201399D01*
X141389803Y-38160197D01*
X141348601Y-38132667D01*
X141300000Y-38123000D01*
X118700000Y-38123000D01*
X118651399Y-38132667D01*
X118610197Y-38160197D01*
X118582667Y-38201399D01*
X118573000Y-38250000D01*
X118573000Y-62473000D01*
X117927000Y-62473000D01*
X117927000Y-37527000D01*
X142073000Y-37527000D01*
X142073000Y-62473000D01*
G36*
X103073000Y-62473000D02*
X92927000Y-62473000D01*
X92926999Y-38877000D01*
X103073000Y-38877000D01*
X103073000Y-62473000D01*
X103073000Y-62473000D01*
G37*
X103073000Y-62473000D02*
X92927000Y-62473000D01*
X92926999Y-38877000D01*
X103073000Y-38877000D01*
X103073000Y-62473000D01*
G36*
X114073000Y-62473000D02*
X109427000Y-62473000D01*
X109427000Y-38877000D01*
X114073000Y-38877000D01*
X114073000Y-62473000D01*
X114073000Y-62473000D01*
G37*
X114073000Y-62473000D02*
X109427000Y-62473000D01*
X109427000Y-38877000D01*
X114073000Y-38877000D01*
X114073000Y-62473000D01*
G36*
X108672477Y-38377000D02*
X108573520Y-62473000D01*
X103927524Y-62473000D01*
X104026480Y-38376999D01*
X108672477Y-38377000D01*
X108672477Y-38377000D01*
G37*
X108672477Y-38377000D02*
X108573520Y-62473000D01*
X103927524Y-62473000D01*
X104026480Y-38376999D01*
X108672477Y-38377000D01*
G36*
X115573000Y-62473000D02*
X114927000Y-62472999D01*
X114927000Y-38250000D01*
X114917333Y-38201399D01*
X114889803Y-38160197D01*
X114848601Y-38132667D01*
X114800000Y-38123000D01*
X92200000Y-38123000D01*
X92151399Y-38132667D01*
X92110197Y-38160197D01*
X92082667Y-38201399D01*
X92073000Y-38250000D01*
X92073000Y-62473000D01*
X91427000Y-62473000D01*
X91427000Y-37527000D01*
X115573000Y-37527000D01*
X115573000Y-62473000D01*
X115573000Y-62473000D01*
G37*
X115573000Y-62473000D02*
X114927000Y-62472999D01*
X114927000Y-38250000D01*
X114917333Y-38201399D01*
X114889803Y-38160197D01*
X114848601Y-38132667D01*
X114800000Y-38123000D01*
X92200000Y-38123000D01*
X92151399Y-38132667D01*
X92110197Y-38160197D01*
X92082667Y-38201399D01*
X92073000Y-38250000D01*
X92073000Y-62473000D01*
X91427000Y-62473000D01*
X91427000Y-37527000D01*
X115573000Y-37527000D01*
X115573000Y-62473000D01*
G36*
X82172477Y-38377000D02*
X82073520Y-62473000D01*
X77427524Y-62473000D01*
X77526480Y-38376999D01*
X82172477Y-38377000D01*
X82172477Y-38377000D01*
G37*
X82172477Y-38377000D02*
X82073520Y-62473000D01*
X77427524Y-62473000D01*
X77526480Y-38376999D01*
X82172477Y-38377000D01*
G36*
X87573000Y-62473000D02*
X82927000Y-62473000D01*
X82927000Y-38877000D01*
X87573000Y-38877000D01*
X87573000Y-62473000D01*
X87573000Y-62473000D01*
G37*
X87573000Y-62473000D02*
X82927000Y-62473000D01*
X82927000Y-38877000D01*
X87573000Y-38877000D01*
X87573000Y-62473000D01*
G36*
X89073000Y-62473000D02*
X88427000Y-62472999D01*
X88427000Y-38250000D01*
X88417333Y-38201399D01*
X88389803Y-38160197D01*
X88348601Y-38132667D01*
X88300000Y-38123000D01*
X65700000Y-38123000D01*
X65651399Y-38132667D01*
X65610197Y-38160197D01*
X65582667Y-38201399D01*
X65573000Y-38250000D01*
X65573000Y-62473000D01*
X64927000Y-62473000D01*
X64927000Y-37527000D01*
X89073000Y-37527000D01*
X89073000Y-62473000D01*
X89073000Y-62473000D01*
G37*
X89073000Y-62473000D02*
X88427000Y-62472999D01*
X88427000Y-38250000D01*
X88417333Y-38201399D01*
X88389803Y-38160197D01*
X88348601Y-38132667D01*
X88300000Y-38123000D01*
X65700000Y-38123000D01*
X65651399Y-38132667D01*
X65610197Y-38160197D01*
X65582667Y-38201399D01*
X65573000Y-38250000D01*
X65573000Y-62473000D01*
X64927000Y-62473000D01*
X64927000Y-37527000D01*
X89073000Y-37527000D01*
X89073000Y-62473000D01*
G36*
X76573000Y-62473000D02*
X66427000Y-62473000D01*
X66426999Y-38877000D01*
X76573000Y-38877000D01*
X76573000Y-62473000D01*
X76573000Y-62473000D01*
G37*
X76573000Y-62473000D02*
X66427000Y-62473000D01*
X66426999Y-38877000D01*
X76573000Y-38877000D01*
X76573000Y-62473000D01*
M02*
