G04 #@! TF.GenerationSoftware,KiCad,Pcbnew,5.0.0-fee4fd1~66~ubuntu16.04.1*
G04 #@! TF.CreationDate,2018-08-12T23:06:18+05:30*
G04 #@! TF.ProjectId,1sqinch555,317371696E63683535352E6B69636164,rev?*
G04 #@! TF.SameCoordinates,Original*
G04 #@! TF.FileFunction,Copper,L2,Bot,Signal*
G04 #@! TF.FilePolarity,Positive*
%FSLAX46Y46*%
G04 Gerber Fmt 4.6, Leading zero omitted, Abs format (unit mm)*
G04 Created by KiCad (PCBNEW 5.0.0-fee4fd1~66~ubuntu16.04.1) date Sun Aug 12 23:06:18 2018*
%MOMM*%
%LPD*%
G01*
G04 APERTURE LIST*
G04 #@! TA.AperFunction,ComponentPad*
%ADD10C,3.800000*%
G04 #@! TD*
G04 #@! TA.AperFunction,SMDPad,CuDef*
%ADD11R,2.000000X2.000000*%
G04 #@! TD*
G04 #@! TA.AperFunction,ComponentPad*
%ADD12C,2.000000*%
G04 #@! TD*
G04 #@! TA.AperFunction,ViaPad*
%ADD13C,0.800000*%
G04 #@! TD*
G04 #@! TA.AperFunction,Conductor*
%ADD14C,0.250000*%
G04 #@! TD*
G04 APERTURE END LIST*
D10*
G04 #@! TO.P,BT1,2*
G04 #@! TO.N,/GND*
X50000000Y-43650000D03*
G04 #@! TO.P,BT1,1*
G04 #@! TO.N,/9V*
X50000000Y-56350000D03*
G04 #@! TD*
D11*
G04 #@! TO.P,J7,1*
G04 #@! TO.N,/10*
X66000000Y-59500000D03*
G04 #@! TD*
G04 #@! TO.P,J9,1*
G04 #@! TO.N,/7*
X77000000Y-59499999D03*
G04 #@! TD*
G04 #@! TO.P,J11,1*
G04 #@! TO.N,/11*
X88000000Y-59500000D03*
G04 #@! TD*
G04 #@! TO.P,J13,1*
G04 #@! TO.N,/9*
X92500000Y-59500000D03*
G04 #@! TD*
G04 #@! TO.P,J15,1*
G04 #@! TO.N,/6*
X103500000Y-59499999D03*
G04 #@! TD*
G04 #@! TO.P,J17,1*
G04 #@! TO.N,/12*
X114500000Y-59500000D03*
G04 #@! TD*
G04 #@! TO.P,J19,1*
G04 #@! TO.N,/8*
X119000000Y-59500000D03*
G04 #@! TD*
G04 #@! TO.P,J21,1*
G04 #@! TO.N,/13*
X130000000Y-59499999D03*
G04 #@! TD*
G04 #@! TO.P,J23,1*
G04 #@! TO.N,/5*
X141000000Y-59500000D03*
G04 #@! TD*
G04 #@! TO.P,J25,1*
G04 #@! TO.N,/GND1*
X82500000Y-59500000D03*
G04 #@! TD*
G04 #@! TO.P,J27,1*
G04 #@! TO.N,/GND2*
X109000000Y-59500000D03*
G04 #@! TD*
G04 #@! TO.P,J29,1*
G04 #@! TO.N,/GND3*
X135500000Y-59500000D03*
G04 #@! TD*
D12*
G04 #@! TO.P,J30,1*
G04 #@! TO.N,/GND1*
X71500000Y-39500000D03*
G04 #@! TD*
G04 #@! TO.P,J31,1*
G04 #@! TO.N,/GND1*
X82500000Y-39500000D03*
G04 #@! TD*
G04 #@! TO.P,J32,1*
G04 #@! TO.N,/GND2*
X98000000Y-39500000D03*
G04 #@! TD*
G04 #@! TO.P,J33,1*
G04 #@! TO.N,/GND2*
X109000000Y-39500000D03*
G04 #@! TD*
G04 #@! TO.P,J34,1*
G04 #@! TO.N,/GND3*
X135500000Y-39500000D03*
G04 #@! TD*
G04 #@! TO.P,J35,1*
G04 #@! TO.N,/GND3*
X124500000Y-39500000D03*
G04 #@! TD*
D13*
G04 #@! TO.N,/9V*
X52000000Y-57905001D03*
X57000000Y-40550008D03*
X56999999Y-54099996D03*
G04 #@! TO.N,/GND*
X44500000Y-51900000D03*
X44500000Y-59200000D03*
X53300000Y-50500000D03*
X57000000Y-61250000D03*
X53299999Y-53025010D03*
X44500000Y-40900000D03*
G04 #@! TO.N,/5*
X141000000Y-57700000D03*
G04 #@! TO.N,/6*
X103500000Y-57700000D03*
G04 #@! TO.N,/7*
X77000000Y-57700000D03*
G04 #@! TO.N,/8*
X119000000Y-57700000D03*
G04 #@! TO.N,/9*
X92500000Y-57700000D03*
G04 #@! TO.N,/10*
X66000000Y-57700000D03*
G04 #@! TO.N,/11*
X88000000Y-57700000D03*
G04 #@! TO.N,/12*
X114500000Y-57700000D03*
G04 #@! TO.N,/13*
X130000000Y-57700000D03*
G04 #@! TO.N,/OUT*
X55000000Y-56650000D03*
X57249998Y-48150000D03*
G04 #@! TD*
D14*
G04 #@! TO.N,/9V*
X57000000Y-57250000D02*
X56999999Y-54099996D01*
X56345000Y-57905001D02*
X57000000Y-57250000D01*
X52000000Y-57905001D02*
X56345000Y-57905001D01*
X58025002Y-53074994D02*
X57399999Y-53699996D01*
X58025002Y-41575010D02*
X58025002Y-53074994D01*
X57399999Y-53699996D02*
X56999999Y-54099996D01*
X57000000Y-40550008D02*
X58025002Y-41575010D01*
G04 #@! TO.N,/GND*
X44899999Y-41299999D02*
X44500000Y-40900000D01*
X50000000Y-43650000D02*
X47250000Y-43650000D01*
X47250000Y-43650000D02*
X44899999Y-41299999D01*
G04 #@! TO.N,/5*
X141000000Y-59500000D02*
X141000000Y-57700000D01*
G04 #@! TO.N,/GND1*
X82500000Y-59500000D02*
X82500000Y-39500000D01*
G04 #@! TO.N,/6*
X103500000Y-59499999D02*
X103500000Y-57700000D01*
G04 #@! TO.N,/7*
X77000000Y-59499999D02*
X77000000Y-57700000D01*
G04 #@! TO.N,/8*
X119000000Y-59500000D02*
X119000000Y-57700000D01*
G04 #@! TO.N,/GND2*
X109000000Y-58250000D02*
X109000000Y-39500000D01*
X109000000Y-59500000D02*
X109000000Y-58250000D01*
G04 #@! TO.N,/9*
X92500000Y-59500000D02*
X92500000Y-57700000D01*
G04 #@! TO.N,/10*
X66000000Y-59500000D02*
X66000000Y-57700000D01*
G04 #@! TO.N,/11*
X88000000Y-59500000D02*
X88000000Y-57700000D01*
G04 #@! TO.N,/GND3*
X135500000Y-58250000D02*
X135500000Y-39500000D01*
X135500000Y-59500000D02*
X135500000Y-58250000D01*
G04 #@! TO.N,/12*
X114500000Y-59500000D02*
X114500000Y-57700000D01*
G04 #@! TO.N,/13*
X130000000Y-59499999D02*
X130000000Y-57700000D01*
G04 #@! TO.N,/OUT*
X56000000Y-55650000D02*
X55000000Y-56650000D01*
X56000000Y-53300000D02*
X56000000Y-55650000D01*
X57249998Y-52050002D02*
X56000000Y-53300000D01*
X57249998Y-48150000D02*
X57249998Y-52050002D01*
G04 #@! TD*
G04 #@! TO.N,/GND*
G36*
X39999659Y-38318838D02*
X39999654Y-38318843D01*
X39898867Y-38562167D01*
X39837971Y-38868312D01*
X39837971Y-39131684D01*
X39898867Y-39437831D01*
X39999654Y-39681155D01*
X39999658Y-39681159D01*
X40173073Y-39940694D01*
X40359304Y-40126926D01*
X40359309Y-40126928D01*
X40618844Y-40300344D01*
X40618845Y-40300345D01*
X40862169Y-40401132D01*
X41036624Y-40435833D01*
X41036628Y-40435836D01*
X41233519Y-40475000D01*
X42266481Y-40475000D01*
X42463372Y-40435836D01*
X42637832Y-40401134D01*
X42637833Y-40401134D01*
X42734143Y-40361241D01*
X42881156Y-40300347D01*
X42881159Y-40300344D01*
X43140696Y-40126928D01*
X43326928Y-39940697D01*
X43326930Y-39940693D01*
X43500344Y-39681161D01*
X43500346Y-39681159D01*
X43601134Y-39437835D01*
X43662031Y-39131688D01*
X43662032Y-38868316D01*
X43662030Y-38868311D01*
X43601135Y-38562169D01*
X43500348Y-38318845D01*
X43500347Y-38318844D01*
X43404234Y-38175000D01*
X45595768Y-38175000D01*
X45499655Y-38318841D01*
X45499655Y-38318842D01*
X45499653Y-38318844D01*
X45469111Y-38392580D01*
X45398866Y-38562164D01*
X45398866Y-38562168D01*
X45337970Y-38868313D01*
X45337970Y-39131685D01*
X45398866Y-39437831D01*
X45398866Y-39437836D01*
X45453622Y-39570026D01*
X45499653Y-39681156D01*
X45499654Y-39681157D01*
X45499655Y-39681159D01*
X45673074Y-39940696D01*
X45732669Y-40000291D01*
X45859303Y-40126926D01*
X46118841Y-40300345D01*
X46118843Y-40300346D01*
X46118844Y-40300347D01*
X46249151Y-40354322D01*
X46362164Y-40401133D01*
X46362166Y-40401133D01*
X46362168Y-40401134D01*
X46536628Y-40435836D01*
X46733519Y-40475000D01*
X47766481Y-40475000D01*
X47963372Y-40435836D01*
X48137832Y-40401134D01*
X48137836Y-40401134D01*
X48304825Y-40331964D01*
X48381156Y-40300347D01*
X48381157Y-40300346D01*
X48381159Y-40300345D01*
X48640696Y-40126926D01*
X48767331Y-40000291D01*
X48826926Y-39940697D01*
X49000345Y-39681159D01*
X49000346Y-39681157D01*
X49000347Y-39681156D01*
X49070188Y-39512543D01*
X49101133Y-39437836D01*
X49101133Y-39437834D01*
X49101134Y-39437832D01*
X49162029Y-39131689D01*
X49162030Y-39131687D01*
X49162030Y-38868315D01*
X49101134Y-38562168D01*
X49101133Y-38562166D01*
X49101133Y-38562164D01*
X49050016Y-38438756D01*
X49000347Y-38318844D01*
X49000345Y-38318842D01*
X49000345Y-38318841D01*
X48904233Y-38175000D01*
X61825000Y-38175000D01*
X61825001Y-40316481D01*
X61836527Y-40374429D01*
X61910638Y-40794731D01*
X61910638Y-40794737D01*
X61961150Y-40933518D01*
X61979268Y-40983295D01*
X61908211Y-41054352D01*
X61775000Y-41375952D01*
X61775000Y-41724048D01*
X61847882Y-41900000D01*
X61775000Y-42075952D01*
X61775000Y-42424048D01*
X61847882Y-42600000D01*
X61775000Y-42775952D01*
X61775000Y-43124048D01*
X61908211Y-43445648D01*
X61979268Y-43516705D01*
X61910638Y-43705263D01*
X61910638Y-43705269D01*
X61836534Y-44125536D01*
X61825000Y-44183520D01*
X61825001Y-50816481D01*
X61836527Y-50874429D01*
X61910638Y-51294731D01*
X61910638Y-51294737D01*
X61961993Y-51435834D01*
X61979268Y-51483295D01*
X61908211Y-51554352D01*
X61775000Y-51875952D01*
X61775000Y-52224048D01*
X61847882Y-52400000D01*
X61775000Y-52575952D01*
X61775000Y-52924048D01*
X61847882Y-53100000D01*
X61775000Y-53275952D01*
X61775000Y-53624048D01*
X61908211Y-53945648D01*
X61979268Y-54016705D01*
X61910638Y-54205263D01*
X61910638Y-54205269D01*
X61836534Y-54625536D01*
X61825000Y-54683520D01*
X61825001Y-61825000D01*
X48904233Y-61825000D01*
X49000343Y-61681161D01*
X49000345Y-61681159D01*
X49101133Y-61437835D01*
X49162030Y-61131688D01*
X49162031Y-60868316D01*
X49162029Y-60868311D01*
X49101134Y-60562169D01*
X49000347Y-60318845D01*
X49000346Y-60318844D01*
X48826928Y-60059306D01*
X48826928Y-60059305D01*
X48640696Y-59873073D01*
X48381161Y-59699657D01*
X48381159Y-59699655D01*
X48137835Y-59598867D01*
X47831688Y-59537970D01*
X47831686Y-59537970D01*
X47766481Y-59525000D01*
X46733519Y-59525000D01*
X46545374Y-59562424D01*
X46362168Y-59598866D01*
X46362166Y-59598867D01*
X46362164Y-59598867D01*
X46249151Y-59645678D01*
X46118844Y-59699653D01*
X46118843Y-59699654D01*
X46118841Y-59699655D01*
X45859303Y-59873074D01*
X45808843Y-59923535D01*
X45673074Y-60059304D01*
X45499655Y-60318841D01*
X45499655Y-60318842D01*
X45499653Y-60318844D01*
X45479162Y-60368315D01*
X45398866Y-60562164D01*
X45398866Y-60562168D01*
X45337970Y-60868313D01*
X45337970Y-61131685D01*
X45398866Y-61437832D01*
X45398866Y-61437836D01*
X45457829Y-61580183D01*
X45499653Y-61681156D01*
X45499654Y-61681157D01*
X45499655Y-61681159D01*
X45595768Y-61825000D01*
X43404234Y-61825000D01*
X43500344Y-61681161D01*
X43500346Y-61681159D01*
X43601134Y-61437835D01*
X43662031Y-61131688D01*
X43662032Y-60868316D01*
X43662030Y-60868311D01*
X43601135Y-60562169D01*
X43500348Y-60318845D01*
X43500347Y-60318844D01*
X43326929Y-60059306D01*
X43326929Y-60059305D01*
X43140697Y-59873073D01*
X42881162Y-59699657D01*
X42881160Y-59699655D01*
X42637836Y-59598867D01*
X42331689Y-59537970D01*
X42331686Y-59537970D01*
X42266481Y-59525000D01*
X41233519Y-59525000D01*
X41045374Y-59562424D01*
X40862168Y-59598866D01*
X40862165Y-59598866D01*
X40736923Y-59650744D01*
X40618844Y-59699653D01*
X40618842Y-59699655D01*
X40359305Y-59873072D01*
X40359304Y-59873073D01*
X40173072Y-60059304D01*
X39999655Y-60318842D01*
X39999652Y-60318845D01*
X39949983Y-60438758D01*
X39898865Y-60562167D01*
X39898865Y-60562169D01*
X39837969Y-60868314D01*
X39837969Y-61131686D01*
X39898865Y-61437832D01*
X39898865Y-61437835D01*
X39916078Y-61479390D01*
X39999652Y-61681157D01*
X39999654Y-61681159D01*
X40095765Y-61825000D01*
X38175000Y-61825000D01*
X38175000Y-55847746D01*
X47475000Y-55847746D01*
X47475000Y-56852254D01*
X47859408Y-57780298D01*
X48569702Y-58490592D01*
X49497746Y-58875000D01*
X50502254Y-58875000D01*
X51222213Y-58576783D01*
X51419384Y-58773954D01*
X51796115Y-58930001D01*
X52203885Y-58930001D01*
X52580616Y-58773954D01*
X52699569Y-58655001D01*
X56271134Y-58655001D01*
X56345000Y-58669694D01*
X56418865Y-58655001D01*
X56418866Y-58655001D01*
X56637635Y-58611485D01*
X56885720Y-58445721D01*
X56927565Y-58383095D01*
X57478100Y-57832560D01*
X57540720Y-57790719D01*
X57613411Y-57681928D01*
X57706484Y-57542635D01*
X57764693Y-57250000D01*
X57750000Y-57176134D01*
X57749998Y-54799566D01*
X57868952Y-54680612D01*
X58024999Y-54303881D01*
X58024999Y-54135655D01*
X58503098Y-53657558D01*
X58565722Y-53615714D01*
X58731486Y-53367629D01*
X58775002Y-53148860D01*
X58789695Y-53074995D01*
X58775002Y-53001129D01*
X58775002Y-41648876D01*
X58789695Y-41575010D01*
X58731486Y-41282374D01*
X58630665Y-41131485D01*
X58565722Y-41034290D01*
X58503099Y-40992447D01*
X58025000Y-40514349D01*
X58025000Y-40346123D01*
X57868953Y-39969392D01*
X57580616Y-39681055D01*
X57203885Y-39525008D01*
X56796115Y-39525008D01*
X56419384Y-39681055D01*
X56131047Y-39969392D01*
X55975000Y-40346123D01*
X55975000Y-40753893D01*
X56131047Y-41130624D01*
X56419384Y-41418961D01*
X56796115Y-41575008D01*
X56964341Y-41575008D01*
X57275002Y-41885670D01*
X57275002Y-47125000D01*
X57046113Y-47125000D01*
X56669382Y-47281047D01*
X56381045Y-47569384D01*
X56224998Y-47946115D01*
X56224998Y-48353885D01*
X56381045Y-48730616D01*
X56499998Y-48849569D01*
X56499999Y-51739340D01*
X55521906Y-52717435D01*
X55459280Y-52759280D01*
X55293516Y-53007366D01*
X55250843Y-53221897D01*
X55235307Y-53300000D01*
X55250000Y-53373865D01*
X55250001Y-55339339D01*
X54964341Y-55625000D01*
X54796115Y-55625000D01*
X54419384Y-55781047D01*
X54131047Y-56069384D01*
X53975000Y-56446115D01*
X53975000Y-56853885D01*
X54099726Y-57155001D01*
X52699569Y-57155001D01*
X52580616Y-57036048D01*
X52468164Y-56989469D01*
X52525000Y-56852254D01*
X52525000Y-55847746D01*
X52140592Y-54919702D01*
X51430298Y-54209408D01*
X50502254Y-53825000D01*
X49497746Y-53825000D01*
X48569702Y-54209408D01*
X47859408Y-54919702D01*
X47475000Y-55847746D01*
X38175000Y-55847746D01*
X38175000Y-49868314D01*
X39837971Y-49868314D01*
X39837971Y-50131685D01*
X39898867Y-50437832D01*
X39999654Y-50681156D01*
X39999659Y-50681161D01*
X40173073Y-50940695D01*
X40359304Y-51126927D01*
X40359309Y-51126929D01*
X40618844Y-51300345D01*
X40618845Y-51300346D01*
X40862169Y-51401133D01*
X41168315Y-51462029D01*
X41168319Y-51462029D01*
X41233519Y-51474998D01*
X42266481Y-51475000D01*
X42331686Y-51462030D01*
X42331688Y-51462030D01*
X42637835Y-51401133D01*
X42881159Y-51300345D01*
X42881161Y-51300343D01*
X43140696Y-51126927D01*
X43326928Y-50940695D01*
X43326929Y-50940692D01*
X43500347Y-50681155D01*
X43601134Y-50437831D01*
X43662030Y-50131686D01*
X43662031Y-50131684D01*
X43662031Y-49868314D01*
X45337970Y-49868314D01*
X45337970Y-50131685D01*
X45398866Y-50437831D01*
X45398866Y-50437836D01*
X45449984Y-50561243D01*
X45499653Y-50681156D01*
X45499654Y-50681157D01*
X45499655Y-50681159D01*
X45673074Y-50940696D01*
X45745749Y-51013371D01*
X45859303Y-51126926D01*
X46118841Y-51300345D01*
X46118843Y-51300346D01*
X46118844Y-51300347D01*
X46230795Y-51346718D01*
X46362164Y-51401133D01*
X46362166Y-51401133D01*
X46362168Y-51401134D01*
X46536628Y-51435836D01*
X46733519Y-51475000D01*
X47766481Y-51475000D01*
X47831686Y-51462030D01*
X47831687Y-51462030D01*
X48137834Y-51401133D01*
X48381158Y-51300345D01*
X48381160Y-51300343D01*
X48640695Y-51126927D01*
X48826927Y-50940695D01*
X48826928Y-50940692D01*
X49000346Y-50681155D01*
X49101133Y-50437831D01*
X49162029Y-50131686D01*
X49162030Y-50131684D01*
X49162029Y-49868312D01*
X49101132Y-49562165D01*
X49000344Y-49318841D01*
X49000342Y-49318839D01*
X48826926Y-49059304D01*
X48826926Y-49059303D01*
X48640694Y-48873072D01*
X48381157Y-48699656D01*
X48381154Y-48699653D01*
X48209098Y-48628386D01*
X48137831Y-48598866D01*
X48137830Y-48598866D01*
X47963373Y-48564165D01*
X47963372Y-48564164D01*
X47766481Y-48525000D01*
X46733519Y-48525000D01*
X46545374Y-48562424D01*
X46362168Y-48598866D01*
X46362166Y-48598867D01*
X46362164Y-48598867D01*
X46249151Y-48645678D01*
X46118844Y-48699653D01*
X46118843Y-48699654D01*
X46118841Y-48699655D01*
X45859303Y-48873074D01*
X45795750Y-48936628D01*
X45673074Y-49059304D01*
X45499655Y-49318841D01*
X45499655Y-49318842D01*
X45499653Y-49318844D01*
X45491731Y-49337970D01*
X45398866Y-49562164D01*
X45398866Y-49562168D01*
X45337971Y-49868312D01*
X45337970Y-49868314D01*
X43662031Y-49868314D01*
X43662030Y-49868312D01*
X43601133Y-49562165D01*
X43500345Y-49318841D01*
X43500343Y-49318839D01*
X43326927Y-49059304D01*
X43326927Y-49059303D01*
X43140695Y-48873072D01*
X42881158Y-48699656D01*
X42881155Y-48699653D01*
X42709099Y-48628386D01*
X42637832Y-48598866D01*
X42637831Y-48598866D01*
X42463372Y-48564164D01*
X42266481Y-48525000D01*
X41233519Y-48525002D01*
X41168319Y-48537971D01*
X41168315Y-48537971D01*
X40862169Y-48598867D01*
X40618845Y-48699654D01*
X40359309Y-48873071D01*
X40359304Y-48873073D01*
X40173073Y-49059305D01*
X39999659Y-49318839D01*
X39999654Y-49318844D01*
X39898867Y-49562168D01*
X39837972Y-49868312D01*
X39837971Y-49868314D01*
X38175000Y-49868314D01*
X38175000Y-45446041D01*
X48380736Y-45446041D01*
X48589678Y-45803806D01*
X49521258Y-46179564D01*
X50525722Y-46170220D01*
X51410322Y-45803806D01*
X51619264Y-45446041D01*
X50000000Y-43826777D01*
X48380736Y-45446041D01*
X38175000Y-45446041D01*
X38175000Y-43171258D01*
X47470436Y-43171258D01*
X47479780Y-44175722D01*
X47846194Y-45060322D01*
X48203959Y-45269264D01*
X49823223Y-43650000D01*
X50176777Y-43650000D01*
X51796041Y-45269264D01*
X52153806Y-45060322D01*
X52529564Y-44128742D01*
X52520220Y-43124278D01*
X52153806Y-42239678D01*
X51796041Y-42030736D01*
X50176777Y-43650000D01*
X49823223Y-43650000D01*
X48203959Y-42030736D01*
X47846194Y-42239678D01*
X47470436Y-43171258D01*
X38175000Y-43171258D01*
X38175000Y-41853959D01*
X48380736Y-41853959D01*
X50000000Y-43473223D01*
X51619264Y-41853959D01*
X51410322Y-41496194D01*
X50478742Y-41120436D01*
X49474278Y-41129780D01*
X48589678Y-41496194D01*
X48380736Y-41853959D01*
X38175000Y-41853959D01*
X38175000Y-38175000D01*
X40095768Y-38175000D01*
X39999659Y-38318838D01*
X39999659Y-38318838D01*
G37*
X39999659Y-38318838D02*
X39999654Y-38318843D01*
X39898867Y-38562167D01*
X39837971Y-38868312D01*
X39837971Y-39131684D01*
X39898867Y-39437831D01*
X39999654Y-39681155D01*
X39999658Y-39681159D01*
X40173073Y-39940694D01*
X40359304Y-40126926D01*
X40359309Y-40126928D01*
X40618844Y-40300344D01*
X40618845Y-40300345D01*
X40862169Y-40401132D01*
X41036624Y-40435833D01*
X41036628Y-40435836D01*
X41233519Y-40475000D01*
X42266481Y-40475000D01*
X42463372Y-40435836D01*
X42637832Y-40401134D01*
X42637833Y-40401134D01*
X42734143Y-40361241D01*
X42881156Y-40300347D01*
X42881159Y-40300344D01*
X43140696Y-40126928D01*
X43326928Y-39940697D01*
X43326930Y-39940693D01*
X43500344Y-39681161D01*
X43500346Y-39681159D01*
X43601134Y-39437835D01*
X43662031Y-39131688D01*
X43662032Y-38868316D01*
X43662030Y-38868311D01*
X43601135Y-38562169D01*
X43500348Y-38318845D01*
X43500347Y-38318844D01*
X43404234Y-38175000D01*
X45595768Y-38175000D01*
X45499655Y-38318841D01*
X45499655Y-38318842D01*
X45499653Y-38318844D01*
X45469111Y-38392580D01*
X45398866Y-38562164D01*
X45398866Y-38562168D01*
X45337970Y-38868313D01*
X45337970Y-39131685D01*
X45398866Y-39437831D01*
X45398866Y-39437836D01*
X45453622Y-39570026D01*
X45499653Y-39681156D01*
X45499654Y-39681157D01*
X45499655Y-39681159D01*
X45673074Y-39940696D01*
X45732669Y-40000291D01*
X45859303Y-40126926D01*
X46118841Y-40300345D01*
X46118843Y-40300346D01*
X46118844Y-40300347D01*
X46249151Y-40354322D01*
X46362164Y-40401133D01*
X46362166Y-40401133D01*
X46362168Y-40401134D01*
X46536628Y-40435836D01*
X46733519Y-40475000D01*
X47766481Y-40475000D01*
X47963372Y-40435836D01*
X48137832Y-40401134D01*
X48137836Y-40401134D01*
X48304825Y-40331964D01*
X48381156Y-40300347D01*
X48381157Y-40300346D01*
X48381159Y-40300345D01*
X48640696Y-40126926D01*
X48767331Y-40000291D01*
X48826926Y-39940697D01*
X49000345Y-39681159D01*
X49000346Y-39681157D01*
X49000347Y-39681156D01*
X49070188Y-39512543D01*
X49101133Y-39437836D01*
X49101133Y-39437834D01*
X49101134Y-39437832D01*
X49162029Y-39131689D01*
X49162030Y-39131687D01*
X49162030Y-38868315D01*
X49101134Y-38562168D01*
X49101133Y-38562166D01*
X49101133Y-38562164D01*
X49050016Y-38438756D01*
X49000347Y-38318844D01*
X49000345Y-38318842D01*
X49000345Y-38318841D01*
X48904233Y-38175000D01*
X61825000Y-38175000D01*
X61825001Y-40316481D01*
X61836527Y-40374429D01*
X61910638Y-40794731D01*
X61910638Y-40794737D01*
X61961150Y-40933518D01*
X61979268Y-40983295D01*
X61908211Y-41054352D01*
X61775000Y-41375952D01*
X61775000Y-41724048D01*
X61847882Y-41900000D01*
X61775000Y-42075952D01*
X61775000Y-42424048D01*
X61847882Y-42600000D01*
X61775000Y-42775952D01*
X61775000Y-43124048D01*
X61908211Y-43445648D01*
X61979268Y-43516705D01*
X61910638Y-43705263D01*
X61910638Y-43705269D01*
X61836534Y-44125536D01*
X61825000Y-44183520D01*
X61825001Y-50816481D01*
X61836527Y-50874429D01*
X61910638Y-51294731D01*
X61910638Y-51294737D01*
X61961993Y-51435834D01*
X61979268Y-51483295D01*
X61908211Y-51554352D01*
X61775000Y-51875952D01*
X61775000Y-52224048D01*
X61847882Y-52400000D01*
X61775000Y-52575952D01*
X61775000Y-52924048D01*
X61847882Y-53100000D01*
X61775000Y-53275952D01*
X61775000Y-53624048D01*
X61908211Y-53945648D01*
X61979268Y-54016705D01*
X61910638Y-54205263D01*
X61910638Y-54205269D01*
X61836534Y-54625536D01*
X61825000Y-54683520D01*
X61825001Y-61825000D01*
X48904233Y-61825000D01*
X49000343Y-61681161D01*
X49000345Y-61681159D01*
X49101133Y-61437835D01*
X49162030Y-61131688D01*
X49162031Y-60868316D01*
X49162029Y-60868311D01*
X49101134Y-60562169D01*
X49000347Y-60318845D01*
X49000346Y-60318844D01*
X48826928Y-60059306D01*
X48826928Y-60059305D01*
X48640696Y-59873073D01*
X48381161Y-59699657D01*
X48381159Y-59699655D01*
X48137835Y-59598867D01*
X47831688Y-59537970D01*
X47831686Y-59537970D01*
X47766481Y-59525000D01*
X46733519Y-59525000D01*
X46545374Y-59562424D01*
X46362168Y-59598866D01*
X46362166Y-59598867D01*
X46362164Y-59598867D01*
X46249151Y-59645678D01*
X46118844Y-59699653D01*
X46118843Y-59699654D01*
X46118841Y-59699655D01*
X45859303Y-59873074D01*
X45808843Y-59923535D01*
X45673074Y-60059304D01*
X45499655Y-60318841D01*
X45499655Y-60318842D01*
X45499653Y-60318844D01*
X45479162Y-60368315D01*
X45398866Y-60562164D01*
X45398866Y-60562168D01*
X45337970Y-60868313D01*
X45337970Y-61131685D01*
X45398866Y-61437832D01*
X45398866Y-61437836D01*
X45457829Y-61580183D01*
X45499653Y-61681156D01*
X45499654Y-61681157D01*
X45499655Y-61681159D01*
X45595768Y-61825000D01*
X43404234Y-61825000D01*
X43500344Y-61681161D01*
X43500346Y-61681159D01*
X43601134Y-61437835D01*
X43662031Y-61131688D01*
X43662032Y-60868316D01*
X43662030Y-60868311D01*
X43601135Y-60562169D01*
X43500348Y-60318845D01*
X43500347Y-60318844D01*
X43326929Y-60059306D01*
X43326929Y-60059305D01*
X43140697Y-59873073D01*
X42881162Y-59699657D01*
X42881160Y-59699655D01*
X42637836Y-59598867D01*
X42331689Y-59537970D01*
X42331686Y-59537970D01*
X42266481Y-59525000D01*
X41233519Y-59525000D01*
X41045374Y-59562424D01*
X40862168Y-59598866D01*
X40862165Y-59598866D01*
X40736923Y-59650744D01*
X40618844Y-59699653D01*
X40618842Y-59699655D01*
X40359305Y-59873072D01*
X40359304Y-59873073D01*
X40173072Y-60059304D01*
X39999655Y-60318842D01*
X39999652Y-60318845D01*
X39949983Y-60438758D01*
X39898865Y-60562167D01*
X39898865Y-60562169D01*
X39837969Y-60868314D01*
X39837969Y-61131686D01*
X39898865Y-61437832D01*
X39898865Y-61437835D01*
X39916078Y-61479390D01*
X39999652Y-61681157D01*
X39999654Y-61681159D01*
X40095765Y-61825000D01*
X38175000Y-61825000D01*
X38175000Y-55847746D01*
X47475000Y-55847746D01*
X47475000Y-56852254D01*
X47859408Y-57780298D01*
X48569702Y-58490592D01*
X49497746Y-58875000D01*
X50502254Y-58875000D01*
X51222213Y-58576783D01*
X51419384Y-58773954D01*
X51796115Y-58930001D01*
X52203885Y-58930001D01*
X52580616Y-58773954D01*
X52699569Y-58655001D01*
X56271134Y-58655001D01*
X56345000Y-58669694D01*
X56418865Y-58655001D01*
X56418866Y-58655001D01*
X56637635Y-58611485D01*
X56885720Y-58445721D01*
X56927565Y-58383095D01*
X57478100Y-57832560D01*
X57540720Y-57790719D01*
X57613411Y-57681928D01*
X57706484Y-57542635D01*
X57764693Y-57250000D01*
X57750000Y-57176134D01*
X57749998Y-54799566D01*
X57868952Y-54680612D01*
X58024999Y-54303881D01*
X58024999Y-54135655D01*
X58503098Y-53657558D01*
X58565722Y-53615714D01*
X58731486Y-53367629D01*
X58775002Y-53148860D01*
X58789695Y-53074995D01*
X58775002Y-53001129D01*
X58775002Y-41648876D01*
X58789695Y-41575010D01*
X58731486Y-41282374D01*
X58630665Y-41131485D01*
X58565722Y-41034290D01*
X58503099Y-40992447D01*
X58025000Y-40514349D01*
X58025000Y-40346123D01*
X57868953Y-39969392D01*
X57580616Y-39681055D01*
X57203885Y-39525008D01*
X56796115Y-39525008D01*
X56419384Y-39681055D01*
X56131047Y-39969392D01*
X55975000Y-40346123D01*
X55975000Y-40753893D01*
X56131047Y-41130624D01*
X56419384Y-41418961D01*
X56796115Y-41575008D01*
X56964341Y-41575008D01*
X57275002Y-41885670D01*
X57275002Y-47125000D01*
X57046113Y-47125000D01*
X56669382Y-47281047D01*
X56381045Y-47569384D01*
X56224998Y-47946115D01*
X56224998Y-48353885D01*
X56381045Y-48730616D01*
X56499998Y-48849569D01*
X56499999Y-51739340D01*
X55521906Y-52717435D01*
X55459280Y-52759280D01*
X55293516Y-53007366D01*
X55250843Y-53221897D01*
X55235307Y-53300000D01*
X55250000Y-53373865D01*
X55250001Y-55339339D01*
X54964341Y-55625000D01*
X54796115Y-55625000D01*
X54419384Y-55781047D01*
X54131047Y-56069384D01*
X53975000Y-56446115D01*
X53975000Y-56853885D01*
X54099726Y-57155001D01*
X52699569Y-57155001D01*
X52580616Y-57036048D01*
X52468164Y-56989469D01*
X52525000Y-56852254D01*
X52525000Y-55847746D01*
X52140592Y-54919702D01*
X51430298Y-54209408D01*
X50502254Y-53825000D01*
X49497746Y-53825000D01*
X48569702Y-54209408D01*
X47859408Y-54919702D01*
X47475000Y-55847746D01*
X38175000Y-55847746D01*
X38175000Y-49868314D01*
X39837971Y-49868314D01*
X39837971Y-50131685D01*
X39898867Y-50437832D01*
X39999654Y-50681156D01*
X39999659Y-50681161D01*
X40173073Y-50940695D01*
X40359304Y-51126927D01*
X40359309Y-51126929D01*
X40618844Y-51300345D01*
X40618845Y-51300346D01*
X40862169Y-51401133D01*
X41168315Y-51462029D01*
X41168319Y-51462029D01*
X41233519Y-51474998D01*
X42266481Y-51475000D01*
X42331686Y-51462030D01*
X42331688Y-51462030D01*
X42637835Y-51401133D01*
X42881159Y-51300345D01*
X42881161Y-51300343D01*
X43140696Y-51126927D01*
X43326928Y-50940695D01*
X43326929Y-50940692D01*
X43500347Y-50681155D01*
X43601134Y-50437831D01*
X43662030Y-50131686D01*
X43662031Y-50131684D01*
X43662031Y-49868314D01*
X45337970Y-49868314D01*
X45337970Y-50131685D01*
X45398866Y-50437831D01*
X45398866Y-50437836D01*
X45449984Y-50561243D01*
X45499653Y-50681156D01*
X45499654Y-50681157D01*
X45499655Y-50681159D01*
X45673074Y-50940696D01*
X45745749Y-51013371D01*
X45859303Y-51126926D01*
X46118841Y-51300345D01*
X46118843Y-51300346D01*
X46118844Y-51300347D01*
X46230795Y-51346718D01*
X46362164Y-51401133D01*
X46362166Y-51401133D01*
X46362168Y-51401134D01*
X46536628Y-51435836D01*
X46733519Y-51475000D01*
X47766481Y-51475000D01*
X47831686Y-51462030D01*
X47831687Y-51462030D01*
X48137834Y-51401133D01*
X48381158Y-51300345D01*
X48381160Y-51300343D01*
X48640695Y-51126927D01*
X48826927Y-50940695D01*
X48826928Y-50940692D01*
X49000346Y-50681155D01*
X49101133Y-50437831D01*
X49162029Y-50131686D01*
X49162030Y-50131684D01*
X49162029Y-49868312D01*
X49101132Y-49562165D01*
X49000344Y-49318841D01*
X49000342Y-49318839D01*
X48826926Y-49059304D01*
X48826926Y-49059303D01*
X48640694Y-48873072D01*
X48381157Y-48699656D01*
X48381154Y-48699653D01*
X48209098Y-48628386D01*
X48137831Y-48598866D01*
X48137830Y-48598866D01*
X47963373Y-48564165D01*
X47963372Y-48564164D01*
X47766481Y-48525000D01*
X46733519Y-48525000D01*
X46545374Y-48562424D01*
X46362168Y-48598866D01*
X46362166Y-48598867D01*
X46362164Y-48598867D01*
X46249151Y-48645678D01*
X46118844Y-48699653D01*
X46118843Y-48699654D01*
X46118841Y-48699655D01*
X45859303Y-48873074D01*
X45795750Y-48936628D01*
X45673074Y-49059304D01*
X45499655Y-49318841D01*
X45499655Y-49318842D01*
X45499653Y-49318844D01*
X45491731Y-49337970D01*
X45398866Y-49562164D01*
X45398866Y-49562168D01*
X45337971Y-49868312D01*
X45337970Y-49868314D01*
X43662031Y-49868314D01*
X43662030Y-49868312D01*
X43601133Y-49562165D01*
X43500345Y-49318841D01*
X43500343Y-49318839D01*
X43326927Y-49059304D01*
X43326927Y-49059303D01*
X43140695Y-48873072D01*
X42881158Y-48699656D01*
X42881155Y-48699653D01*
X42709099Y-48628386D01*
X42637832Y-48598866D01*
X42637831Y-48598866D01*
X42463372Y-48564164D01*
X42266481Y-48525000D01*
X41233519Y-48525002D01*
X41168319Y-48537971D01*
X41168315Y-48537971D01*
X40862169Y-48598867D01*
X40618845Y-48699654D01*
X40359309Y-48873071D01*
X40359304Y-48873073D01*
X40173073Y-49059305D01*
X39999659Y-49318839D01*
X39999654Y-49318844D01*
X39898867Y-49562168D01*
X39837972Y-49868312D01*
X39837971Y-49868314D01*
X38175000Y-49868314D01*
X38175000Y-45446041D01*
X48380736Y-45446041D01*
X48589678Y-45803806D01*
X49521258Y-46179564D01*
X50525722Y-46170220D01*
X51410322Y-45803806D01*
X51619264Y-45446041D01*
X50000000Y-43826777D01*
X48380736Y-45446041D01*
X38175000Y-45446041D01*
X38175000Y-43171258D01*
X47470436Y-43171258D01*
X47479780Y-44175722D01*
X47846194Y-45060322D01*
X48203959Y-45269264D01*
X49823223Y-43650000D01*
X50176777Y-43650000D01*
X51796041Y-45269264D01*
X52153806Y-45060322D01*
X52529564Y-44128742D01*
X52520220Y-43124278D01*
X52153806Y-42239678D01*
X51796041Y-42030736D01*
X50176777Y-43650000D01*
X49823223Y-43650000D01*
X48203959Y-42030736D01*
X47846194Y-42239678D01*
X47470436Y-43171258D01*
X38175000Y-43171258D01*
X38175000Y-41853959D01*
X48380736Y-41853959D01*
X50000000Y-43473223D01*
X51619264Y-41853959D01*
X51410322Y-41496194D01*
X50478742Y-41120436D01*
X49474278Y-41129780D01*
X48589678Y-41496194D01*
X48380736Y-41853959D01*
X38175000Y-41853959D01*
X38175000Y-38175000D01*
X40095768Y-38175000D01*
X39999659Y-38318838D01*
G04 #@! TD*
M02*
