G04 #@! TF.GenerationSoftware,KiCad,Pcbnew,5.0.0-fee4fd1~66~ubuntu16.04.1*
G04 #@! TF.CreationDate,2018-08-13T22:47:53+05:30*
G04 #@! TF.ProjectId,1sqinch555,317371696E63683535352E6B69636164,rev?*
G04 #@! TF.SameCoordinates,Original*
G04 #@! TF.FileFunction,Soldermask,Bot*
G04 #@! TF.FilePolarity,Negative*
%FSLAX46Y46*%
G04 Gerber Fmt 4.6, Leading zero omitted, Abs format (unit mm)*
G04 Created by KiCad (PCBNEW 5.0.0-fee4fd1~66~ubuntu16.04.1) date Mon Aug 13 22:47:53 2018*
%MOMM*%
%LPD*%
G01*
G04 APERTURE LIST*
%ADD10R,2.400000X3.400000*%
%ADD11C,0.900000*%
%ADD12C,4.200000*%
%ADD13R,2.400000X2.400000*%
%ADD14C,2.400000*%
%ADD15C,0.254000*%
G04 APERTURE END LIST*
D10*
G04 #@! TO.C,J6*
X39000000Y-61000000D03*
G04 #@! TD*
G04 #@! TO.C,J8*
X50000000Y-50000000D03*
G04 #@! TD*
G04 #@! TO.C,J10*
X50000000Y-38999999D03*
G04 #@! TD*
G04 #@! TO.C,J12*
X61000000Y-61000000D03*
G04 #@! TD*
G04 #@! TO.C,J14*
X61000001Y-50000000D03*
G04 #@! TD*
G04 #@! TO.C,J16*
X61000000Y-39000000D03*
G04 #@! TD*
G04 #@! TO.C,J18*
X39000000Y-39000000D03*
G04 #@! TD*
G04 #@! TO.C,J20*
X38999999Y-50000000D03*
G04 #@! TD*
G04 #@! TO.C,J22*
X50000000Y-61000001D03*
G04 #@! TD*
G04 #@! TO.C,J24*
X44500000Y-50000000D03*
G04 #@! TD*
G04 #@! TO.C,J26*
X44500000Y-39000000D03*
G04 #@! TD*
G04 #@! TO.C,J28*
X44500000Y-61000000D03*
G04 #@! TD*
D11*
G04 #@! TO.C,mouse-bite-2.5mm-slot*
X117750000Y-52050000D03*
X117750000Y-53450000D03*
X115750000Y-53450000D03*
X115750000Y-52050000D03*
X117750000Y-52750000D03*
X115750000Y-52750000D03*
G04 #@! TD*
G04 #@! TO.C,mouse-bite-2.5mm-slot*
X117750000Y-41550000D03*
X117750000Y-42950000D03*
X115750000Y-42950000D03*
X115750000Y-41550000D03*
X117750000Y-42250000D03*
X115750000Y-42250000D03*
G04 #@! TD*
G04 #@! TO.C,mouse-bite-2.5mm-slot*
X91250000Y-52050000D03*
X91250000Y-53450000D03*
X89250000Y-53450000D03*
X89250000Y-52050000D03*
X91250000Y-52750000D03*
X89250000Y-52750000D03*
G04 #@! TD*
G04 #@! TO.C,mouse-bite-2.5mm-slot*
X91250000Y-41550000D03*
X91250000Y-42950000D03*
X89250000Y-42950000D03*
X89250000Y-41550000D03*
X91250000Y-42250000D03*
X89250000Y-42250000D03*
G04 #@! TD*
G04 #@! TO.C,mouse-bite-2.5mm-slot*
X64750000Y-41550000D03*
X64750000Y-42950000D03*
X62750000Y-42950000D03*
X62750000Y-41550000D03*
X64750000Y-42250000D03*
X62750000Y-42250000D03*
G04 #@! TD*
G04 #@! TO.C,mouse-bite-2.5mm-slot*
X64750000Y-52050000D03*
X64750000Y-53450000D03*
X62750000Y-53450000D03*
X62750000Y-52050000D03*
X64750000Y-52750000D03*
X62750000Y-52750000D03*
G04 #@! TD*
D12*
G04 #@! TO.C,BT1*
X50000000Y-43650000D03*
X50000000Y-56350000D03*
G04 #@! TD*
D13*
G04 #@! TO.C,J7*
X66000000Y-59500000D03*
G04 #@! TD*
G04 #@! TO.C,J9*
X77000000Y-59499999D03*
G04 #@! TD*
G04 #@! TO.C,J11*
X88000000Y-59500000D03*
G04 #@! TD*
G04 #@! TO.C,J13*
X92500000Y-59500000D03*
G04 #@! TD*
G04 #@! TO.C,J15*
X103500000Y-59499999D03*
G04 #@! TD*
G04 #@! TO.C,J17*
X114500000Y-59500000D03*
G04 #@! TD*
G04 #@! TO.C,J19*
X119000000Y-59500000D03*
G04 #@! TD*
G04 #@! TO.C,J21*
X130000000Y-59499999D03*
G04 #@! TD*
G04 #@! TO.C,J23*
X141000000Y-59500000D03*
G04 #@! TD*
G04 #@! TO.C,J25*
X82500000Y-59500000D03*
G04 #@! TD*
G04 #@! TO.C,J27*
X109000000Y-59500000D03*
G04 #@! TD*
G04 #@! TO.C,J29*
X135500000Y-59500000D03*
G04 #@! TD*
D14*
G04 #@! TO.C,J30*
X71500000Y-39500000D03*
G04 #@! TD*
G04 #@! TO.C,J31*
X82500000Y-39500000D03*
G04 #@! TD*
G04 #@! TO.C,J32*
X98000000Y-39500000D03*
G04 #@! TD*
G04 #@! TO.C,J33*
X109000000Y-39500000D03*
G04 #@! TD*
G04 #@! TO.C,J34*
X135500000Y-39500000D03*
G04 #@! TD*
G04 #@! TO.C,J35*
X124500000Y-39500000D03*
G04 #@! TD*
D15*
G36*
X115873000Y-62373000D02*
X91127000Y-62373000D01*
X91127000Y-37127000D01*
X115873000Y-37127000D01*
X115873000Y-62373000D01*
X115873000Y-62373000D01*
G37*
X115873000Y-62373000D02*
X91127000Y-62373000D01*
X91127000Y-37127000D01*
X115873000Y-37127000D01*
X115873000Y-62373000D01*
G36*
X142373000Y-62373000D02*
X117627000Y-62373000D01*
X117627000Y-37127000D01*
X142373000Y-37127000D01*
X142373000Y-62373000D01*
X142373000Y-62373000D01*
G37*
X142373000Y-62373000D02*
X117627000Y-62373000D01*
X117627000Y-37127000D01*
X142373000Y-37127000D01*
X142373000Y-62373000D01*
G36*
X89373000Y-62373000D02*
X64627000Y-62373000D01*
X64627000Y-37127000D01*
X89373000Y-37127000D01*
X89373000Y-62373000D01*
X89373000Y-62373000D01*
G37*
X89373000Y-62373000D02*
X64627000Y-62373000D01*
X64627000Y-37127000D01*
X89373000Y-37127000D01*
X89373000Y-62373000D01*
M02*
