G04 #@! TF.GenerationSoftware,KiCad,Pcbnew,5.0.0-fee4fd1~66~ubuntu16.04.1*
G04 #@! TF.CreationDate,2018-08-14T22:38:02+05:30*
G04 #@! TF.ProjectId,1sqinch555,317371696E63683535352E6B69636164,rev?*
G04 #@! TF.SameCoordinates,Original*
G04 #@! TF.FileFunction,Profile,NP*
%FSLAX46Y46*%
G04 Gerber Fmt 4.6, Leading zero omitted, Abs format (unit mm)*
G04 Created by KiCad (PCBNEW 5.0.0-fee4fd1~66~ubuntu16.04.1) date Tue Aug 14 22:38:02 2018*
%MOMM*%
%LPD*%
G01*
G04 APERTURE LIST*
%ADD10C,0.100000*%
G04 APERTURE END LIST*
D10*
X113500000Y-41250000D02*
G75*
G02X112500000Y-41250000I-500000J0D01*
G01*
X112500000Y-44250000D02*
G75*
G02X113500000Y-44250000I500000J0D01*
G01*
X113500000Y-50750000D02*
G75*
G02X112500000Y-50750000I-500000J0D01*
G01*
X112500000Y-53750000D02*
G75*
G02X113500000Y-53750000I500000J0D01*
G01*
X63500000Y-41250000D02*
G75*
G02X62500000Y-41250000I-500000J0D01*
G01*
X62500000Y-44250000D02*
G75*
G02X63500000Y-44250000I500000J0D01*
G01*
X137200000Y-37500000D02*
G75*
G02X137500000Y-37800000I0J-300000D01*
G01*
X113500000Y-37800000D02*
G75*
G02X113800000Y-37500000I300000J0D01*
G01*
X112200000Y-37500000D02*
G75*
G02X112500000Y-37800000I0J-300000D01*
G01*
X88500000Y-37800000D02*
G75*
G02X88800000Y-37500000I300000J0D01*
G01*
X87200000Y-37500000D02*
G75*
G02X87500000Y-37800000I0J-300000D01*
G01*
X63500000Y-37800000D02*
G75*
G02X63800000Y-37500000I300000J0D01*
G01*
X62200000Y-37500000D02*
G75*
G02X62500000Y-37800000I0J-300000D01*
G01*
X62500000Y-62200000D02*
G75*
G02X62200000Y-62500000I-300000J0D01*
G01*
X37800000Y-62500000D02*
G75*
G02X37500000Y-62200000I0J300000D01*
G01*
X37500000Y-37800000D02*
G75*
G02X37800000Y-37500000I300000J0D01*
G01*
X113500000Y-53750000D02*
X113500000Y-60500000D01*
X112500000Y-53750000D02*
X112500000Y-60500000D01*
X113500000Y-44250000D02*
X113500000Y-50750000D01*
X112500000Y-44250000D02*
X112500000Y-50750000D01*
X88500000Y-53750000D02*
X88500000Y-60500000D01*
X87500000Y-53750000D02*
X87500000Y-60500000D01*
X88500000Y-44250000D02*
X88500000Y-50750000D01*
X87500000Y-44250000D02*
X87500000Y-50750000D01*
X63500000Y-60500000D02*
X63500000Y-53750000D01*
X62500000Y-53750000D02*
X62500000Y-62200000D01*
X63500000Y-50750000D02*
X63500000Y-44250000D01*
X62500000Y-44250000D02*
X62500000Y-50750000D01*
X88500000Y-41250000D02*
G75*
G02X87500000Y-41250000I-500000J0D01*
G01*
X87500000Y-44250000D02*
G75*
G02X88500000Y-44250000I500000J0D01*
G01*
X88500000Y-50750000D02*
G75*
G02X87500000Y-50750000I-500000J0D01*
G01*
X87500000Y-53750000D02*
G75*
G02X88500000Y-53750000I500000J0D01*
G01*
X62500000Y-53750000D02*
G75*
G02X63500000Y-53750000I500000J0D01*
G01*
X63500000Y-50750000D02*
G75*
G02X62500000Y-50750000I-500000J0D01*
G01*
X115800001Y-55900000D02*
X115800000Y-40999999D01*
X135200000Y-40999999D02*
X135199999Y-55900000D01*
X135200000Y-55900000D02*
G75*
G02X132200000Y-55900000I-1500000J0D01*
G01*
X129800000Y-41000000D02*
X129800000Y-55900000D01*
X118800000Y-41000000D02*
X118800000Y-55900000D01*
X126800000Y-41000000D02*
G75*
G02X129800000Y-41000000I1500000J0D01*
G01*
X132200000Y-55900000D02*
X132200000Y-41000000D01*
X118799999Y-55900000D02*
G75*
G02X115800001Y-55900000I-1499999J0D01*
G01*
X115800000Y-41000000D02*
G75*
G02X118800000Y-41000000I1500000J0D01*
G01*
X132200000Y-41000001D02*
G75*
G02X135200000Y-40999999I1500000J1D01*
G01*
X121200000Y-41000000D02*
G75*
G02X124200000Y-41000000I1500000J0D01*
G01*
X126800000Y-55900000D02*
X126800000Y-41000000D01*
X121200000Y-55900000D02*
X121200000Y-41000000D01*
X124200000Y-55900000D02*
G75*
G02X121200000Y-55900000I-1500000J0D01*
G01*
X124200000Y-41000000D02*
X124200000Y-55900000D01*
X129800000Y-55900000D02*
G75*
G02X126800000Y-55900000I-1500000J0D01*
G01*
X104800000Y-55900000D02*
G75*
G02X101800000Y-55900000I-1500000J0D01*
G01*
X101800000Y-41000000D02*
G75*
G02X104800000Y-41000000I1500000J0D01*
G01*
X96200000Y-55900000D02*
X96200000Y-41000000D01*
X99200000Y-41000000D02*
X99200000Y-55900000D01*
X104800000Y-41000000D02*
X104800000Y-55900000D01*
X93800000Y-41000000D02*
X93800000Y-55900000D01*
X96200000Y-41000000D02*
G75*
G02X99200000Y-41000000I1500000J0D01*
G01*
X90800001Y-55900000D02*
X90800000Y-40999999D01*
X90800000Y-41000000D02*
G75*
G02X93800000Y-41000000I1500000J0D01*
G01*
X101800000Y-55900000D02*
X101800000Y-41000000D01*
X107200000Y-55900000D02*
X107200000Y-41000000D01*
X110200000Y-40999999D02*
X110199999Y-55900000D01*
X110200000Y-55900000D02*
G75*
G02X107200000Y-55900000I-1500000J0D01*
G01*
X107200000Y-41000001D02*
G75*
G02X110200000Y-40999999I1500000J1D01*
G01*
X93799999Y-55900000D02*
G75*
G02X90800001Y-55900000I-1499999J0D01*
G01*
X99200000Y-55900000D02*
G75*
G02X96200000Y-55900000I-1500000J0D01*
G01*
X65800001Y-55900000D02*
X65800000Y-40999999D01*
X68800000Y-41000000D02*
X68800000Y-55900000D01*
X65800000Y-41000000D02*
G75*
G02X68800000Y-41000000I1500000J0D01*
G01*
X68799999Y-55900000D02*
G75*
G02X65800001Y-55900000I-1499999J0D01*
G01*
X74200000Y-55900000D02*
G75*
G02X71200000Y-55900000I-1500000J0D01*
G01*
X71200000Y-41000000D02*
G75*
G02X74200000Y-41000000I1500000J0D01*
G01*
X74200000Y-41000000D02*
X74200000Y-55900000D01*
X71200000Y-55900000D02*
X71200000Y-41000000D01*
X76800000Y-55900000D02*
X76800000Y-41000000D01*
X79800000Y-41000000D02*
X79800000Y-55900000D01*
X79800000Y-55900000D02*
G75*
G02X76800000Y-55900000I-1500000J0D01*
G01*
X76800000Y-41000000D02*
G75*
G02X79800000Y-41000000I1500000J0D01*
G01*
X124300000Y-60500000D02*
X127300000Y-60500000D01*
X132800000Y-60500000D02*
X131000000Y-60500000D01*
X134500000Y-62000000D02*
G75*
G02X134300000Y-62200000I-200000J0D01*
G01*
X127700000Y-62200000D02*
G75*
G02X127500000Y-62000000I0J200000D01*
G01*
X132800000Y-60500001D02*
G75*
G02X132999999Y-60700000I0J-199999D01*
G01*
X133200000Y-62200000D02*
G75*
G02X133000000Y-62000000I0J200000D01*
G01*
X115900000Y-60300000D02*
G75*
G02X115700000Y-60500000I-200000J0D01*
G01*
X124300000Y-60500000D02*
G75*
G02X124100000Y-60300000I0J200000D01*
G01*
X134500001Y-60700000D02*
X134500000Y-62000000D01*
X127300000Y-60500000D02*
G75*
G02X127500000Y-60700000I0J-200000D01*
G01*
X123900000Y-58000000D02*
G75*
G02X124100000Y-58200000I0J-200000D01*
G01*
X115900000Y-58200000D02*
G75*
G02X116100000Y-58000000I200000J0D01*
G01*
X127500000Y-62000000D02*
X127500000Y-60700000D01*
X129000000Y-60700000D02*
X129000000Y-62000000D01*
X115899999Y-58200000D02*
X115900000Y-60300000D01*
X134300000Y-62200000D02*
X133200000Y-62200000D01*
X131000000Y-60500000D02*
X129200000Y-60500000D01*
X115700000Y-60500000D02*
X113500000Y-60500000D01*
X129000000Y-62000000D02*
G75*
G02X128800000Y-62200000I-200000J0D01*
G01*
X137500000Y-60500000D02*
X134700000Y-60500000D01*
X124100000Y-60300000D02*
X124100000Y-58200000D01*
X128800000Y-62200000D02*
X127700000Y-62200000D01*
X134500000Y-60700000D02*
G75*
G02X134700000Y-60500000I200000J0D01*
G01*
X133000000Y-62000000D02*
X132999999Y-60700000D01*
X123900000Y-58000000D02*
X116100000Y-58000000D01*
X129000001Y-60700001D02*
G75*
G02X129200000Y-60500000I200000J1D01*
G01*
X102700000Y-62200000D02*
G75*
G02X102500000Y-62000000I0J200000D01*
G01*
X107800000Y-60500001D02*
G75*
G02X107999999Y-60700000I0J-199999D01*
G01*
X98900000Y-58000000D02*
G75*
G02X99100000Y-58200000I0J-200000D01*
G01*
X90900000Y-58200000D02*
G75*
G02X91100000Y-58000000I200000J0D01*
G01*
X90900000Y-60300000D02*
G75*
G02X90700000Y-60500000I-200000J0D01*
G01*
X109500000Y-60700000D02*
G75*
G02X109700000Y-60500000I200000J0D01*
G01*
X99300000Y-60500000D02*
X102300000Y-60500000D01*
X99100000Y-60300000D02*
X99100000Y-58200000D01*
X104000001Y-60700001D02*
G75*
G02X104200000Y-60500000I200000J1D01*
G01*
X99300000Y-60500000D02*
G75*
G02X99100000Y-60300000I0J200000D01*
G01*
X98900000Y-58000000D02*
X91100000Y-58000000D01*
X102300000Y-60500000D02*
G75*
G02X102500000Y-60700000I0J-200000D01*
G01*
X108200000Y-62200000D02*
G75*
G02X108000000Y-62000000I0J200000D01*
G01*
X90899999Y-58200000D02*
X90900000Y-60300000D01*
X104000000Y-62000000D02*
G75*
G02X103800000Y-62200000I-200000J0D01*
G01*
X90700000Y-60500000D02*
X88500000Y-60500000D01*
X112500000Y-60500000D02*
X109700000Y-60500000D01*
X109500001Y-60700000D02*
X109500000Y-62000000D01*
X109300000Y-62200000D02*
X108200000Y-62200000D01*
X108000000Y-62000000D02*
X107999999Y-60700000D01*
X107800000Y-60500000D02*
X106000000Y-60500000D01*
X106000000Y-60500000D02*
X104200000Y-60500000D01*
X104000000Y-60700000D02*
X104000000Y-62000000D01*
X103800000Y-62200000D02*
X102700000Y-62200000D01*
X102500000Y-62000000D02*
X102500000Y-60700000D01*
X109500000Y-62000000D02*
G75*
G02X109300000Y-62200000I-200000J0D01*
G01*
X84500000Y-60700000D02*
G75*
G02X84700000Y-60500000I200000J0D01*
G01*
X84500000Y-62000000D02*
G75*
G02X84300000Y-62200000I-200000J0D01*
G01*
X83200000Y-62200000D02*
G75*
G02X83000000Y-62000000I0J200000D01*
G01*
X82800000Y-60500001D02*
G75*
G02X82999999Y-60700000I0J-199999D01*
G01*
X79000001Y-60700001D02*
G75*
G02X79200000Y-60500000I200000J1D01*
G01*
X79000000Y-62000000D02*
G75*
G02X78800000Y-62200000I-200000J0D01*
G01*
X77700000Y-62200000D02*
G75*
G02X77500000Y-62000000I0J200000D01*
G01*
X77300000Y-60500000D02*
G75*
G02X77500000Y-60700000I0J-200000D01*
G01*
X65900000Y-60300000D02*
G75*
G02X65700000Y-60500000I-200000J0D01*
G01*
X65900000Y-58200000D02*
G75*
G02X66100000Y-58000000I200000J0D01*
G01*
X73900000Y-58000000D02*
G75*
G02X74100000Y-58200000I0J-200000D01*
G01*
X74300000Y-60500000D02*
G75*
G02X74100000Y-60300000I0J200000D01*
G01*
X74300000Y-60500000D02*
X77300000Y-60500000D01*
X65899999Y-58200000D02*
X65900000Y-60300000D01*
X73900000Y-58000000D02*
X66100000Y-58000000D01*
X74100000Y-60300000D02*
X74100000Y-58200000D01*
X82200000Y-41000001D02*
G75*
G02X85200000Y-40999999I1500000J1D01*
G01*
X85200000Y-55900000D02*
G75*
G02X82200000Y-55900000I-1500000J0D01*
G01*
X85200000Y-40999999D02*
X85199999Y-55900000D01*
X82200000Y-55900000D02*
X82200000Y-41000000D01*
X113500000Y-41250000D02*
X113500000Y-37800000D01*
X137500000Y-37800000D02*
X137500000Y-60500000D01*
X113800000Y-37500000D02*
X137200000Y-37500000D01*
X88800000Y-37500000D02*
X112200000Y-37500000D01*
X112500000Y-37800000D02*
X112500000Y-41250000D01*
X88500000Y-41250000D02*
X88500000Y-37800000D01*
X77500000Y-62000000D02*
X77500000Y-60700000D01*
X78800000Y-62200000D02*
X77700000Y-62200000D01*
X79000000Y-60700000D02*
X79000000Y-62000000D01*
X81000000Y-60500000D02*
X79200000Y-60500000D01*
X82800000Y-60500000D02*
X81000000Y-60500000D01*
X83000000Y-62000000D02*
X82999999Y-60700000D01*
X84300000Y-62200000D02*
X83200000Y-62200000D01*
X84500001Y-60700000D02*
X84500000Y-62000000D01*
X87500000Y-60500000D02*
X84700000Y-60500000D01*
X87500000Y-37800000D02*
X87500000Y-41250000D01*
X63800000Y-37500000D02*
X87200000Y-37500000D01*
X63500000Y-41250000D02*
X63500000Y-37800000D01*
X65700000Y-60500000D02*
X63500000Y-60500000D01*
X47700001Y-60200000D02*
G75*
G02X47699999Y-61800000I-1J-800000D01*
G01*
X46800000Y-61800000D02*
G75*
G02X46800000Y-60200000I0J800000D01*
G01*
X47699999Y-61800000D02*
X46800000Y-61800000D01*
X46800000Y-60200000D02*
X47700000Y-60200000D01*
X42200000Y-61800000D02*
X41300000Y-61800000D01*
X41300000Y-60200000D02*
X42200000Y-60200000D01*
X41300000Y-61800002D02*
G75*
G02X41300000Y-60200000I0J800001D01*
G01*
X42200002Y-60200000D02*
G75*
G02X42200000Y-61800000I-1J-800000D01*
G01*
X41300000Y-50799999D02*
G75*
G02X41300000Y-49200001I0J799999D01*
G01*
X42200001Y-50800000D02*
X41300000Y-50799999D01*
X41300000Y-49200001D02*
X42200001Y-49200000D01*
X42199999Y-49200000D02*
G75*
G02X42200001Y-50800000I1J-800000D01*
G01*
X47700000Y-50800000D02*
X46800000Y-50800000D01*
X47699998Y-49200000D02*
G75*
G02X47700000Y-50800000I1J-800000D01*
G01*
X46800000Y-49200000D02*
X47700000Y-49200000D01*
X46800000Y-50800000D02*
G75*
G02X46800000Y-49200000I0J800000D01*
G01*
X46800000Y-38200000D02*
X47699999Y-38200000D01*
X47700000Y-39800000D02*
X46800000Y-39800000D01*
X47700000Y-38200000D02*
G75*
G02X47700000Y-39800000I0J-800000D01*
G01*
X46800000Y-39800000D02*
G75*
G02X46800000Y-38200000I0J800000D01*
G01*
X42200002Y-38200000D02*
G75*
G02X42200000Y-39800000I-1J-800000D01*
G01*
X41300000Y-39799998D02*
G75*
G02X41300000Y-38200000I0J799999D01*
G01*
X42200000Y-39800000D02*
X41300000Y-39800000D01*
X41300000Y-38200000D02*
X42200000Y-38200000D01*
X37800000Y-37500000D02*
X62200000Y-37500000D01*
X37500000Y-62200000D02*
X37500000Y-37800000D01*
X62200000Y-62500000D02*
X37800000Y-62500000D01*
X62500000Y-37800000D02*
X62500000Y-41250000D01*
M02*
